M48
; DRILL file KiCad 10.0.6-10.0.6~ubuntu26.04.1 date 2026-09-15T04:53:47
; FORMAT={-:-/ absolute / metric / decimal}
; #@! TF.CreationDate,2026-09-15T04:53:47+07:00
; #@! TF.GenerationSoftware,Kicad,Pcbnew,10.0.6-10.0.6~ubuntu26.04.1
; #@! TF.FileFunction,Plated,1,2,PTH
FMAT,2
METRIC
; #@! TA.AperFunction,Plated,PTH,ViaDrill
T1C0.300
; #@! TA.AperFunction,Plated,PTH,ComponentDrill
T2C0.600
; #@! TA.AperFunction,Plated,PTH,ComponentDrill
T3C1.000
%
G90
G05
T1
X70.038Y-129.653
X71.557Y-73.612
X71.688Y-70.109
X71.861Y-128.501
X72.25Y-125.05
X72.582Y-122.976
X72.723Y-76.723
X75.203Y-72.365
X75.35Y-73.398
X76.45Y-125.05
X76.9Y-126.05
X78.447Y-122.75
X79.302Y-77.385
X79.502Y-81.615
X81.452Y-82.911
X81.535Y-85.627
X82.476Y-82.653
X82.545Y-86.196
X83.731Y-79.803
X83.749Y-113.885
X83.862Y-89.55
X84.168Y-81.818
X85.1Y-93.55
X85.445Y-92.227
X85.661Y-86.121
X86.364Y-110.135
X86.364Y-115.103
X86.742Y-92.242
X87.1Y-93.38
X87.637Y-86.532
X88.022Y-96.803
X88.3Y-101.09
X88.4Y-91.5
X88.647Y-104.79
X88.96Y-89.039
X89.146Y-106.475
X89.511Y-117.703
X89.688Y-100.692
X89.7Y-92.85
X89.773Y-95.699
X89.835Y-102.813
X89.835Y-96.978
X89.837Y-116.703
X89.995Y-99.417
X90.045Y-89.879
X90.263Y-117.703
X91.615Y-117.211
X92.004Y-111.253
X92.172Y-104.301
X92.956Y-108.865
X92.96Y-93.625
X92.961Y-96.924
X92.985Y-87.78
X93.035Y-115.65
X93.229Y-94.416
X93.282Y-109.707
X93.552Y-107.595
X94.108Y-88.559
X94.288Y-95.281
X94.525Y-92.575
X94.915Y-85.181
X94.915Y-87.662
X94.915Y-90.076
X95.058Y-96.382
X95.114Y-94.121
X95.681Y-92.58
X95.681Y-87.89
X96.156Y-99.098
X96.165Y-106.784
X96.87Y-97.095
X97.661Y-107.474
X98.35Y-104.4
X98.515Y-88.05
X98.8Y-109.35
X99.283Y-96.43
X99.3Y-104.4
X99.32Y-98.234
X99.6Y-109.9
X100.09Y-99.098
X100.2Y-104.4
X100.4Y-109.35
X101.212Y-88.592
X101.3Y-109.9
X101.389Y-104.572
X102.009Y-100.469
X102.009Y-105.05
X102.314Y-94.524
X102.398Y-88.05
X102.655Y-110.51
X102.729Y-92.491
X102.733Y-91.305
X103.496Y-89.113
X103.536Y-87.873
X103.72Y-106.199
X104.101Y-91.584
X104.901Y-98.906
X105.361Y-98.106
X105.382Y-90.572
X105.427Y-104.675
X105.552Y-94.072
X105.995Y-99.82
X106.291Y-91.59
X106.348Y-106.95
X106.456Y-95.4
X106.505Y-115.568
X106.561Y-100.317
X106.76Y-86.512
X106.81Y-108.503
X106.92Y-92.233
X107.021Y-87.78
X107.045Y-100.896
X107.799Y-106.009
X107.912Y-103.14
X108.211Y-109.692
X108.651Y-115.036
X108.839Y-106.702
X109.372Y-104.976
X109.598Y-107.274
X109.955Y-96.88
X110.1Y-88.75
X110.1Y-89.75
X110.125Y-95.716
X110.162Y-86.888
X110.275Y-109.521
X110.309Y-94.559
X110.602Y-103.35
X110.63Y-110.276
X110.81Y-91.025
X110.9Y-102.59
X111.384Y-99.615
X112.154Y-91.524
X112.159Y-103.824
X112.172Y-96.086
X112.251Y-100.489
X112.287Y-97.986
X112.872Y-99.308
X112.969Y-93.861
X113.284Y-87.578
X114.535Y-108.477
X114.558Y-89.244
X114.652Y-87.945
X115.406Y-106.685
X116.0Y-82.524
X117.35Y-78.75
X117.777Y-120.677
X119.87Y-119.098
X119.9Y-124.1
X119.956Y-120.677
X120.597Y-81.033
X120.74Y-75.644
X121.418Y-123.174
X122.615Y-79.216
X123.434Y-121.144
X123.96Y-122.69
X124.099Y-76.213
X124.165Y-124.075
X124.215Y-79.376
X124.647Y-121.605
X125.339Y-71.529
X125.902Y-121.375
X126.238Y-129.643
X126.602Y-75.35
X127.401Y-123.834
T3
X85.25Y-94.94
X85.25Y-97.48
X85.25Y-100.02
X85.25Y-102.56
X115.0Y-93.04
X115.0Y-95.58
X115.0Y-98.12
X115.0Y-100.66
T2
G00X95.68Y-112.345
M15
G01X95.68Y-113.445
M16
G05
G00X95.68Y-116.675
M15
G01X95.68Y-117.475
M16
G05
G00X104.32Y-112.345
M15
G01X104.32Y-113.445
M16
G05
G00X104.32Y-116.675
M15
G01X104.32Y-117.475
M16
G05
M30
