%TF.GenerationSoftware,KiCad,Pcbnew,10.0.6-10.0.6~ubuntu26.04.1*%
%TF.CreationDate,2026-09-15T04:53:46+07:00*%
%TF.ProjectId,FC_ESP32,46435f45-5350-4333-922e-6b696361645f,rev?*%
%TF.SameCoordinates,Original*%
%TF.FileFunction,Legend,Bot*%
%TF.FilePolarity,Positive*%
%FSLAX46Y46*%
G04 Gerber Fmt 4.6, Leading zero omitted, Abs format (unit mm)*
G04 Created by KiCad (PCBNEW 10.0.6-10.0.6~ubuntu26.04.1) date 2026-09-15 04:53:46*
%MOMM*%
%LPD*%
G01*
G04 APERTURE LIST*
%ADD10C,0.300000*%
G04 APERTURE END LIST*
D10*
X102333333Y-111909638D02*
X102333333Y-109909638D01*
X102333333Y-109909638D02*
X101571428Y-109909638D01*
X101571428Y-109909638D02*
X101380952Y-110004876D01*
X101380952Y-110004876D02*
X101285714Y-110100114D01*
X101285714Y-110100114D02*
X101190476Y-110290590D01*
X101190476Y-110290590D02*
X101190476Y-110576304D01*
X101190476Y-110576304D02*
X101285714Y-110766780D01*
X101285714Y-110766780D02*
X101380952Y-110862019D01*
X101380952Y-110862019D02*
X101571428Y-110957257D01*
X101571428Y-110957257D02*
X102333333Y-110957257D01*
X100333333Y-111909638D02*
X100333333Y-109909638D01*
X100333333Y-109909638D02*
X99190476Y-111909638D01*
X99190476Y-111909638D02*
X99190476Y-109909638D01*
X98523809Y-109909638D02*
X97380952Y-109909638D01*
X97952381Y-111909638D02*
X97952381Y-109909638D01*
%LPC*%
G36*
X67161262Y-129136787D02*
G01*
X67530689Y-129201927D01*
X67893034Y-129299017D01*
X68245538Y-129427318D01*
X68585518Y-129585853D01*
X68910387Y-129773417D01*
X69217673Y-129988581D01*
X69505037Y-130229707D01*
X69770292Y-130494962D01*
X70011418Y-130782326D01*
X70226582Y-131089612D01*
X70414146Y-131414481D01*
X70572681Y-131754461D01*
X70700982Y-132106965D01*
X70798072Y-132469310D01*
X70863212Y-132838737D01*
X70895906Y-133212437D01*
X70895906Y-133587563D01*
X70863212Y-133961263D01*
X70798072Y-134330690D01*
X70700982Y-134693035D01*
X70572681Y-135045539D01*
X70414146Y-135385519D01*
X70226582Y-135710388D01*
X70011418Y-136017674D01*
X69770292Y-136305038D01*
X69505037Y-136570293D01*
X69217673Y-136811419D01*
X68910387Y-137026583D01*
X68585518Y-137214147D01*
X68245538Y-137372682D01*
X67893034Y-137500983D01*
X67530689Y-137598073D01*
X67161262Y-137663213D01*
X66787562Y-137695907D01*
X66412436Y-137695907D01*
X66038736Y-137663213D01*
X65669309Y-137598073D01*
X65306964Y-137500983D01*
X64954460Y-137372682D01*
X64614480Y-137214147D01*
X64289611Y-137026583D01*
X63982325Y-136811419D01*
X63694961Y-136570293D01*
X63429706Y-136305038D01*
X63188580Y-136017674D01*
X62973416Y-135710388D01*
X62785852Y-135385519D01*
X62627317Y-135045539D01*
X62499016Y-134693035D01*
X62401926Y-134330690D01*
X62336786Y-133961263D01*
X62304092Y-133587563D01*
X62304092Y-133212437D01*
X62336786Y-132838737D01*
X62401926Y-132469310D01*
X62499016Y-132106965D01*
X62627317Y-131754461D01*
X62785852Y-131414481D01*
X62973416Y-131089612D01*
X63188580Y-130782326D01*
X63429706Y-130494962D01*
X63694961Y-130229707D01*
X63982325Y-129988581D01*
X64289611Y-129773417D01*
X64614480Y-129585853D01*
X64954460Y-129427318D01*
X65306964Y-129299017D01*
X65669309Y-129201927D01*
X66038736Y-129136787D01*
X66412436Y-129104093D01*
X66787562Y-129104093D01*
X67161262Y-129136787D01*
G37*
G36*
X133961263Y-129136787D02*
G01*
X134330690Y-129201927D01*
X134693035Y-129299017D01*
X135045539Y-129427318D01*
X135385519Y-129585853D01*
X135710388Y-129773417D01*
X136017674Y-129988581D01*
X136305038Y-130229707D01*
X136570293Y-130494962D01*
X136811419Y-130782326D01*
X137026583Y-131089612D01*
X137214147Y-131414481D01*
X137372682Y-131754461D01*
X137500983Y-132106965D01*
X137598073Y-132469310D01*
X137663213Y-132838737D01*
X137695907Y-133212437D01*
X137695907Y-133587563D01*
X137663213Y-133961263D01*
X137598073Y-134330690D01*
X137500983Y-134693035D01*
X137372682Y-135045539D01*
X137214147Y-135385519D01*
X137026583Y-135710388D01*
X136811419Y-136017674D01*
X136570293Y-136305038D01*
X136305038Y-136570293D01*
X136017674Y-136811419D01*
X135710388Y-137026583D01*
X135385519Y-137214147D01*
X135045539Y-137372682D01*
X134693035Y-137500983D01*
X134330690Y-137598073D01*
X133961263Y-137663213D01*
X133587563Y-137695907D01*
X133212437Y-137695907D01*
X132838737Y-137663213D01*
X132469310Y-137598073D01*
X132106965Y-137500983D01*
X131754461Y-137372682D01*
X131414481Y-137214147D01*
X131089612Y-137026583D01*
X130782326Y-136811419D01*
X130494962Y-136570293D01*
X130229707Y-136305038D01*
X129988581Y-136017674D01*
X129773417Y-135710388D01*
X129585853Y-135385519D01*
X129427318Y-135045539D01*
X129299017Y-134693035D01*
X129201927Y-134330690D01*
X129136787Y-133961263D01*
X129104093Y-133587563D01*
X129104093Y-133212437D01*
X129136787Y-132838737D01*
X129201927Y-132469310D01*
X129299017Y-132106965D01*
X129427318Y-131754461D01*
X129585853Y-131414481D01*
X129773417Y-131089612D01*
X129988581Y-130782326D01*
X130229707Y-130494962D01*
X130494962Y-130229707D01*
X130782326Y-129988581D01*
X131089612Y-129773417D01*
X131414481Y-129585853D01*
X131754461Y-129427318D01*
X132106965Y-129299017D01*
X132469310Y-129201927D01*
X132838737Y-129136787D01*
X133212437Y-129104093D01*
X133587563Y-129104093D01*
X133961263Y-129136787D01*
G37*
G36*
X95871342Y-116213060D02*
G01*
X95984381Y-116278323D01*
X96076677Y-116370619D01*
X96141940Y-116483658D01*
X96175722Y-116609737D01*
X96180000Y-116675000D01*
X96180000Y-117475000D01*
X96175722Y-117540263D01*
X96141940Y-117666342D01*
X96076677Y-117779381D01*
X95984381Y-117871677D01*
X95871342Y-117936940D01*
X95745263Y-117970722D01*
X95614737Y-117970722D01*
X95488658Y-117936940D01*
X95375619Y-117871677D01*
X95283323Y-117779381D01*
X95218060Y-117666342D01*
X95184278Y-117540263D01*
X95180000Y-117475000D01*
X95180000Y-116675000D01*
X95184278Y-116609737D01*
X95218060Y-116483658D01*
X95283323Y-116370619D01*
X95375619Y-116278323D01*
X95488658Y-116213060D01*
X95614737Y-116179278D01*
X95745263Y-116179278D01*
X95871342Y-116213060D01*
G37*
G36*
X104511342Y-116213060D02*
G01*
X104624381Y-116278323D01*
X104716677Y-116370619D01*
X104781940Y-116483658D01*
X104815722Y-116609737D01*
X104820000Y-116675000D01*
X104820000Y-117475000D01*
X104815722Y-117540263D01*
X104781940Y-117666342D01*
X104716677Y-117779381D01*
X104624381Y-117871677D01*
X104511342Y-117936940D01*
X104385263Y-117970722D01*
X104254737Y-117970722D01*
X104128658Y-117936940D01*
X104015619Y-117871677D01*
X103923323Y-117779381D01*
X103858060Y-117666342D01*
X103824278Y-117540263D01*
X103820000Y-117475000D01*
X103820000Y-116675000D01*
X103824278Y-116609737D01*
X103858060Y-116483658D01*
X103923323Y-116370619D01*
X104015619Y-116278323D01*
X104128658Y-116213060D01*
X104254737Y-116179278D01*
X104385263Y-116179278D01*
X104511342Y-116213060D01*
G37*
G36*
X95871342Y-111883060D02*
G01*
X95984381Y-111948323D01*
X96076677Y-112040619D01*
X96141940Y-112153658D01*
X96175722Y-112279737D01*
X96180000Y-112345000D01*
X96180000Y-113445000D01*
X96175722Y-113510263D01*
X96141940Y-113636342D01*
X96076677Y-113749381D01*
X95984381Y-113841677D01*
X95871342Y-113906940D01*
X95745263Y-113940722D01*
X95614737Y-113940722D01*
X95488658Y-113906940D01*
X95375619Y-113841677D01*
X95283323Y-113749381D01*
X95218060Y-113636342D01*
X95184278Y-113510263D01*
X95180000Y-113445000D01*
X95180000Y-112345000D01*
X95184278Y-112279737D01*
X95218060Y-112153658D01*
X95283323Y-112040619D01*
X95375619Y-111948323D01*
X95488658Y-111883060D01*
X95614737Y-111849278D01*
X95745263Y-111849278D01*
X95871342Y-111883060D01*
G37*
G36*
X104511342Y-111883060D02*
G01*
X104624381Y-111948323D01*
X104716677Y-112040619D01*
X104781940Y-112153658D01*
X104815722Y-112279737D01*
X104820000Y-112345000D01*
X104820000Y-113445000D01*
X104815722Y-113510263D01*
X104781940Y-113636342D01*
X104716677Y-113749381D01*
X104624381Y-113841677D01*
X104511342Y-113906940D01*
X104385263Y-113940722D01*
X104254737Y-113940722D01*
X104128658Y-113906940D01*
X104015619Y-113841677D01*
X103923323Y-113749381D01*
X103858060Y-113636342D01*
X103824278Y-113510263D01*
X103820000Y-113445000D01*
X103820000Y-112345000D01*
X103824278Y-112279737D01*
X103858060Y-112153658D01*
X103923323Y-112040619D01*
X104015619Y-111948323D01*
X104128658Y-111883060D01*
X104254737Y-111849278D01*
X104385263Y-111849278D01*
X104511342Y-111883060D01*
G37*
G36*
X97234372Y-113094739D02*
G01*
X97307847Y-113137160D01*
X97367840Y-113197153D01*
X97410261Y-113270628D01*
X97432220Y-113352579D01*
X97432220Y-113437421D01*
X97410261Y-113519372D01*
X97367840Y-113592847D01*
X97307847Y-113652840D01*
X97234372Y-113695261D01*
X97152421Y-113717220D01*
X97067579Y-113717220D01*
X96985628Y-113695261D01*
X96912153Y-113652840D01*
X96852160Y-113592847D01*
X96809739Y-113519372D01*
X96787780Y-113437421D01*
X96787780Y-113352579D01*
X96809739Y-113270628D01*
X96852160Y-113197153D01*
X96912153Y-113137160D01*
X96985628Y-113094739D01*
X97067579Y-113072780D01*
X97152421Y-113072780D01*
X97234372Y-113094739D01*
G37*
G36*
X103014372Y-113094739D02*
G01*
X103087847Y-113137160D01*
X103147840Y-113197153D01*
X103190261Y-113270628D01*
X103212220Y-113352579D01*
X103212220Y-113437421D01*
X103190261Y-113519372D01*
X103147840Y-113592847D01*
X103087847Y-113652840D01*
X103014372Y-113695261D01*
X102932421Y-113717220D01*
X102847579Y-113717220D01*
X102765628Y-113695261D01*
X102692153Y-113652840D01*
X102632160Y-113592847D01*
X102589739Y-113519372D01*
X102567780Y-113437421D01*
X102567780Y-113352579D01*
X102589739Y-113270628D01*
X102632160Y-113197153D01*
X102692153Y-113137160D01*
X102765628Y-113094739D01*
X102847579Y-113072780D01*
X102932421Y-113072780D01*
X103014372Y-113094739D01*
G37*
G36*
X85892721Y-101674966D02*
G01*
X85898549Y-101677815D01*
X85901054Y-101678212D01*
X85941112Y-101698622D01*
X85999188Y-101727014D01*
X86082986Y-101810812D01*
X86111396Y-101868926D01*
X86131787Y-101908946D01*
X86132183Y-101911447D01*
X86135034Y-101917279D01*
X86150000Y-102020000D01*
X86150000Y-103100000D01*
X86135034Y-103202721D01*
X86132183Y-103208552D01*
X86131787Y-103211054D01*
X86111400Y-103251063D01*
X86082986Y-103309188D01*
X85999188Y-103392986D01*
X85941048Y-103421408D01*
X85901053Y-103441787D01*
X85898552Y-103442182D01*
X85892721Y-103445034D01*
X85790000Y-103460000D01*
X84710000Y-103460000D01*
X84607279Y-103445034D01*
X84601448Y-103442183D01*
X84598945Y-103441787D01*
X84558911Y-103421388D01*
X84500812Y-103392986D01*
X84417014Y-103309188D01*
X84388615Y-103251097D01*
X84368212Y-103211053D01*
X84367815Y-103208549D01*
X84364966Y-103202721D01*
X84350000Y-103100000D01*
X84350000Y-102020000D01*
X84364966Y-101917279D01*
X84367815Y-101911451D01*
X84368212Y-101908945D01*
X84388634Y-101868863D01*
X84417014Y-101810812D01*
X84500812Y-101727014D01*
X84558878Y-101698627D01*
X84598946Y-101678212D01*
X84601450Y-101677815D01*
X84607279Y-101674966D01*
X84710000Y-101660000D01*
X85790000Y-101660000D01*
X85892721Y-101674966D01*
G37*
G36*
X115642721Y-99774966D02*
G01*
X115648549Y-99777815D01*
X115651054Y-99778212D01*
X115691112Y-99798622D01*
X115749188Y-99827014D01*
X115832986Y-99910812D01*
X115861396Y-99968926D01*
X115881787Y-100008946D01*
X115882183Y-100011447D01*
X115885034Y-100017279D01*
X115900000Y-100120000D01*
X115900000Y-101200000D01*
X115885034Y-101302721D01*
X115882183Y-101308552D01*
X115881787Y-101311054D01*
X115861400Y-101351063D01*
X115832986Y-101409188D01*
X115749188Y-101492986D01*
X115691048Y-101521408D01*
X115651053Y-101541787D01*
X115648552Y-101542182D01*
X115642721Y-101545034D01*
X115540000Y-101560000D01*
X114460000Y-101560000D01*
X114357279Y-101545034D01*
X114351448Y-101542183D01*
X114348945Y-101541787D01*
X114308911Y-101521388D01*
X114250812Y-101492986D01*
X114167014Y-101409188D01*
X114138615Y-101351097D01*
X114118212Y-101311053D01*
X114117815Y-101308549D01*
X114114966Y-101302721D01*
X114100000Y-101200000D01*
X114100000Y-100120000D01*
X114114966Y-100017279D01*
X114117815Y-100011451D01*
X114118212Y-100008945D01*
X114138634Y-99968863D01*
X114167014Y-99910812D01*
X114250812Y-99827014D01*
X114308878Y-99798627D01*
X114348946Y-99778212D01*
X114351450Y-99777815D01*
X114357279Y-99774966D01*
X114460000Y-99760000D01*
X115540000Y-99760000D01*
X115642721Y-99774966D01*
G37*
G36*
X85892721Y-99134966D02*
G01*
X85898549Y-99137815D01*
X85901054Y-99138212D01*
X85941112Y-99158622D01*
X85999188Y-99187014D01*
X86082986Y-99270812D01*
X86111396Y-99328926D01*
X86131787Y-99368946D01*
X86132183Y-99371447D01*
X86135034Y-99377279D01*
X86150000Y-99480000D01*
X86150000Y-100560000D01*
X86135034Y-100662721D01*
X86132183Y-100668552D01*
X86131787Y-100671054D01*
X86111400Y-100711063D01*
X86082986Y-100769188D01*
X85999188Y-100852986D01*
X85941048Y-100881408D01*
X85901053Y-100901787D01*
X85898552Y-100902182D01*
X85892721Y-100905034D01*
X85790000Y-100920000D01*
X84710000Y-100920000D01*
X84607279Y-100905034D01*
X84601448Y-100902183D01*
X84598945Y-100901787D01*
X84558911Y-100881388D01*
X84500812Y-100852986D01*
X84417014Y-100769188D01*
X84388615Y-100711097D01*
X84368212Y-100671053D01*
X84367815Y-100668549D01*
X84364966Y-100662721D01*
X84350000Y-100560000D01*
X84350000Y-99480000D01*
X84364966Y-99377279D01*
X84367815Y-99371451D01*
X84368212Y-99368945D01*
X84388634Y-99328863D01*
X84417014Y-99270812D01*
X84500812Y-99187014D01*
X84558878Y-99158627D01*
X84598946Y-99138212D01*
X84601450Y-99137815D01*
X84607279Y-99134966D01*
X84710000Y-99120000D01*
X85790000Y-99120000D01*
X85892721Y-99134966D01*
G37*
G36*
X115642721Y-97234966D02*
G01*
X115648549Y-97237815D01*
X115651054Y-97238212D01*
X115691112Y-97258622D01*
X115749188Y-97287014D01*
X115832986Y-97370812D01*
X115861396Y-97428926D01*
X115881787Y-97468946D01*
X115882183Y-97471447D01*
X115885034Y-97477279D01*
X115900000Y-97580000D01*
X115900000Y-98660000D01*
X115885034Y-98762721D01*
X115882183Y-98768552D01*
X115881787Y-98771054D01*
X115861400Y-98811063D01*
X115832986Y-98869188D01*
X115749188Y-98952986D01*
X115691048Y-98981408D01*
X115651053Y-99001787D01*
X115648552Y-99002182D01*
X115642721Y-99005034D01*
X115540000Y-99020000D01*
X114460000Y-99020000D01*
X114357279Y-99005034D01*
X114351448Y-99002183D01*
X114348945Y-99001787D01*
X114308911Y-98981388D01*
X114250812Y-98952986D01*
X114167014Y-98869188D01*
X114138615Y-98811097D01*
X114118212Y-98771053D01*
X114117815Y-98768549D01*
X114114966Y-98762721D01*
X114100000Y-98660000D01*
X114100000Y-97580000D01*
X114114966Y-97477279D01*
X114117815Y-97471451D01*
X114118212Y-97468945D01*
X114138634Y-97428863D01*
X114167014Y-97370812D01*
X114250812Y-97287014D01*
X114308878Y-97258627D01*
X114348946Y-97238212D01*
X114351450Y-97237815D01*
X114357279Y-97234966D01*
X114460000Y-97220000D01*
X115540000Y-97220000D01*
X115642721Y-97234966D01*
G37*
G36*
X85892721Y-96594966D02*
G01*
X85898549Y-96597815D01*
X85901054Y-96598212D01*
X85941112Y-96618622D01*
X85999188Y-96647014D01*
X86082986Y-96730812D01*
X86111396Y-96788926D01*
X86131787Y-96828946D01*
X86132183Y-96831447D01*
X86135034Y-96837279D01*
X86150000Y-96940000D01*
X86150000Y-98020000D01*
X86135034Y-98122721D01*
X86132183Y-98128552D01*
X86131787Y-98131054D01*
X86111400Y-98171063D01*
X86082986Y-98229188D01*
X85999188Y-98312986D01*
X85941048Y-98341408D01*
X85901053Y-98361787D01*
X85898552Y-98362182D01*
X85892721Y-98365034D01*
X85790000Y-98380000D01*
X84710000Y-98380000D01*
X84607279Y-98365034D01*
X84601448Y-98362183D01*
X84598945Y-98361787D01*
X84558911Y-98341388D01*
X84500812Y-98312986D01*
X84417014Y-98229188D01*
X84388615Y-98171097D01*
X84368212Y-98131053D01*
X84367815Y-98128549D01*
X84364966Y-98122721D01*
X84350000Y-98020000D01*
X84350000Y-96940000D01*
X84364966Y-96837279D01*
X84367815Y-96831451D01*
X84368212Y-96828945D01*
X84388634Y-96788863D01*
X84417014Y-96730812D01*
X84500812Y-96647014D01*
X84558878Y-96618627D01*
X84598946Y-96598212D01*
X84601450Y-96597815D01*
X84607279Y-96594966D01*
X84710000Y-96580000D01*
X85790000Y-96580000D01*
X85892721Y-96594966D01*
G37*
G36*
X115642721Y-94694966D02*
G01*
X115648549Y-94697815D01*
X115651054Y-94698212D01*
X115691112Y-94718622D01*
X115749188Y-94747014D01*
X115832986Y-94830812D01*
X115861396Y-94888926D01*
X115881787Y-94928946D01*
X115882183Y-94931447D01*
X115885034Y-94937279D01*
X115900000Y-95040000D01*
X115900000Y-96120000D01*
X115885034Y-96222721D01*
X115882183Y-96228552D01*
X115881787Y-96231054D01*
X115861400Y-96271063D01*
X115832986Y-96329188D01*
X115749188Y-96412986D01*
X115691048Y-96441408D01*
X115651053Y-96461787D01*
X115648552Y-96462182D01*
X115642721Y-96465034D01*
X115540000Y-96480000D01*
X114460000Y-96480000D01*
X114357279Y-96465034D01*
X114351448Y-96462183D01*
X114348945Y-96461787D01*
X114308911Y-96441388D01*
X114250812Y-96412986D01*
X114167014Y-96329188D01*
X114138615Y-96271097D01*
X114118212Y-96231053D01*
X114117815Y-96228549D01*
X114114966Y-96222721D01*
X114100000Y-96120000D01*
X114100000Y-95040000D01*
X114114966Y-94937279D01*
X114117815Y-94931451D01*
X114118212Y-94928945D01*
X114138634Y-94888863D01*
X114167014Y-94830812D01*
X114250812Y-94747014D01*
X114308878Y-94718627D01*
X114348946Y-94698212D01*
X114351450Y-94697815D01*
X114357279Y-94694966D01*
X114460000Y-94680000D01*
X115540000Y-94680000D01*
X115642721Y-94694966D01*
G37*
G36*
X85892721Y-94054966D02*
G01*
X85898549Y-94057815D01*
X85901054Y-94058212D01*
X85941112Y-94078622D01*
X85999188Y-94107014D01*
X86082986Y-94190812D01*
X86111396Y-94248926D01*
X86131787Y-94288946D01*
X86132183Y-94291447D01*
X86135034Y-94297279D01*
X86150000Y-94400000D01*
X86150000Y-95480000D01*
X86135034Y-95582721D01*
X86132183Y-95588552D01*
X86131787Y-95591054D01*
X86111400Y-95631063D01*
X86082986Y-95689188D01*
X85999188Y-95772986D01*
X85941048Y-95801408D01*
X85901053Y-95821787D01*
X85898552Y-95822182D01*
X85892721Y-95825034D01*
X85790000Y-95840000D01*
X84710000Y-95840000D01*
X84607279Y-95825034D01*
X84601448Y-95822183D01*
X84598945Y-95821787D01*
X84558911Y-95801388D01*
X84500812Y-95772986D01*
X84417014Y-95689188D01*
X84388615Y-95631097D01*
X84368212Y-95591053D01*
X84367815Y-95588549D01*
X84364966Y-95582721D01*
X84350000Y-95480000D01*
X84350000Y-94400000D01*
X84364966Y-94297279D01*
X84367815Y-94291451D01*
X84368212Y-94288945D01*
X84388634Y-94248863D01*
X84417014Y-94190812D01*
X84500812Y-94107014D01*
X84558878Y-94078627D01*
X84598946Y-94058212D01*
X84601450Y-94057815D01*
X84607279Y-94054966D01*
X84710000Y-94040000D01*
X85790000Y-94040000D01*
X85892721Y-94054966D01*
G37*
G36*
X115642721Y-92154966D02*
G01*
X115648549Y-92157815D01*
X115651054Y-92158212D01*
X115691112Y-92178622D01*
X115749188Y-92207014D01*
X115832986Y-92290812D01*
X115861396Y-92348926D01*
X115881787Y-92388946D01*
X115882183Y-92391447D01*
X115885034Y-92397279D01*
X115900000Y-92500000D01*
X115900000Y-93580000D01*
X115885034Y-93682721D01*
X115882183Y-93688552D01*
X115881787Y-93691054D01*
X115861400Y-93731063D01*
X115832986Y-93789188D01*
X115749188Y-93872986D01*
X115691048Y-93901408D01*
X115651053Y-93921787D01*
X115648552Y-93922182D01*
X115642721Y-93925034D01*
X115540000Y-93940000D01*
X114460000Y-93940000D01*
X114357279Y-93925034D01*
X114351448Y-93922183D01*
X114348945Y-93921787D01*
X114308911Y-93901388D01*
X114250812Y-93872986D01*
X114167014Y-93789188D01*
X114138615Y-93731097D01*
X114118212Y-93691053D01*
X114117815Y-93688549D01*
X114114966Y-93682721D01*
X114100000Y-93580000D01*
X114100000Y-92500000D01*
X114114966Y-92397279D01*
X114117815Y-92391451D01*
X114118212Y-92388945D01*
X114138634Y-92348863D01*
X114167014Y-92290812D01*
X114250812Y-92207014D01*
X114308878Y-92178627D01*
X114348946Y-92158212D01*
X114351450Y-92157815D01*
X114357279Y-92154966D01*
X114460000Y-92140000D01*
X115540000Y-92140000D01*
X115642721Y-92154966D01*
G37*
G36*
X67161262Y-62336786D02*
G01*
X67530689Y-62401926D01*
X67893034Y-62499016D01*
X68245538Y-62627317D01*
X68585518Y-62785852D01*
X68910387Y-62973416D01*
X69217673Y-63188580D01*
X69505037Y-63429706D01*
X69770292Y-63694961D01*
X70011418Y-63982325D01*
X70226582Y-64289611D01*
X70414146Y-64614480D01*
X70572681Y-64954460D01*
X70700982Y-65306964D01*
X70798072Y-65669309D01*
X70863212Y-66038736D01*
X70895906Y-66412436D01*
X70895906Y-66787562D01*
X70863212Y-67161262D01*
X70798072Y-67530689D01*
X70700982Y-67893034D01*
X70572681Y-68245538D01*
X70414146Y-68585518D01*
X70226582Y-68910387D01*
X70011418Y-69217673D01*
X69770292Y-69505037D01*
X69505037Y-69770292D01*
X69217673Y-70011418D01*
X68910387Y-70226582D01*
X68585518Y-70414146D01*
X68245538Y-70572681D01*
X67893034Y-70700982D01*
X67530689Y-70798072D01*
X67161262Y-70863212D01*
X66787562Y-70895906D01*
X66412436Y-70895906D01*
X66038736Y-70863212D01*
X65669309Y-70798072D01*
X65306964Y-70700982D01*
X64954460Y-70572681D01*
X64614480Y-70414146D01*
X64289611Y-70226582D01*
X63982325Y-70011418D01*
X63694961Y-69770292D01*
X63429706Y-69505037D01*
X63188580Y-69217673D01*
X62973416Y-68910387D01*
X62785852Y-68585518D01*
X62627317Y-68245538D01*
X62499016Y-67893034D01*
X62401926Y-67530689D01*
X62336786Y-67161262D01*
X62304092Y-66787562D01*
X62304092Y-66412436D01*
X62336786Y-66038736D01*
X62401926Y-65669309D01*
X62499016Y-65306964D01*
X62627317Y-64954460D01*
X62785852Y-64614480D01*
X62973416Y-64289611D01*
X63188580Y-63982325D01*
X63429706Y-63694961D01*
X63694961Y-63429706D01*
X63982325Y-63188580D01*
X64289611Y-62973416D01*
X64614480Y-62785852D01*
X64954460Y-62627317D01*
X65306964Y-62499016D01*
X65669309Y-62401926D01*
X66038736Y-62336786D01*
X66412436Y-62304092D01*
X66787562Y-62304092D01*
X67161262Y-62336786D01*
G37*
G36*
X133961263Y-62336786D02*
G01*
X134330690Y-62401926D01*
X134693035Y-62499016D01*
X135045539Y-62627317D01*
X135385519Y-62785852D01*
X135710388Y-62973416D01*
X136017674Y-63188580D01*
X136305038Y-63429706D01*
X136570293Y-63694961D01*
X136811419Y-63982325D01*
X137026583Y-64289611D01*
X137214147Y-64614480D01*
X137372682Y-64954460D01*
X137500983Y-65306964D01*
X137598073Y-65669309D01*
X137663213Y-66038736D01*
X137695907Y-66412436D01*
X137695907Y-66787562D01*
X137663213Y-67161262D01*
X137598073Y-67530689D01*
X137500983Y-67893034D01*
X137372682Y-68245538D01*
X137214147Y-68585518D01*
X137026583Y-68910387D01*
X136811419Y-69217673D01*
X136570293Y-69505037D01*
X136305038Y-69770292D01*
X136017674Y-70011418D01*
X135710388Y-70226582D01*
X135385519Y-70414146D01*
X135045539Y-70572681D01*
X134693035Y-70700982D01*
X134330690Y-70798072D01*
X133961263Y-70863212D01*
X133587563Y-70895906D01*
X133212437Y-70895906D01*
X132838737Y-70863212D01*
X132469310Y-70798072D01*
X132106965Y-70700982D01*
X131754461Y-70572681D01*
X131414481Y-70414146D01*
X131089612Y-70226582D01*
X130782326Y-70011418D01*
X130494962Y-69770292D01*
X130229707Y-69505037D01*
X129988581Y-69217673D01*
X129773417Y-68910387D01*
X129585853Y-68585518D01*
X129427318Y-68245538D01*
X129299017Y-67893034D01*
X129201927Y-67530689D01*
X129136787Y-67161262D01*
X129104093Y-66787562D01*
X129104093Y-66412436D01*
X129136787Y-66038736D01*
X129201927Y-65669309D01*
X129299017Y-65306964D01*
X129427318Y-64954460D01*
X129585853Y-64614480D01*
X129773417Y-64289611D01*
X129988581Y-63982325D01*
X130229707Y-63694961D01*
X130494962Y-63429706D01*
X130782326Y-63188580D01*
X131089612Y-62973416D01*
X131414481Y-62785852D01*
X131754461Y-62627317D01*
X132106965Y-62499016D01*
X132469310Y-62401926D01*
X132838737Y-62336786D01*
X133212437Y-62304092D01*
X133587563Y-62304092D01*
X133961263Y-62336786D01*
G37*
%LPD*%
M02*
