%TF.GenerationSoftware,KiCad,Pcbnew,10.0.6-10.0.6~ubuntu26.04.1*%
%TF.CreationDate,2026-09-14T03:12:21+07:00*%
%TF.ProjectId,FC_ESP32,46435f45-5350-4333-922e-6b696361645f,rev?*%
%TF.SameCoordinates,Original*%
%TF.FileFunction,Paste,Top*%
%TF.FilePolarity,Positive*%
%FSLAX46Y46*%
G04 Gerber Fmt 4.6, Leading zero omitted, Abs format (unit mm)*
G04 Created by KiCad (PCBNEW 10.0.6-10.0.6~ubuntu26.04.1) date 2026-09-14 03:12:21*
%MOMM*%
%LPD*%
G01*
G04 APERTURE LIST*
G04 Aperture macros list*
%AMRoundRect*
0 Rectangle with rounded corners*
0 $1 Rounding radius*
0 $2 $3 $4 $5 $6 $7 $8 $9 X,Y pos of 4 corners*
0 Add a 4 corners polygon primitive as box body*
4,1,4,$2,$3,$4,$5,$6,$7,$8,$9,$2,$3,0*
0 Add four circle primitives for the rounded corners*
1,1,$1+$1,$2,$3*
1,1,$1+$1,$4,$5*
1,1,$1+$1,$6,$7*
1,1,$1+$1,$8,$9*
0 Add four rect primitives between the rounded corners*
20,1,$1+$1,$2,$3,$4,$5,0*
20,1,$1+$1,$4,$5,$6,$7,0*
20,1,$1+$1,$6,$7,$8,$9,0*
20,1,$1+$1,$8,$9,$2,$3,0*%
G04 Aperture macros list end*
%ADD10C,0.010000*%
%ADD11RoundRect,0.250000X-0.250000X-0.475000X0.250000X-0.475000X0.250000X0.475000X-0.250000X0.475000X0*%
%ADD12RoundRect,0.135000X0.185000X-0.135000X0.185000X0.135000X-0.185000X0.135000X-0.185000X-0.135000X0*%
%ADD13RoundRect,0.225000X-0.225000X-0.250000X0.225000X-0.250000X0.225000X0.250000X-0.225000X0.250000X0*%
%ADD14RoundRect,0.135000X-0.135000X-0.185000X0.135000X-0.185000X0.135000X0.185000X-0.135000X0.185000X0*%
%ADD15R,1.000000X1.400000*%
%ADD16RoundRect,0.150000X0.512500X0.150000X-0.512500X0.150000X-0.512500X-0.150000X0.512500X-0.150000X0*%
%ADD17RoundRect,0.081250X-0.418750X-0.243750X0.418750X-0.243750X0.418750X0.243750X-0.418750X0.243750X0*%
%ADD18RoundRect,0.225000X0.250000X-0.225000X0.250000X0.225000X-0.250000X0.225000X-0.250000X-0.225000X0*%
%ADD19RoundRect,0.027500X-0.292500X-0.082500X0.292500X-0.082500X0.292500X0.082500X-0.292500X0.082500X0*%
%ADD20RoundRect,0.027500X-0.082500X-0.292500X0.082500X-0.292500X0.082500X0.292500X-0.082500X0.292500X0*%
%ADD21RoundRect,0.140000X-0.140000X-0.170000X0.140000X-0.170000X0.140000X0.170000X-0.140000X0.170000X0*%
%ADD22RoundRect,0.250000X-0.325000X-0.650000X0.325000X-0.650000X0.325000X0.650000X-0.325000X0.650000X0*%
%ADD23R,1.400000X1.000000*%
%ADD24RoundRect,0.150000X-0.512500X-0.150000X0.512500X-0.150000X0.512500X0.150000X-0.512500X0.150000X0*%
%ADD25RoundRect,0.025000X-0.100000X-0.145000X0.100000X-0.145000X0.100000X0.145000X-0.100000X0.145000X0*%
%ADD26RoundRect,0.106000X-0.644000X-0.424000X0.644000X-0.424000X0.644000X0.424000X-0.644000X0.424000X0*%
%ADD27RoundRect,0.060000X-0.240000X-0.060000X0.240000X-0.060000X0.240000X0.060000X-0.240000X0.060000X0*%
%ADD28R,1.500000X2.120000*%
%ADD29RoundRect,0.150000X-0.150000X-0.425000X0.150000X-0.425000X0.150000X0.425000X-0.150000X0.425000X0*%
%ADD30RoundRect,0.075000X-0.075000X-0.500000X0.075000X-0.500000X0.075000X0.500000X-0.075000X0.500000X0*%
%ADD31O,1.000000X2.100000*%
%ADD32O,1.000000X1.800000*%
%ADD33RoundRect,0.077500X-0.577500X-0.232500X0.577500X-0.232500X0.577500X0.232500X-0.577500X0.232500X0*%
%ADD34R,2.000000X0.900000*%
%ADD35R,0.900000X2.000000*%
%ADD36R,2.120000X1.500000*%
%ADD37RoundRect,0.150000X-0.150000X-0.625000X0.150000X-0.625000X0.150000X0.625000X-0.150000X0.625000X0*%
%ADD38RoundRect,0.250000X-0.350000X-0.650000X0.350000X-0.650000X0.350000X0.650000X-0.350000X0.650000X0*%
G04 APERTURE END LIST*
D10*
%TO.C,U2*%
X99515000Y-106460000D02*
X100485000Y-106460000D01*
X100485000Y-107540000D01*
X99515000Y-107540000D01*
X99515000Y-106460000D01*
G36*
X100485000Y-107540000D02*
G01*
X99515000Y-107540000D01*
X99515000Y-106460000D01*
X100485000Y-106460000D01*
X100485000Y-107540000D01*
G37*
%TO.C,U1*%
X96960000Y-90700000D02*
X98540000Y-90700000D01*
X98540000Y-92280000D01*
X96960000Y-92280000D01*
X96960000Y-90700000D01*
G36*
X98540000Y-92280000D02*
G01*
X96960000Y-92280000D01*
X96960000Y-90700000D01*
X98540000Y-90700000D01*
X98540000Y-92280000D01*
G37*
X96960000Y-93200000D02*
X98540000Y-93200000D01*
X98540000Y-94780000D01*
X96960000Y-94780000D01*
X96960000Y-93200000D01*
G36*
X98540000Y-94780000D02*
G01*
X96960000Y-94780000D01*
X96960000Y-93200000D01*
X98540000Y-93200000D01*
X98540000Y-94780000D01*
G37*
X99460000Y-90700000D02*
X101040000Y-90700000D01*
X101040000Y-92280000D01*
X99460000Y-92280000D01*
X99460000Y-90700000D01*
G36*
X101040000Y-92280000D02*
G01*
X99460000Y-92280000D01*
X99460000Y-90700000D01*
X101040000Y-90700000D01*
X101040000Y-92280000D01*
G37*
X99460000Y-93200000D02*
X101040000Y-93200000D01*
X101040000Y-94780000D01*
X99460000Y-94780000D01*
X99460000Y-93200000D01*
G36*
X101040000Y-94780000D02*
G01*
X99460000Y-94780000D01*
X99460000Y-93200000D01*
X101040000Y-93200000D01*
X101040000Y-94780000D01*
G37*
%TD*%
D11*
%TO.C,C17*%
X85050000Y-93250000D03*
X86950000Y-93250000D03*
%TD*%
D12*
%TO.C,R15*%
X74700000Y-77310000D03*
X74700000Y-76290000D03*
%TD*%
D13*
%TO.C,C11*%
X105975000Y-114250000D03*
X107525000Y-114250000D03*
%TD*%
D14*
%TO.C,R17*%
X122540000Y-76550000D03*
X123560000Y-76550000D03*
%TD*%
%TO.C,R18*%
X122540000Y-75550000D03*
X123560000Y-75550000D03*
%TD*%
D15*
%TO.C,Q2*%
X124600000Y-76300000D03*
X126500000Y-76300000D03*
X125550000Y-74100000D03*
%TD*%
D14*
%TO.C,R7*%
X93490000Y-115750000D03*
X94510000Y-115750000D03*
%TD*%
D16*
%TO.C,U6*%
X87137500Y-91450000D03*
X87137500Y-90500000D03*
X87137500Y-89550000D03*
X84862500Y-89550000D03*
X84862500Y-90500000D03*
X84862500Y-91450000D03*
%TD*%
D17*
%TO.C,Q6*%
X112300000Y-100800000D03*
X112300000Y-102700000D03*
X114700000Y-101750000D03*
%TD*%
D14*
%TO.C,R2*%
X110240000Y-102000000D03*
X111260000Y-102000000D03*
%TD*%
D13*
%TO.C,C24*%
X75475000Y-127250000D03*
X77025000Y-127250000D03*
%TD*%
D18*
%TO.C,C21*%
X74750000Y-72025000D03*
X74750000Y-70475000D03*
%TD*%
D19*
%TO.C,U2*%
X98455000Y-106000000D03*
X98455000Y-106400000D03*
X98455000Y-106800000D03*
X98455000Y-107200000D03*
X98455000Y-107600000D03*
X98455000Y-108000000D03*
D20*
X99000000Y-108545000D03*
X99400000Y-108545000D03*
X99800000Y-108545000D03*
X100200000Y-108545000D03*
X100600000Y-108545000D03*
X101000000Y-108545000D03*
D19*
X101545000Y-108000000D03*
X101545000Y-107600000D03*
X101545000Y-107200000D03*
X101545000Y-106800000D03*
X101545000Y-106400000D03*
X101545000Y-106000000D03*
D20*
X101000000Y-105455000D03*
X100600000Y-105455000D03*
X100200000Y-105455000D03*
X99800000Y-105455000D03*
X99400000Y-105455000D03*
X99000000Y-105455000D03*
%TD*%
D21*
%TO.C,C9*%
X89020000Y-96000000D03*
X89980000Y-96000000D03*
%TD*%
D14*
%TO.C,R4*%
X87890000Y-95400000D03*
X88910000Y-95400000D03*
%TD*%
%TO.C,R23*%
X115240000Y-92000000D03*
X116260000Y-92000000D03*
%TD*%
D12*
%TO.C,R16*%
X75700000Y-77560000D03*
X75700000Y-76540000D03*
%TD*%
D22*
%TO.C,C19*%
X109725000Y-115700000D03*
X112675000Y-115700000D03*
%TD*%
D21*
%TO.C,C18*%
X107270000Y-106800000D03*
X108230000Y-106800000D03*
%TD*%
D23*
%TO.C,Q1*%
X76300000Y-75400000D03*
X76300000Y-73500000D03*
X74100000Y-74450000D03*
%TD*%
D21*
%TO.C,C2*%
X88220000Y-85400000D03*
X89180000Y-85400000D03*
%TD*%
D14*
%TO.C,R11*%
X109990000Y-92750000D03*
X111010000Y-92750000D03*
%TD*%
D24*
%TO.C,U4*%
X103362500Y-108300000D03*
X103362500Y-109250000D03*
X103362500Y-110200000D03*
X105637500Y-110200000D03*
X105637500Y-109250000D03*
X105637500Y-108300000D03*
%TD*%
D11*
%TO.C,C12*%
X111050000Y-94000000D03*
X112950000Y-94000000D03*
%TD*%
D21*
%TO.C,C8*%
X96720000Y-104500000D03*
X97680000Y-104500000D03*
%TD*%
D14*
%TO.C,R3*%
X87890000Y-93100000D03*
X88910000Y-93100000D03*
%TD*%
D11*
%TO.C,C1*%
X87550000Y-87200000D03*
X89450000Y-87200000D03*
%TD*%
%TO.C,C13*%
X110550000Y-87000000D03*
X112450000Y-87000000D03*
%TD*%
D21*
%TO.C,C6*%
X96720000Y-106000000D03*
X97680000Y-106000000D03*
%TD*%
D25*
%TO.C,U5*%
X111750000Y-88970000D03*
X111750000Y-92030000D03*
D26*
X112000000Y-89870000D03*
X112000000Y-91130000D03*
D25*
X112250000Y-88970000D03*
X112250000Y-92030000D03*
D27*
X110600000Y-89500000D03*
X110600000Y-90000000D03*
X110600000Y-90500000D03*
X110600000Y-91000000D03*
X110600000Y-91500000D03*
X113400000Y-91500000D03*
X113400000Y-91000000D03*
X113400000Y-90500000D03*
X113400000Y-90000000D03*
X113400000Y-89500000D03*
%TD*%
D28*
%TO.C,D6*%
X88500000Y-102365000D03*
X88500000Y-98135000D03*
%TD*%
D14*
%TO.C,R1*%
X88290000Y-90500000D03*
X89310000Y-90500000D03*
%TD*%
D15*
%TO.C,Q4*%
X72750000Y-125650000D03*
X74650000Y-125650000D03*
X73700000Y-123450000D03*
%TD*%
D21*
%TO.C,C4*%
X87670000Y-96450000D03*
X88630000Y-96450000D03*
%TD*%
D14*
%TO.C,R12*%
X88990000Y-92500000D03*
X90010000Y-92500000D03*
%TD*%
D23*
%TO.C,Q3*%
X125650000Y-127250000D03*
X125650000Y-125350000D03*
X123450000Y-126300000D03*
%TD*%
D14*
%TO.C,R13*%
X88990000Y-89750000D03*
X90010000Y-89750000D03*
%TD*%
D28*
%TO.C,D5*%
X92500000Y-114115000D03*
X92500000Y-109885000D03*
%TD*%
D29*
%TO.C,J1*%
X96800000Y-112320000D03*
X97600000Y-112320000D03*
D30*
X98750000Y-112320000D03*
X99750000Y-112320000D03*
X100250000Y-112320000D03*
X101250000Y-112320000D03*
D29*
X102400000Y-112320000D03*
X103200000Y-112320000D03*
X103200000Y-112320000D03*
X102400000Y-112320000D03*
D30*
X101750000Y-112320000D03*
X100750000Y-112320000D03*
X99250000Y-112320000D03*
X98250000Y-112320000D03*
D29*
X97600000Y-112320000D03*
X96800000Y-112320000D03*
D31*
X95680000Y-112895000D03*
D32*
X95680000Y-117075000D03*
D31*
X104320000Y-112895000D03*
D32*
X104320000Y-117075000D03*
%TD*%
D18*
%TO.C,C23*%
X120000000Y-124275000D03*
X120000000Y-122725000D03*
%TD*%
D12*
%TO.C,R20*%
X124800000Y-123710000D03*
X124800000Y-122690000D03*
%TD*%
D14*
%TO.C,R24*%
X115240000Y-94000000D03*
X116260000Y-94000000D03*
%TD*%
D33*
%TO.C,U3*%
X84250000Y-104805000D03*
X84250000Y-106075000D03*
X84250000Y-107345000D03*
X84250000Y-108615000D03*
X84250000Y-109885000D03*
X84250000Y-111155000D03*
X84250000Y-112425000D03*
X84250000Y-113695000D03*
X89750000Y-113695000D03*
X89750000Y-112425000D03*
X89750000Y-111155000D03*
X89750000Y-109885000D03*
X89750000Y-108615000D03*
X89750000Y-107345000D03*
X89750000Y-106075000D03*
X89750000Y-104805000D03*
%TD*%
D12*
%TO.C,R19*%
X125800000Y-123710000D03*
X125800000Y-122690000D03*
%TD*%
D34*
%TO.C,U1*%
X91500000Y-85240000D03*
X91500000Y-86510000D03*
X91500000Y-87780000D03*
X91500000Y-89050000D03*
X91500000Y-90320000D03*
X91500000Y-91590000D03*
X91500000Y-92860000D03*
X91500000Y-94130000D03*
X91500000Y-95400000D03*
X91500000Y-96670000D03*
X91500000Y-97940000D03*
X91500000Y-99210000D03*
X91500000Y-100480000D03*
X91500000Y-101750000D03*
D35*
X94285000Y-102750000D03*
X95555000Y-102750000D03*
X96825000Y-102750000D03*
X98095000Y-102750000D03*
X99365000Y-102750000D03*
X100635000Y-102750000D03*
X101905000Y-102750000D03*
X103175000Y-102750000D03*
X104445000Y-102750000D03*
X105715000Y-102750000D03*
D34*
X108500000Y-101750000D03*
X108500000Y-100480000D03*
X108500000Y-99210000D03*
X108500000Y-97940000D03*
X108500000Y-96670000D03*
X108500000Y-95400000D03*
X108500000Y-94130000D03*
X108500000Y-92860000D03*
X108500000Y-91590000D03*
X108500000Y-90320000D03*
X108500000Y-89050000D03*
X108500000Y-87780000D03*
X108500000Y-86510000D03*
X108500000Y-85240000D03*
%TD*%
D21*
%TO.C,C15*%
X110020000Y-95250000D03*
X110980000Y-95250000D03*
%TD*%
D36*
%TO.C,D4*%
X76385000Y-122500000D03*
X80615000Y-122500000D03*
%TD*%
D21*
%TO.C,C7*%
X96720000Y-107400000D03*
X97680000Y-107400000D03*
%TD*%
D17*
%TO.C,Q5*%
X112300000Y-97050000D03*
X112300000Y-98950000D03*
X114700000Y-98000000D03*
%TD*%
D13*
%TO.C,C3*%
X88025000Y-94250000D03*
X89575000Y-94250000D03*
%TD*%
D14*
%TO.C,R21*%
X73440000Y-122200000D03*
X74460000Y-122200000D03*
%TD*%
D12*
%TO.C,R9*%
X110250000Y-98510000D03*
X110250000Y-97490000D03*
%TD*%
D36*
%TO.C,D2*%
X120635000Y-78750000D03*
X124865000Y-78750000D03*
%TD*%
D28*
%TO.C,D1*%
X78750000Y-79365000D03*
X78750000Y-75135000D03*
%TD*%
D13*
%TO.C,C22*%
X122975000Y-72750000D03*
X124525000Y-72750000D03*
%TD*%
D14*
%TO.C,R5*%
X102790000Y-105700000D03*
X103810000Y-105700000D03*
%TD*%
%TO.C,R6*%
X103990000Y-104550000D03*
X105010000Y-104550000D03*
%TD*%
%TO.C,R22*%
X75690000Y-124700000D03*
X76710000Y-124700000D03*
%TD*%
%TO.C,R8*%
X105490000Y-113000000D03*
X106510000Y-113000000D03*
%TD*%
D21*
%TO.C,C5*%
X102320000Y-107200000D03*
X103280000Y-107200000D03*
%TD*%
D37*
%TO.C,J2*%
X110750000Y-105050000D03*
X111750000Y-105050000D03*
X112750000Y-105050000D03*
X113750000Y-105050000D03*
D38*
X109450000Y-108925000D03*
X115050000Y-108925000D03*
%TD*%
D12*
%TO.C,R10*%
X110250000Y-101010000D03*
X110250000Y-99990000D03*
%TD*%
D28*
%TO.C,D3*%
X122500000Y-123615000D03*
X122500000Y-119385000D03*
%TD*%
M02*
