%TF.GenerationSoftware,KiCad,Pcbnew,10.0.6-10.0.6~ubuntu26.04.1*%
%TF.CreationDate,2026-09-14T03:12:21+07:00*%
%TF.ProjectId,FC_ESP32,46435f45-5350-4333-922e-6b696361645f,rev?*%
%TF.SameCoordinates,Original*%
%TF.FileFunction,AssemblyDrawing,Top*%
%FSLAX46Y46*%
G04 Gerber Fmt 4.6, Leading zero omitted, Abs format (unit mm)*
G04 Created by KiCad (PCBNEW 10.0.6-10.0.6~ubuntu26.04.1) date 2026-09-14 03:12:21*
%MOMM*%
%LPD*%
G01*
G04 APERTURE LIST*
%ADD10C,0.080000*%
%ADD11C,0.040000*%
%ADD12C,0.060000*%
%ADD13C,0.110000*%
%ADD14C,0.120000*%
%ADD15C,0.100000*%
%ADD16C,0.150000*%
%ADD17C,0.152400*%
%ADD18C,0.010000*%
%ADD19C,0.127000*%
%ADD20C,0.200000*%
G04 APERTURE END LIST*
D10*
X85678571Y-93429530D02*
X85654762Y-93453340D01*
X85654762Y-93453340D02*
X85583333Y-93477149D01*
X85583333Y-93477149D02*
X85535714Y-93477149D01*
X85535714Y-93477149D02*
X85464286Y-93453340D01*
X85464286Y-93453340D02*
X85416667Y-93405720D01*
X85416667Y-93405720D02*
X85392857Y-93358101D01*
X85392857Y-93358101D02*
X85369048Y-93262863D01*
X85369048Y-93262863D02*
X85369048Y-93191435D01*
X85369048Y-93191435D02*
X85392857Y-93096197D01*
X85392857Y-93096197D02*
X85416667Y-93048578D01*
X85416667Y-93048578D02*
X85464286Y-93000959D01*
X85464286Y-93000959D02*
X85535714Y-92977149D01*
X85535714Y-92977149D02*
X85583333Y-92977149D01*
X85583333Y-92977149D02*
X85654762Y-93000959D01*
X85654762Y-93000959D02*
X85678571Y-93024768D01*
X86154762Y-93477149D02*
X85869048Y-93477149D01*
X86011905Y-93477149D02*
X86011905Y-92977149D01*
X86011905Y-92977149D02*
X85964286Y-93048578D01*
X85964286Y-93048578D02*
X85916667Y-93096197D01*
X85916667Y-93096197D02*
X85869048Y-93120006D01*
X86321428Y-92977149D02*
X86654761Y-92977149D01*
X86654761Y-92977149D02*
X86440476Y-93477149D01*
D11*
X74818200Y-76967142D02*
X74694391Y-77053809D01*
X74818200Y-77115714D02*
X74558200Y-77115714D01*
X74558200Y-77115714D02*
X74558200Y-77016666D01*
X74558200Y-77016666D02*
X74570581Y-76991904D01*
X74570581Y-76991904D02*
X74582962Y-76979523D01*
X74582962Y-76979523D02*
X74607724Y-76967142D01*
X74607724Y-76967142D02*
X74644867Y-76967142D01*
X74644867Y-76967142D02*
X74669629Y-76979523D01*
X74669629Y-76979523D02*
X74682010Y-76991904D01*
X74682010Y-76991904D02*
X74694391Y-77016666D01*
X74694391Y-77016666D02*
X74694391Y-77115714D01*
X74818200Y-76719523D02*
X74818200Y-76868095D01*
X74818200Y-76793809D02*
X74558200Y-76793809D01*
X74558200Y-76793809D02*
X74595343Y-76818571D01*
X74595343Y-76818571D02*
X74620105Y-76843333D01*
X74620105Y-76843333D02*
X74632486Y-76868095D01*
X74558200Y-76484285D02*
X74558200Y-76608095D01*
X74558200Y-76608095D02*
X74682010Y-76620476D01*
X74682010Y-76620476D02*
X74669629Y-76608095D01*
X74669629Y-76608095D02*
X74657248Y-76583333D01*
X74657248Y-76583333D02*
X74657248Y-76521428D01*
X74657248Y-76521428D02*
X74669629Y-76496666D01*
X74669629Y-76496666D02*
X74682010Y-76484285D01*
X74682010Y-76484285D02*
X74706772Y-76471904D01*
X74706772Y-76471904D02*
X74768677Y-76471904D01*
X74768677Y-76471904D02*
X74793439Y-76484285D01*
X74793439Y-76484285D02*
X74805820Y-76496666D01*
X74805820Y-76496666D02*
X74818200Y-76521428D01*
X74818200Y-76521428D02*
X74818200Y-76583333D01*
X74818200Y-76583333D02*
X74805820Y-76608095D01*
X74805820Y-76608095D02*
X74793439Y-76620476D01*
D12*
X106492857Y-114393832D02*
X106473809Y-114412880D01*
X106473809Y-114412880D02*
X106416667Y-114431927D01*
X106416667Y-114431927D02*
X106378571Y-114431927D01*
X106378571Y-114431927D02*
X106321428Y-114412880D01*
X106321428Y-114412880D02*
X106283333Y-114374784D01*
X106283333Y-114374784D02*
X106264286Y-114336689D01*
X106264286Y-114336689D02*
X106245238Y-114260499D01*
X106245238Y-114260499D02*
X106245238Y-114203356D01*
X106245238Y-114203356D02*
X106264286Y-114127165D01*
X106264286Y-114127165D02*
X106283333Y-114089070D01*
X106283333Y-114089070D02*
X106321428Y-114050975D01*
X106321428Y-114050975D02*
X106378571Y-114031927D01*
X106378571Y-114031927D02*
X106416667Y-114031927D01*
X106416667Y-114031927D02*
X106473809Y-114050975D01*
X106473809Y-114050975D02*
X106492857Y-114070022D01*
X106873809Y-114431927D02*
X106645238Y-114431927D01*
X106759524Y-114431927D02*
X106759524Y-114031927D01*
X106759524Y-114031927D02*
X106721428Y-114089070D01*
X106721428Y-114089070D02*
X106683333Y-114127165D01*
X106683333Y-114127165D02*
X106645238Y-114146213D01*
X107254761Y-114431927D02*
X107026190Y-114431927D01*
X107140476Y-114431927D02*
X107140476Y-114031927D01*
X107140476Y-114031927D02*
X107102380Y-114089070D01*
X107102380Y-114089070D02*
X107064285Y-114127165D01*
X107064285Y-114127165D02*
X107026190Y-114146213D01*
D11*
X122882857Y-76668200D02*
X122796190Y-76544391D01*
X122734285Y-76668200D02*
X122734285Y-76408200D01*
X122734285Y-76408200D02*
X122833333Y-76408200D01*
X122833333Y-76408200D02*
X122858095Y-76420581D01*
X122858095Y-76420581D02*
X122870476Y-76432962D01*
X122870476Y-76432962D02*
X122882857Y-76457724D01*
X122882857Y-76457724D02*
X122882857Y-76494867D01*
X122882857Y-76494867D02*
X122870476Y-76519629D01*
X122870476Y-76519629D02*
X122858095Y-76532010D01*
X122858095Y-76532010D02*
X122833333Y-76544391D01*
X122833333Y-76544391D02*
X122734285Y-76544391D01*
X123130476Y-76668200D02*
X122981904Y-76668200D01*
X123056190Y-76668200D02*
X123056190Y-76408200D01*
X123056190Y-76408200D02*
X123031428Y-76445343D01*
X123031428Y-76445343D02*
X123006666Y-76470105D01*
X123006666Y-76470105D02*
X122981904Y-76482486D01*
X123217142Y-76408200D02*
X123390476Y-76408200D01*
X123390476Y-76408200D02*
X123279047Y-76668200D01*
X122882857Y-75668200D02*
X122796190Y-75544391D01*
X122734285Y-75668200D02*
X122734285Y-75408200D01*
X122734285Y-75408200D02*
X122833333Y-75408200D01*
X122833333Y-75408200D02*
X122858095Y-75420581D01*
X122858095Y-75420581D02*
X122870476Y-75432962D01*
X122870476Y-75432962D02*
X122882857Y-75457724D01*
X122882857Y-75457724D02*
X122882857Y-75494867D01*
X122882857Y-75494867D02*
X122870476Y-75519629D01*
X122870476Y-75519629D02*
X122858095Y-75532010D01*
X122858095Y-75532010D02*
X122833333Y-75544391D01*
X122833333Y-75544391D02*
X122734285Y-75544391D01*
X123130476Y-75668200D02*
X122981904Y-75668200D01*
X123056190Y-75668200D02*
X123056190Y-75408200D01*
X123056190Y-75408200D02*
X123031428Y-75445343D01*
X123031428Y-75445343D02*
X123006666Y-75470105D01*
X123006666Y-75470105D02*
X122981904Y-75482486D01*
X123279047Y-75519629D02*
X123254285Y-75507248D01*
X123254285Y-75507248D02*
X123241904Y-75494867D01*
X123241904Y-75494867D02*
X123229523Y-75470105D01*
X123229523Y-75470105D02*
X123229523Y-75457724D01*
X123229523Y-75457724D02*
X123241904Y-75432962D01*
X123241904Y-75432962D02*
X123254285Y-75420581D01*
X123254285Y-75420581D02*
X123279047Y-75408200D01*
X123279047Y-75408200D02*
X123328571Y-75408200D01*
X123328571Y-75408200D02*
X123353333Y-75420581D01*
X123353333Y-75420581D02*
X123365714Y-75432962D01*
X123365714Y-75432962D02*
X123378095Y-75457724D01*
X123378095Y-75457724D02*
X123378095Y-75470105D01*
X123378095Y-75470105D02*
X123365714Y-75494867D01*
X123365714Y-75494867D02*
X123353333Y-75507248D01*
X123353333Y-75507248D02*
X123328571Y-75519629D01*
X123328571Y-75519629D02*
X123279047Y-75519629D01*
X123279047Y-75519629D02*
X123254285Y-75532010D01*
X123254285Y-75532010D02*
X123241904Y-75544391D01*
X123241904Y-75544391D02*
X123229523Y-75569153D01*
X123229523Y-75569153D02*
X123229523Y-75618677D01*
X123229523Y-75618677D02*
X123241904Y-75643439D01*
X123241904Y-75643439D02*
X123254285Y-75655820D01*
X123254285Y-75655820D02*
X123279047Y-75668200D01*
X123279047Y-75668200D02*
X123328571Y-75668200D01*
X123328571Y-75668200D02*
X123353333Y-75655820D01*
X123353333Y-75655820D02*
X123365714Y-75643439D01*
X123365714Y-75643439D02*
X123378095Y-75618677D01*
X123378095Y-75618677D02*
X123378095Y-75569153D01*
X123378095Y-75569153D02*
X123365714Y-75544391D01*
X123365714Y-75544391D02*
X123353333Y-75532010D01*
X123353333Y-75532010D02*
X123328571Y-75519629D01*
X93956667Y-115868200D02*
X93870000Y-115744391D01*
X93808095Y-115868200D02*
X93808095Y-115608200D01*
X93808095Y-115608200D02*
X93907143Y-115608200D01*
X93907143Y-115608200D02*
X93931905Y-115620581D01*
X93931905Y-115620581D02*
X93944286Y-115632962D01*
X93944286Y-115632962D02*
X93956667Y-115657724D01*
X93956667Y-115657724D02*
X93956667Y-115694867D01*
X93956667Y-115694867D02*
X93944286Y-115719629D01*
X93944286Y-115719629D02*
X93931905Y-115732010D01*
X93931905Y-115732010D02*
X93907143Y-115744391D01*
X93907143Y-115744391D02*
X93808095Y-115744391D01*
X94043333Y-115608200D02*
X94216667Y-115608200D01*
X94216667Y-115608200D02*
X94105238Y-115868200D01*
D13*
X85607365Y-91048571D02*
X86190222Y-91048571D01*
X86190222Y-91048571D02*
X86258794Y-91014285D01*
X86258794Y-91014285D02*
X86293080Y-90980000D01*
X86293080Y-90980000D02*
X86327365Y-90911428D01*
X86327365Y-90911428D02*
X86327365Y-90774285D01*
X86327365Y-90774285D02*
X86293080Y-90705714D01*
X86293080Y-90705714D02*
X86258794Y-90671428D01*
X86258794Y-90671428D02*
X86190222Y-90637142D01*
X86190222Y-90637142D02*
X85607365Y-90637142D01*
X85607365Y-89985714D02*
X85607365Y-90122856D01*
X85607365Y-90122856D02*
X85641651Y-90191428D01*
X85641651Y-90191428D02*
X85675937Y-90225714D01*
X85675937Y-90225714D02*
X85778794Y-90294285D01*
X85778794Y-90294285D02*
X85915937Y-90328571D01*
X85915937Y-90328571D02*
X86190222Y-90328571D01*
X86190222Y-90328571D02*
X86258794Y-90294285D01*
X86258794Y-90294285D02*
X86293080Y-90259999D01*
X86293080Y-90259999D02*
X86327365Y-90191428D01*
X86327365Y-90191428D02*
X86327365Y-90054285D01*
X86327365Y-90054285D02*
X86293080Y-89985714D01*
X86293080Y-89985714D02*
X86258794Y-89951428D01*
X86258794Y-89951428D02*
X86190222Y-89917142D01*
X86190222Y-89917142D02*
X86018794Y-89917142D01*
X86018794Y-89917142D02*
X85950222Y-89951428D01*
X85950222Y-89951428D02*
X85915937Y-89985714D01*
X85915937Y-89985714D02*
X85881651Y-90054285D01*
X85881651Y-90054285D02*
X85881651Y-90191428D01*
X85881651Y-90191428D02*
X85915937Y-90259999D01*
X85915937Y-90259999D02*
X85950222Y-90294285D01*
X85950222Y-90294285D02*
X86018794Y-90328571D01*
D11*
X110706667Y-102118200D02*
X110620000Y-101994391D01*
X110558095Y-102118200D02*
X110558095Y-101858200D01*
X110558095Y-101858200D02*
X110657143Y-101858200D01*
X110657143Y-101858200D02*
X110681905Y-101870581D01*
X110681905Y-101870581D02*
X110694286Y-101882962D01*
X110694286Y-101882962D02*
X110706667Y-101907724D01*
X110706667Y-101907724D02*
X110706667Y-101944867D01*
X110706667Y-101944867D02*
X110694286Y-101969629D01*
X110694286Y-101969629D02*
X110681905Y-101982010D01*
X110681905Y-101982010D02*
X110657143Y-101994391D01*
X110657143Y-101994391D02*
X110558095Y-101994391D01*
X110805714Y-101882962D02*
X110818095Y-101870581D01*
X110818095Y-101870581D02*
X110842857Y-101858200D01*
X110842857Y-101858200D02*
X110904762Y-101858200D01*
X110904762Y-101858200D02*
X110929524Y-101870581D01*
X110929524Y-101870581D02*
X110941905Y-101882962D01*
X110941905Y-101882962D02*
X110954286Y-101907724D01*
X110954286Y-101907724D02*
X110954286Y-101932486D01*
X110954286Y-101932486D02*
X110941905Y-101969629D01*
X110941905Y-101969629D02*
X110793333Y-102118200D01*
X110793333Y-102118200D02*
X110954286Y-102118200D01*
D12*
X75992857Y-127393832D02*
X75973809Y-127412880D01*
X75973809Y-127412880D02*
X75916667Y-127431927D01*
X75916667Y-127431927D02*
X75878571Y-127431927D01*
X75878571Y-127431927D02*
X75821428Y-127412880D01*
X75821428Y-127412880D02*
X75783333Y-127374784D01*
X75783333Y-127374784D02*
X75764286Y-127336689D01*
X75764286Y-127336689D02*
X75745238Y-127260499D01*
X75745238Y-127260499D02*
X75745238Y-127203356D01*
X75745238Y-127203356D02*
X75764286Y-127127165D01*
X75764286Y-127127165D02*
X75783333Y-127089070D01*
X75783333Y-127089070D02*
X75821428Y-127050975D01*
X75821428Y-127050975D02*
X75878571Y-127031927D01*
X75878571Y-127031927D02*
X75916667Y-127031927D01*
X75916667Y-127031927D02*
X75973809Y-127050975D01*
X75973809Y-127050975D02*
X75992857Y-127070022D01*
X76145238Y-127070022D02*
X76164286Y-127050975D01*
X76164286Y-127050975D02*
X76202381Y-127031927D01*
X76202381Y-127031927D02*
X76297619Y-127031927D01*
X76297619Y-127031927D02*
X76335714Y-127050975D01*
X76335714Y-127050975D02*
X76354762Y-127070022D01*
X76354762Y-127070022D02*
X76373809Y-127108118D01*
X76373809Y-127108118D02*
X76373809Y-127146213D01*
X76373809Y-127146213D02*
X76354762Y-127203356D01*
X76354762Y-127203356D02*
X76126190Y-127431927D01*
X76126190Y-127431927D02*
X76373809Y-127431927D01*
X76716666Y-127165260D02*
X76716666Y-127431927D01*
X76621428Y-127012880D02*
X76526190Y-127298594D01*
X76526190Y-127298594D02*
X76773809Y-127298594D01*
X74893832Y-71507142D02*
X74912880Y-71526190D01*
X74912880Y-71526190D02*
X74931927Y-71583332D01*
X74931927Y-71583332D02*
X74931927Y-71621428D01*
X74931927Y-71621428D02*
X74912880Y-71678571D01*
X74912880Y-71678571D02*
X74874784Y-71716666D01*
X74874784Y-71716666D02*
X74836689Y-71735713D01*
X74836689Y-71735713D02*
X74760499Y-71754761D01*
X74760499Y-71754761D02*
X74703356Y-71754761D01*
X74703356Y-71754761D02*
X74627165Y-71735713D01*
X74627165Y-71735713D02*
X74589070Y-71716666D01*
X74589070Y-71716666D02*
X74550975Y-71678571D01*
X74550975Y-71678571D02*
X74531927Y-71621428D01*
X74531927Y-71621428D02*
X74531927Y-71583332D01*
X74531927Y-71583332D02*
X74550975Y-71526190D01*
X74550975Y-71526190D02*
X74570022Y-71507142D01*
X74570022Y-71354761D02*
X74550975Y-71335713D01*
X74550975Y-71335713D02*
X74531927Y-71297618D01*
X74531927Y-71297618D02*
X74531927Y-71202380D01*
X74531927Y-71202380D02*
X74550975Y-71164285D01*
X74550975Y-71164285D02*
X74570022Y-71145237D01*
X74570022Y-71145237D02*
X74608118Y-71126190D01*
X74608118Y-71126190D02*
X74646213Y-71126190D01*
X74646213Y-71126190D02*
X74703356Y-71145237D01*
X74703356Y-71145237D02*
X74931927Y-71373809D01*
X74931927Y-71373809D02*
X74931927Y-71126190D01*
X74931927Y-70745238D02*
X74931927Y-70973809D01*
X74931927Y-70859523D02*
X74531927Y-70859523D01*
X74531927Y-70859523D02*
X74589070Y-70897619D01*
X74589070Y-70897619D02*
X74627165Y-70935714D01*
X74627165Y-70935714D02*
X74646213Y-70973809D01*
D11*
X89458333Y-96089765D02*
X89446429Y-96101670D01*
X89446429Y-96101670D02*
X89410714Y-96113574D01*
X89410714Y-96113574D02*
X89386905Y-96113574D01*
X89386905Y-96113574D02*
X89351191Y-96101670D01*
X89351191Y-96101670D02*
X89327381Y-96077860D01*
X89327381Y-96077860D02*
X89315476Y-96054050D01*
X89315476Y-96054050D02*
X89303572Y-96006431D01*
X89303572Y-96006431D02*
X89303572Y-95970717D01*
X89303572Y-95970717D02*
X89315476Y-95923098D01*
X89315476Y-95923098D02*
X89327381Y-95899289D01*
X89327381Y-95899289D02*
X89351191Y-95875479D01*
X89351191Y-95875479D02*
X89386905Y-95863574D01*
X89386905Y-95863574D02*
X89410714Y-95863574D01*
X89410714Y-95863574D02*
X89446429Y-95875479D01*
X89446429Y-95875479D02*
X89458333Y-95887384D01*
X89577381Y-96113574D02*
X89625000Y-96113574D01*
X89625000Y-96113574D02*
X89648810Y-96101670D01*
X89648810Y-96101670D02*
X89660714Y-96089765D01*
X89660714Y-96089765D02*
X89684524Y-96054050D01*
X89684524Y-96054050D02*
X89696429Y-96006431D01*
X89696429Y-96006431D02*
X89696429Y-95911193D01*
X89696429Y-95911193D02*
X89684524Y-95887384D01*
X89684524Y-95887384D02*
X89672619Y-95875479D01*
X89672619Y-95875479D02*
X89648810Y-95863574D01*
X89648810Y-95863574D02*
X89601191Y-95863574D01*
X89601191Y-95863574D02*
X89577381Y-95875479D01*
X89577381Y-95875479D02*
X89565476Y-95887384D01*
X89565476Y-95887384D02*
X89553572Y-95911193D01*
X89553572Y-95911193D02*
X89553572Y-95970717D01*
X89553572Y-95970717D02*
X89565476Y-95994527D01*
X89565476Y-95994527D02*
X89577381Y-96006431D01*
X89577381Y-96006431D02*
X89601191Y-96018336D01*
X89601191Y-96018336D02*
X89648810Y-96018336D01*
X89648810Y-96018336D02*
X89672619Y-96006431D01*
X89672619Y-96006431D02*
X89684524Y-95994527D01*
X89684524Y-95994527D02*
X89696429Y-95970717D01*
X88356667Y-95518200D02*
X88270000Y-95394391D01*
X88208095Y-95518200D02*
X88208095Y-95258200D01*
X88208095Y-95258200D02*
X88307143Y-95258200D01*
X88307143Y-95258200D02*
X88331905Y-95270581D01*
X88331905Y-95270581D02*
X88344286Y-95282962D01*
X88344286Y-95282962D02*
X88356667Y-95307724D01*
X88356667Y-95307724D02*
X88356667Y-95344867D01*
X88356667Y-95344867D02*
X88344286Y-95369629D01*
X88344286Y-95369629D02*
X88331905Y-95382010D01*
X88331905Y-95382010D02*
X88307143Y-95394391D01*
X88307143Y-95394391D02*
X88208095Y-95394391D01*
X88579524Y-95344867D02*
X88579524Y-95518200D01*
X88517619Y-95245820D02*
X88455714Y-95431534D01*
X88455714Y-95431534D02*
X88616667Y-95431534D01*
X115582857Y-92118200D02*
X115496190Y-91994391D01*
X115434285Y-92118200D02*
X115434285Y-91858200D01*
X115434285Y-91858200D02*
X115533333Y-91858200D01*
X115533333Y-91858200D02*
X115558095Y-91870581D01*
X115558095Y-91870581D02*
X115570476Y-91882962D01*
X115570476Y-91882962D02*
X115582857Y-91907724D01*
X115582857Y-91907724D02*
X115582857Y-91944867D01*
X115582857Y-91944867D02*
X115570476Y-91969629D01*
X115570476Y-91969629D02*
X115558095Y-91982010D01*
X115558095Y-91982010D02*
X115533333Y-91994391D01*
X115533333Y-91994391D02*
X115434285Y-91994391D01*
X115681904Y-91882962D02*
X115694285Y-91870581D01*
X115694285Y-91870581D02*
X115719047Y-91858200D01*
X115719047Y-91858200D02*
X115780952Y-91858200D01*
X115780952Y-91858200D02*
X115805714Y-91870581D01*
X115805714Y-91870581D02*
X115818095Y-91882962D01*
X115818095Y-91882962D02*
X115830476Y-91907724D01*
X115830476Y-91907724D02*
X115830476Y-91932486D01*
X115830476Y-91932486D02*
X115818095Y-91969629D01*
X115818095Y-91969629D02*
X115669523Y-92118200D01*
X115669523Y-92118200D02*
X115830476Y-92118200D01*
X115917142Y-91858200D02*
X116078095Y-91858200D01*
X116078095Y-91858200D02*
X115991428Y-91957248D01*
X115991428Y-91957248D02*
X116028571Y-91957248D01*
X116028571Y-91957248D02*
X116053333Y-91969629D01*
X116053333Y-91969629D02*
X116065714Y-91982010D01*
X116065714Y-91982010D02*
X116078095Y-92006772D01*
X116078095Y-92006772D02*
X116078095Y-92068677D01*
X116078095Y-92068677D02*
X116065714Y-92093439D01*
X116065714Y-92093439D02*
X116053333Y-92105820D01*
X116053333Y-92105820D02*
X116028571Y-92118200D01*
X116028571Y-92118200D02*
X115954285Y-92118200D01*
X115954285Y-92118200D02*
X115929523Y-92105820D01*
X115929523Y-92105820D02*
X115917142Y-92093439D01*
X75818200Y-77217142D02*
X75694391Y-77303809D01*
X75818200Y-77365714D02*
X75558200Y-77365714D01*
X75558200Y-77365714D02*
X75558200Y-77266666D01*
X75558200Y-77266666D02*
X75570581Y-77241904D01*
X75570581Y-77241904D02*
X75582962Y-77229523D01*
X75582962Y-77229523D02*
X75607724Y-77217142D01*
X75607724Y-77217142D02*
X75644867Y-77217142D01*
X75644867Y-77217142D02*
X75669629Y-77229523D01*
X75669629Y-77229523D02*
X75682010Y-77241904D01*
X75682010Y-77241904D02*
X75694391Y-77266666D01*
X75694391Y-77266666D02*
X75694391Y-77365714D01*
X75818200Y-76969523D02*
X75818200Y-77118095D01*
X75818200Y-77043809D02*
X75558200Y-77043809D01*
X75558200Y-77043809D02*
X75595343Y-77068571D01*
X75595343Y-77068571D02*
X75620105Y-77093333D01*
X75620105Y-77093333D02*
X75632486Y-77118095D01*
X75558200Y-76746666D02*
X75558200Y-76796190D01*
X75558200Y-76796190D02*
X75570581Y-76820952D01*
X75570581Y-76820952D02*
X75582962Y-76833333D01*
X75582962Y-76833333D02*
X75620105Y-76858095D01*
X75620105Y-76858095D02*
X75669629Y-76870476D01*
X75669629Y-76870476D02*
X75768677Y-76870476D01*
X75768677Y-76870476D02*
X75793439Y-76858095D01*
X75793439Y-76858095D02*
X75805820Y-76845714D01*
X75805820Y-76845714D02*
X75818200Y-76820952D01*
X75818200Y-76820952D02*
X75818200Y-76771428D01*
X75818200Y-76771428D02*
X75805820Y-76746666D01*
X75805820Y-76746666D02*
X75793439Y-76734285D01*
X75793439Y-76734285D02*
X75768677Y-76721904D01*
X75768677Y-76721904D02*
X75706772Y-76721904D01*
X75706772Y-76721904D02*
X75682010Y-76734285D01*
X75682010Y-76734285D02*
X75669629Y-76746666D01*
X75669629Y-76746666D02*
X75657248Y-76771428D01*
X75657248Y-76771428D02*
X75657248Y-76820952D01*
X75657248Y-76820952D02*
X75669629Y-76845714D01*
X75669629Y-76845714D02*
X75682010Y-76858095D01*
X75682010Y-76858095D02*
X75706772Y-76870476D01*
D14*
X110685714Y-115987664D02*
X110647618Y-116025760D01*
X110647618Y-116025760D02*
X110533333Y-116063855D01*
X110533333Y-116063855D02*
X110457142Y-116063855D01*
X110457142Y-116063855D02*
X110342856Y-116025760D01*
X110342856Y-116025760D02*
X110266666Y-115949569D01*
X110266666Y-115949569D02*
X110228571Y-115873379D01*
X110228571Y-115873379D02*
X110190475Y-115720998D01*
X110190475Y-115720998D02*
X110190475Y-115606712D01*
X110190475Y-115606712D02*
X110228571Y-115454331D01*
X110228571Y-115454331D02*
X110266666Y-115378140D01*
X110266666Y-115378140D02*
X110342856Y-115301950D01*
X110342856Y-115301950D02*
X110457142Y-115263855D01*
X110457142Y-115263855D02*
X110533333Y-115263855D01*
X110533333Y-115263855D02*
X110647618Y-115301950D01*
X110647618Y-115301950D02*
X110685714Y-115340045D01*
X111447618Y-116063855D02*
X110990475Y-116063855D01*
X111219047Y-116063855D02*
X111219047Y-115263855D01*
X111219047Y-115263855D02*
X111142856Y-115378140D01*
X111142856Y-115378140D02*
X111066666Y-115454331D01*
X111066666Y-115454331D02*
X110990475Y-115492426D01*
X111828571Y-116063855D02*
X111980952Y-116063855D01*
X111980952Y-116063855D02*
X112057142Y-116025760D01*
X112057142Y-116025760D02*
X112095238Y-115987664D01*
X112095238Y-115987664D02*
X112171428Y-115873379D01*
X112171428Y-115873379D02*
X112209523Y-115720998D01*
X112209523Y-115720998D02*
X112209523Y-115416236D01*
X112209523Y-115416236D02*
X112171428Y-115340045D01*
X112171428Y-115340045D02*
X112133333Y-115301950D01*
X112133333Y-115301950D02*
X112057142Y-115263855D01*
X112057142Y-115263855D02*
X111904761Y-115263855D01*
X111904761Y-115263855D02*
X111828571Y-115301950D01*
X111828571Y-115301950D02*
X111790476Y-115340045D01*
X111790476Y-115340045D02*
X111752380Y-115416236D01*
X111752380Y-115416236D02*
X111752380Y-115606712D01*
X111752380Y-115606712D02*
X111790476Y-115682902D01*
X111790476Y-115682902D02*
X111828571Y-115720998D01*
X111828571Y-115720998D02*
X111904761Y-115759093D01*
X111904761Y-115759093D02*
X112057142Y-115759093D01*
X112057142Y-115759093D02*
X112133333Y-115720998D01*
X112133333Y-115720998D02*
X112171428Y-115682902D01*
X112171428Y-115682902D02*
X112209523Y-115606712D01*
D11*
X107589285Y-106889765D02*
X107577381Y-106901670D01*
X107577381Y-106901670D02*
X107541666Y-106913574D01*
X107541666Y-106913574D02*
X107517857Y-106913574D01*
X107517857Y-106913574D02*
X107482143Y-106901670D01*
X107482143Y-106901670D02*
X107458333Y-106877860D01*
X107458333Y-106877860D02*
X107446428Y-106854050D01*
X107446428Y-106854050D02*
X107434524Y-106806431D01*
X107434524Y-106806431D02*
X107434524Y-106770717D01*
X107434524Y-106770717D02*
X107446428Y-106723098D01*
X107446428Y-106723098D02*
X107458333Y-106699289D01*
X107458333Y-106699289D02*
X107482143Y-106675479D01*
X107482143Y-106675479D02*
X107517857Y-106663574D01*
X107517857Y-106663574D02*
X107541666Y-106663574D01*
X107541666Y-106663574D02*
X107577381Y-106675479D01*
X107577381Y-106675479D02*
X107589285Y-106687384D01*
X107827381Y-106913574D02*
X107684524Y-106913574D01*
X107755952Y-106913574D02*
X107755952Y-106663574D01*
X107755952Y-106663574D02*
X107732143Y-106699289D01*
X107732143Y-106699289D02*
X107708333Y-106723098D01*
X107708333Y-106723098D02*
X107684524Y-106735003D01*
X107970238Y-106770717D02*
X107946428Y-106758812D01*
X107946428Y-106758812D02*
X107934523Y-106746908D01*
X107934523Y-106746908D02*
X107922619Y-106723098D01*
X107922619Y-106723098D02*
X107922619Y-106711193D01*
X107922619Y-106711193D02*
X107934523Y-106687384D01*
X107934523Y-106687384D02*
X107946428Y-106675479D01*
X107946428Y-106675479D02*
X107970238Y-106663574D01*
X107970238Y-106663574D02*
X108017857Y-106663574D01*
X108017857Y-106663574D02*
X108041666Y-106675479D01*
X108041666Y-106675479D02*
X108053571Y-106687384D01*
X108053571Y-106687384D02*
X108065476Y-106711193D01*
X108065476Y-106711193D02*
X108065476Y-106723098D01*
X108065476Y-106723098D02*
X108053571Y-106746908D01*
X108053571Y-106746908D02*
X108041666Y-106758812D01*
X108041666Y-106758812D02*
X108017857Y-106770717D01*
X108017857Y-106770717D02*
X107970238Y-106770717D01*
X107970238Y-106770717D02*
X107946428Y-106782622D01*
X107946428Y-106782622D02*
X107934523Y-106794527D01*
X107934523Y-106794527D02*
X107922619Y-106818336D01*
X107922619Y-106818336D02*
X107922619Y-106865955D01*
X107922619Y-106865955D02*
X107934523Y-106889765D01*
X107934523Y-106889765D02*
X107946428Y-106901670D01*
X107946428Y-106901670D02*
X107970238Y-106913574D01*
X107970238Y-106913574D02*
X108017857Y-106913574D01*
X108017857Y-106913574D02*
X108041666Y-106901670D01*
X108041666Y-106901670D02*
X108053571Y-106889765D01*
X108053571Y-106889765D02*
X108065476Y-106865955D01*
X108065476Y-106865955D02*
X108065476Y-106818336D01*
X108065476Y-106818336D02*
X108053571Y-106794527D01*
X108053571Y-106794527D02*
X108041666Y-106782622D01*
X108041666Y-106782622D02*
X108017857Y-106770717D01*
X88658333Y-85489765D02*
X88646429Y-85501670D01*
X88646429Y-85501670D02*
X88610714Y-85513574D01*
X88610714Y-85513574D02*
X88586905Y-85513574D01*
X88586905Y-85513574D02*
X88551191Y-85501670D01*
X88551191Y-85501670D02*
X88527381Y-85477860D01*
X88527381Y-85477860D02*
X88515476Y-85454050D01*
X88515476Y-85454050D02*
X88503572Y-85406431D01*
X88503572Y-85406431D02*
X88503572Y-85370717D01*
X88503572Y-85370717D02*
X88515476Y-85323098D01*
X88515476Y-85323098D02*
X88527381Y-85299289D01*
X88527381Y-85299289D02*
X88551191Y-85275479D01*
X88551191Y-85275479D02*
X88586905Y-85263574D01*
X88586905Y-85263574D02*
X88610714Y-85263574D01*
X88610714Y-85263574D02*
X88646429Y-85275479D01*
X88646429Y-85275479D02*
X88658333Y-85287384D01*
X88753572Y-85287384D02*
X88765476Y-85275479D01*
X88765476Y-85275479D02*
X88789286Y-85263574D01*
X88789286Y-85263574D02*
X88848810Y-85263574D01*
X88848810Y-85263574D02*
X88872619Y-85275479D01*
X88872619Y-85275479D02*
X88884524Y-85287384D01*
X88884524Y-85287384D02*
X88896429Y-85311193D01*
X88896429Y-85311193D02*
X88896429Y-85335003D01*
X88896429Y-85335003D02*
X88884524Y-85370717D01*
X88884524Y-85370717D02*
X88741667Y-85513574D01*
X88741667Y-85513574D02*
X88896429Y-85513574D01*
X110332857Y-92868200D02*
X110246190Y-92744391D01*
X110184285Y-92868200D02*
X110184285Y-92608200D01*
X110184285Y-92608200D02*
X110283333Y-92608200D01*
X110283333Y-92608200D02*
X110308095Y-92620581D01*
X110308095Y-92620581D02*
X110320476Y-92632962D01*
X110320476Y-92632962D02*
X110332857Y-92657724D01*
X110332857Y-92657724D02*
X110332857Y-92694867D01*
X110332857Y-92694867D02*
X110320476Y-92719629D01*
X110320476Y-92719629D02*
X110308095Y-92732010D01*
X110308095Y-92732010D02*
X110283333Y-92744391D01*
X110283333Y-92744391D02*
X110184285Y-92744391D01*
X110580476Y-92868200D02*
X110431904Y-92868200D01*
X110506190Y-92868200D02*
X110506190Y-92608200D01*
X110506190Y-92608200D02*
X110481428Y-92645343D01*
X110481428Y-92645343D02*
X110456666Y-92670105D01*
X110456666Y-92670105D02*
X110431904Y-92682486D01*
X110828095Y-92868200D02*
X110679523Y-92868200D01*
X110753809Y-92868200D02*
X110753809Y-92608200D01*
X110753809Y-92608200D02*
X110729047Y-92645343D01*
X110729047Y-92645343D02*
X110704285Y-92670105D01*
X110704285Y-92670105D02*
X110679523Y-92682486D01*
D13*
X104107365Y-109798571D02*
X104690222Y-109798571D01*
X104690222Y-109798571D02*
X104758794Y-109764285D01*
X104758794Y-109764285D02*
X104793080Y-109730000D01*
X104793080Y-109730000D02*
X104827365Y-109661428D01*
X104827365Y-109661428D02*
X104827365Y-109524285D01*
X104827365Y-109524285D02*
X104793080Y-109455714D01*
X104793080Y-109455714D02*
X104758794Y-109421428D01*
X104758794Y-109421428D02*
X104690222Y-109387142D01*
X104690222Y-109387142D02*
X104107365Y-109387142D01*
X104347365Y-108735714D02*
X104827365Y-108735714D01*
X104073080Y-108907142D02*
X104587365Y-109078571D01*
X104587365Y-109078571D02*
X104587365Y-108632856D01*
D10*
X111678571Y-94179530D02*
X111654762Y-94203340D01*
X111654762Y-94203340D02*
X111583333Y-94227149D01*
X111583333Y-94227149D02*
X111535714Y-94227149D01*
X111535714Y-94227149D02*
X111464286Y-94203340D01*
X111464286Y-94203340D02*
X111416667Y-94155720D01*
X111416667Y-94155720D02*
X111392857Y-94108101D01*
X111392857Y-94108101D02*
X111369048Y-94012863D01*
X111369048Y-94012863D02*
X111369048Y-93941435D01*
X111369048Y-93941435D02*
X111392857Y-93846197D01*
X111392857Y-93846197D02*
X111416667Y-93798578D01*
X111416667Y-93798578D02*
X111464286Y-93750959D01*
X111464286Y-93750959D02*
X111535714Y-93727149D01*
X111535714Y-93727149D02*
X111583333Y-93727149D01*
X111583333Y-93727149D02*
X111654762Y-93750959D01*
X111654762Y-93750959D02*
X111678571Y-93774768D01*
X112154762Y-94227149D02*
X111869048Y-94227149D01*
X112011905Y-94227149D02*
X112011905Y-93727149D01*
X112011905Y-93727149D02*
X111964286Y-93798578D01*
X111964286Y-93798578D02*
X111916667Y-93846197D01*
X111916667Y-93846197D02*
X111869048Y-93870006D01*
X112345238Y-93774768D02*
X112369047Y-93750959D01*
X112369047Y-93750959D02*
X112416666Y-93727149D01*
X112416666Y-93727149D02*
X112535714Y-93727149D01*
X112535714Y-93727149D02*
X112583333Y-93750959D01*
X112583333Y-93750959D02*
X112607142Y-93774768D01*
X112607142Y-93774768D02*
X112630952Y-93822387D01*
X112630952Y-93822387D02*
X112630952Y-93870006D01*
X112630952Y-93870006D02*
X112607142Y-93941435D01*
X112607142Y-93941435D02*
X112321428Y-94227149D01*
X112321428Y-94227149D02*
X112630952Y-94227149D01*
D11*
X97158333Y-104589765D02*
X97146429Y-104601670D01*
X97146429Y-104601670D02*
X97110714Y-104613574D01*
X97110714Y-104613574D02*
X97086905Y-104613574D01*
X97086905Y-104613574D02*
X97051191Y-104601670D01*
X97051191Y-104601670D02*
X97027381Y-104577860D01*
X97027381Y-104577860D02*
X97015476Y-104554050D01*
X97015476Y-104554050D02*
X97003572Y-104506431D01*
X97003572Y-104506431D02*
X97003572Y-104470717D01*
X97003572Y-104470717D02*
X97015476Y-104423098D01*
X97015476Y-104423098D02*
X97027381Y-104399289D01*
X97027381Y-104399289D02*
X97051191Y-104375479D01*
X97051191Y-104375479D02*
X97086905Y-104363574D01*
X97086905Y-104363574D02*
X97110714Y-104363574D01*
X97110714Y-104363574D02*
X97146429Y-104375479D01*
X97146429Y-104375479D02*
X97158333Y-104387384D01*
X97301191Y-104470717D02*
X97277381Y-104458812D01*
X97277381Y-104458812D02*
X97265476Y-104446908D01*
X97265476Y-104446908D02*
X97253572Y-104423098D01*
X97253572Y-104423098D02*
X97253572Y-104411193D01*
X97253572Y-104411193D02*
X97265476Y-104387384D01*
X97265476Y-104387384D02*
X97277381Y-104375479D01*
X97277381Y-104375479D02*
X97301191Y-104363574D01*
X97301191Y-104363574D02*
X97348810Y-104363574D01*
X97348810Y-104363574D02*
X97372619Y-104375479D01*
X97372619Y-104375479D02*
X97384524Y-104387384D01*
X97384524Y-104387384D02*
X97396429Y-104411193D01*
X97396429Y-104411193D02*
X97396429Y-104423098D01*
X97396429Y-104423098D02*
X97384524Y-104446908D01*
X97384524Y-104446908D02*
X97372619Y-104458812D01*
X97372619Y-104458812D02*
X97348810Y-104470717D01*
X97348810Y-104470717D02*
X97301191Y-104470717D01*
X97301191Y-104470717D02*
X97277381Y-104482622D01*
X97277381Y-104482622D02*
X97265476Y-104494527D01*
X97265476Y-104494527D02*
X97253572Y-104518336D01*
X97253572Y-104518336D02*
X97253572Y-104565955D01*
X97253572Y-104565955D02*
X97265476Y-104589765D01*
X97265476Y-104589765D02*
X97277381Y-104601670D01*
X97277381Y-104601670D02*
X97301191Y-104613574D01*
X97301191Y-104613574D02*
X97348810Y-104613574D01*
X97348810Y-104613574D02*
X97372619Y-104601670D01*
X97372619Y-104601670D02*
X97384524Y-104589765D01*
X97384524Y-104589765D02*
X97396429Y-104565955D01*
X97396429Y-104565955D02*
X97396429Y-104518336D01*
X97396429Y-104518336D02*
X97384524Y-104494527D01*
X97384524Y-104494527D02*
X97372619Y-104482622D01*
X97372619Y-104482622D02*
X97348810Y-104470717D01*
X88356667Y-93218200D02*
X88270000Y-93094391D01*
X88208095Y-93218200D02*
X88208095Y-92958200D01*
X88208095Y-92958200D02*
X88307143Y-92958200D01*
X88307143Y-92958200D02*
X88331905Y-92970581D01*
X88331905Y-92970581D02*
X88344286Y-92982962D01*
X88344286Y-92982962D02*
X88356667Y-93007724D01*
X88356667Y-93007724D02*
X88356667Y-93044867D01*
X88356667Y-93044867D02*
X88344286Y-93069629D01*
X88344286Y-93069629D02*
X88331905Y-93082010D01*
X88331905Y-93082010D02*
X88307143Y-93094391D01*
X88307143Y-93094391D02*
X88208095Y-93094391D01*
X88443333Y-92958200D02*
X88604286Y-92958200D01*
X88604286Y-92958200D02*
X88517619Y-93057248D01*
X88517619Y-93057248D02*
X88554762Y-93057248D01*
X88554762Y-93057248D02*
X88579524Y-93069629D01*
X88579524Y-93069629D02*
X88591905Y-93082010D01*
X88591905Y-93082010D02*
X88604286Y-93106772D01*
X88604286Y-93106772D02*
X88604286Y-93168677D01*
X88604286Y-93168677D02*
X88591905Y-93193439D01*
X88591905Y-93193439D02*
X88579524Y-93205820D01*
X88579524Y-93205820D02*
X88554762Y-93218200D01*
X88554762Y-93218200D02*
X88480476Y-93218200D01*
X88480476Y-93218200D02*
X88455714Y-93205820D01*
X88455714Y-93205820D02*
X88443333Y-93193439D01*
D10*
X88416666Y-87379530D02*
X88392857Y-87403340D01*
X88392857Y-87403340D02*
X88321428Y-87427149D01*
X88321428Y-87427149D02*
X88273809Y-87427149D01*
X88273809Y-87427149D02*
X88202381Y-87403340D01*
X88202381Y-87403340D02*
X88154762Y-87355720D01*
X88154762Y-87355720D02*
X88130952Y-87308101D01*
X88130952Y-87308101D02*
X88107143Y-87212863D01*
X88107143Y-87212863D02*
X88107143Y-87141435D01*
X88107143Y-87141435D02*
X88130952Y-87046197D01*
X88130952Y-87046197D02*
X88154762Y-86998578D01*
X88154762Y-86998578D02*
X88202381Y-86950959D01*
X88202381Y-86950959D02*
X88273809Y-86927149D01*
X88273809Y-86927149D02*
X88321428Y-86927149D01*
X88321428Y-86927149D02*
X88392857Y-86950959D01*
X88392857Y-86950959D02*
X88416666Y-86974768D01*
X88892857Y-87427149D02*
X88607143Y-87427149D01*
X88750000Y-87427149D02*
X88750000Y-86927149D01*
X88750000Y-86927149D02*
X88702381Y-86998578D01*
X88702381Y-86998578D02*
X88654762Y-87046197D01*
X88654762Y-87046197D02*
X88607143Y-87070006D01*
X111178571Y-87179530D02*
X111154762Y-87203340D01*
X111154762Y-87203340D02*
X111083333Y-87227149D01*
X111083333Y-87227149D02*
X111035714Y-87227149D01*
X111035714Y-87227149D02*
X110964286Y-87203340D01*
X110964286Y-87203340D02*
X110916667Y-87155720D01*
X110916667Y-87155720D02*
X110892857Y-87108101D01*
X110892857Y-87108101D02*
X110869048Y-87012863D01*
X110869048Y-87012863D02*
X110869048Y-86941435D01*
X110869048Y-86941435D02*
X110892857Y-86846197D01*
X110892857Y-86846197D02*
X110916667Y-86798578D01*
X110916667Y-86798578D02*
X110964286Y-86750959D01*
X110964286Y-86750959D02*
X111035714Y-86727149D01*
X111035714Y-86727149D02*
X111083333Y-86727149D01*
X111083333Y-86727149D02*
X111154762Y-86750959D01*
X111154762Y-86750959D02*
X111178571Y-86774768D01*
X111654762Y-87227149D02*
X111369048Y-87227149D01*
X111511905Y-87227149D02*
X111511905Y-86727149D01*
X111511905Y-86727149D02*
X111464286Y-86798578D01*
X111464286Y-86798578D02*
X111416667Y-86846197D01*
X111416667Y-86846197D02*
X111369048Y-86870006D01*
X111821428Y-86727149D02*
X112130952Y-86727149D01*
X112130952Y-86727149D02*
X111964285Y-86917625D01*
X111964285Y-86917625D02*
X112035714Y-86917625D01*
X112035714Y-86917625D02*
X112083333Y-86941435D01*
X112083333Y-86941435D02*
X112107142Y-86965244D01*
X112107142Y-86965244D02*
X112130952Y-87012863D01*
X112130952Y-87012863D02*
X112130952Y-87131911D01*
X112130952Y-87131911D02*
X112107142Y-87179530D01*
X112107142Y-87179530D02*
X112083333Y-87203340D01*
X112083333Y-87203340D02*
X112035714Y-87227149D01*
X112035714Y-87227149D02*
X111892857Y-87227149D01*
X111892857Y-87227149D02*
X111845238Y-87203340D01*
X111845238Y-87203340D02*
X111821428Y-87179530D01*
D11*
X97158333Y-106089765D02*
X97146429Y-106101670D01*
X97146429Y-106101670D02*
X97110714Y-106113574D01*
X97110714Y-106113574D02*
X97086905Y-106113574D01*
X97086905Y-106113574D02*
X97051191Y-106101670D01*
X97051191Y-106101670D02*
X97027381Y-106077860D01*
X97027381Y-106077860D02*
X97015476Y-106054050D01*
X97015476Y-106054050D02*
X97003572Y-106006431D01*
X97003572Y-106006431D02*
X97003572Y-105970717D01*
X97003572Y-105970717D02*
X97015476Y-105923098D01*
X97015476Y-105923098D02*
X97027381Y-105899289D01*
X97027381Y-105899289D02*
X97051191Y-105875479D01*
X97051191Y-105875479D02*
X97086905Y-105863574D01*
X97086905Y-105863574D02*
X97110714Y-105863574D01*
X97110714Y-105863574D02*
X97146429Y-105875479D01*
X97146429Y-105875479D02*
X97158333Y-105887384D01*
X97372619Y-105863574D02*
X97325000Y-105863574D01*
X97325000Y-105863574D02*
X97301191Y-105875479D01*
X97301191Y-105875479D02*
X97289286Y-105887384D01*
X97289286Y-105887384D02*
X97265476Y-105923098D01*
X97265476Y-105923098D02*
X97253572Y-105970717D01*
X97253572Y-105970717D02*
X97253572Y-106065955D01*
X97253572Y-106065955D02*
X97265476Y-106089765D01*
X97265476Y-106089765D02*
X97277381Y-106101670D01*
X97277381Y-106101670D02*
X97301191Y-106113574D01*
X97301191Y-106113574D02*
X97348810Y-106113574D01*
X97348810Y-106113574D02*
X97372619Y-106101670D01*
X97372619Y-106101670D02*
X97384524Y-106089765D01*
X97384524Y-106089765D02*
X97396429Y-106065955D01*
X97396429Y-106065955D02*
X97396429Y-106006431D01*
X97396429Y-106006431D02*
X97384524Y-105982622D01*
X97384524Y-105982622D02*
X97372619Y-105970717D01*
X97372619Y-105970717D02*
X97348810Y-105958812D01*
X97348810Y-105958812D02*
X97301191Y-105958812D01*
X97301191Y-105958812D02*
X97277381Y-105970717D01*
X97277381Y-105970717D02*
X97265476Y-105982622D01*
X97265476Y-105982622D02*
X97253572Y-106006431D01*
D15*
X111466666Y-90118633D02*
X111466666Y-90685300D01*
X111466666Y-90685300D02*
X111500000Y-90751966D01*
X111500000Y-90751966D02*
X111533333Y-90785300D01*
X111533333Y-90785300D02*
X111600000Y-90818633D01*
X111600000Y-90818633D02*
X111733333Y-90818633D01*
X111733333Y-90818633D02*
X111800000Y-90785300D01*
X111800000Y-90785300D02*
X111833333Y-90751966D01*
X111833333Y-90751966D02*
X111866666Y-90685300D01*
X111866666Y-90685300D02*
X111866666Y-90118633D01*
X112533333Y-90118633D02*
X112199999Y-90118633D01*
X112199999Y-90118633D02*
X112166666Y-90451966D01*
X112166666Y-90451966D02*
X112199999Y-90418633D01*
X112199999Y-90418633D02*
X112266666Y-90385300D01*
X112266666Y-90385300D02*
X112433333Y-90385300D01*
X112433333Y-90385300D02*
X112499999Y-90418633D01*
X112499999Y-90418633D02*
X112533333Y-90451966D01*
X112533333Y-90451966D02*
X112566666Y-90518633D01*
X112566666Y-90518633D02*
X112566666Y-90685300D01*
X112566666Y-90685300D02*
X112533333Y-90751966D01*
X112533333Y-90751966D02*
X112499999Y-90785300D01*
X112499999Y-90785300D02*
X112433333Y-90818633D01*
X112433333Y-90818633D02*
X112266666Y-90818633D01*
X112266666Y-90818633D02*
X112199999Y-90785300D01*
X112199999Y-90785300D02*
X112166666Y-90751966D01*
D11*
X88756667Y-90618200D02*
X88670000Y-90494391D01*
X88608095Y-90618200D02*
X88608095Y-90358200D01*
X88608095Y-90358200D02*
X88707143Y-90358200D01*
X88707143Y-90358200D02*
X88731905Y-90370581D01*
X88731905Y-90370581D02*
X88744286Y-90382962D01*
X88744286Y-90382962D02*
X88756667Y-90407724D01*
X88756667Y-90407724D02*
X88756667Y-90444867D01*
X88756667Y-90444867D02*
X88744286Y-90469629D01*
X88744286Y-90469629D02*
X88731905Y-90482010D01*
X88731905Y-90482010D02*
X88707143Y-90494391D01*
X88707143Y-90494391D02*
X88608095Y-90494391D01*
X89004286Y-90618200D02*
X88855714Y-90618200D01*
X88930000Y-90618200D02*
X88930000Y-90358200D01*
X88930000Y-90358200D02*
X88905238Y-90395343D01*
X88905238Y-90395343D02*
X88880476Y-90420105D01*
X88880476Y-90420105D02*
X88855714Y-90432486D01*
X88108333Y-96539765D02*
X88096429Y-96551670D01*
X88096429Y-96551670D02*
X88060714Y-96563574D01*
X88060714Y-96563574D02*
X88036905Y-96563574D01*
X88036905Y-96563574D02*
X88001191Y-96551670D01*
X88001191Y-96551670D02*
X87977381Y-96527860D01*
X87977381Y-96527860D02*
X87965476Y-96504050D01*
X87965476Y-96504050D02*
X87953572Y-96456431D01*
X87953572Y-96456431D02*
X87953572Y-96420717D01*
X87953572Y-96420717D02*
X87965476Y-96373098D01*
X87965476Y-96373098D02*
X87977381Y-96349289D01*
X87977381Y-96349289D02*
X88001191Y-96325479D01*
X88001191Y-96325479D02*
X88036905Y-96313574D01*
X88036905Y-96313574D02*
X88060714Y-96313574D01*
X88060714Y-96313574D02*
X88096429Y-96325479D01*
X88096429Y-96325479D02*
X88108333Y-96337384D01*
X88322619Y-96396908D02*
X88322619Y-96563574D01*
X88263095Y-96301670D02*
X88203572Y-96480241D01*
X88203572Y-96480241D02*
X88358333Y-96480241D01*
X89332857Y-92618200D02*
X89246190Y-92494391D01*
X89184285Y-92618200D02*
X89184285Y-92358200D01*
X89184285Y-92358200D02*
X89283333Y-92358200D01*
X89283333Y-92358200D02*
X89308095Y-92370581D01*
X89308095Y-92370581D02*
X89320476Y-92382962D01*
X89320476Y-92382962D02*
X89332857Y-92407724D01*
X89332857Y-92407724D02*
X89332857Y-92444867D01*
X89332857Y-92444867D02*
X89320476Y-92469629D01*
X89320476Y-92469629D02*
X89308095Y-92482010D01*
X89308095Y-92482010D02*
X89283333Y-92494391D01*
X89283333Y-92494391D02*
X89184285Y-92494391D01*
X89580476Y-92618200D02*
X89431904Y-92618200D01*
X89506190Y-92618200D02*
X89506190Y-92358200D01*
X89506190Y-92358200D02*
X89481428Y-92395343D01*
X89481428Y-92395343D02*
X89456666Y-92420105D01*
X89456666Y-92420105D02*
X89431904Y-92432486D01*
X89679523Y-92382962D02*
X89691904Y-92370581D01*
X89691904Y-92370581D02*
X89716666Y-92358200D01*
X89716666Y-92358200D02*
X89778571Y-92358200D01*
X89778571Y-92358200D02*
X89803333Y-92370581D01*
X89803333Y-92370581D02*
X89815714Y-92382962D01*
X89815714Y-92382962D02*
X89828095Y-92407724D01*
X89828095Y-92407724D02*
X89828095Y-92432486D01*
X89828095Y-92432486D02*
X89815714Y-92469629D01*
X89815714Y-92469629D02*
X89667142Y-92618200D01*
X89667142Y-92618200D02*
X89828095Y-92618200D01*
X89332857Y-89868200D02*
X89246190Y-89744391D01*
X89184285Y-89868200D02*
X89184285Y-89608200D01*
X89184285Y-89608200D02*
X89283333Y-89608200D01*
X89283333Y-89608200D02*
X89308095Y-89620581D01*
X89308095Y-89620581D02*
X89320476Y-89632962D01*
X89320476Y-89632962D02*
X89332857Y-89657724D01*
X89332857Y-89657724D02*
X89332857Y-89694867D01*
X89332857Y-89694867D02*
X89320476Y-89719629D01*
X89320476Y-89719629D02*
X89308095Y-89732010D01*
X89308095Y-89732010D02*
X89283333Y-89744391D01*
X89283333Y-89744391D02*
X89184285Y-89744391D01*
X89580476Y-89868200D02*
X89431904Y-89868200D01*
X89506190Y-89868200D02*
X89506190Y-89608200D01*
X89506190Y-89608200D02*
X89481428Y-89645343D01*
X89481428Y-89645343D02*
X89456666Y-89670105D01*
X89456666Y-89670105D02*
X89431904Y-89682486D01*
X89667142Y-89608200D02*
X89828095Y-89608200D01*
X89828095Y-89608200D02*
X89741428Y-89707248D01*
X89741428Y-89707248D02*
X89778571Y-89707248D01*
X89778571Y-89707248D02*
X89803333Y-89719629D01*
X89803333Y-89719629D02*
X89815714Y-89732010D01*
X89815714Y-89732010D02*
X89828095Y-89756772D01*
X89828095Y-89756772D02*
X89828095Y-89818677D01*
X89828095Y-89818677D02*
X89815714Y-89843439D01*
X89815714Y-89843439D02*
X89803333Y-89855820D01*
X89803333Y-89855820D02*
X89778571Y-89868200D01*
X89778571Y-89868200D02*
X89704285Y-89868200D01*
X89704285Y-89868200D02*
X89679523Y-89855820D01*
X89679523Y-89855820D02*
X89667142Y-89843439D01*
D16*
X99666666Y-115454819D02*
X99666666Y-116169104D01*
X99666666Y-116169104D02*
X99619047Y-116311961D01*
X99619047Y-116311961D02*
X99523809Y-116407200D01*
X99523809Y-116407200D02*
X99380952Y-116454819D01*
X99380952Y-116454819D02*
X99285714Y-116454819D01*
X100666666Y-116454819D02*
X100095238Y-116454819D01*
X100380952Y-116454819D02*
X100380952Y-115454819D01*
X100380952Y-115454819D02*
X100285714Y-115597676D01*
X100285714Y-115597676D02*
X100190476Y-115692914D01*
X100190476Y-115692914D02*
X100095238Y-115740533D01*
D12*
X120143832Y-123757142D02*
X120162880Y-123776190D01*
X120162880Y-123776190D02*
X120181927Y-123833332D01*
X120181927Y-123833332D02*
X120181927Y-123871428D01*
X120181927Y-123871428D02*
X120162880Y-123928571D01*
X120162880Y-123928571D02*
X120124784Y-123966666D01*
X120124784Y-123966666D02*
X120086689Y-123985713D01*
X120086689Y-123985713D02*
X120010499Y-124004761D01*
X120010499Y-124004761D02*
X119953356Y-124004761D01*
X119953356Y-124004761D02*
X119877165Y-123985713D01*
X119877165Y-123985713D02*
X119839070Y-123966666D01*
X119839070Y-123966666D02*
X119800975Y-123928571D01*
X119800975Y-123928571D02*
X119781927Y-123871428D01*
X119781927Y-123871428D02*
X119781927Y-123833332D01*
X119781927Y-123833332D02*
X119800975Y-123776190D01*
X119800975Y-123776190D02*
X119820022Y-123757142D01*
X119820022Y-123604761D02*
X119800975Y-123585713D01*
X119800975Y-123585713D02*
X119781927Y-123547618D01*
X119781927Y-123547618D02*
X119781927Y-123452380D01*
X119781927Y-123452380D02*
X119800975Y-123414285D01*
X119800975Y-123414285D02*
X119820022Y-123395237D01*
X119820022Y-123395237D02*
X119858118Y-123376190D01*
X119858118Y-123376190D02*
X119896213Y-123376190D01*
X119896213Y-123376190D02*
X119953356Y-123395237D01*
X119953356Y-123395237D02*
X120181927Y-123623809D01*
X120181927Y-123623809D02*
X120181927Y-123376190D01*
X119781927Y-123242857D02*
X119781927Y-122995238D01*
X119781927Y-122995238D02*
X119934308Y-123128571D01*
X119934308Y-123128571D02*
X119934308Y-123071428D01*
X119934308Y-123071428D02*
X119953356Y-123033333D01*
X119953356Y-123033333D02*
X119972403Y-123014285D01*
X119972403Y-123014285D02*
X120010499Y-122995238D01*
X120010499Y-122995238D02*
X120105737Y-122995238D01*
X120105737Y-122995238D02*
X120143832Y-123014285D01*
X120143832Y-123014285D02*
X120162880Y-123033333D01*
X120162880Y-123033333D02*
X120181927Y-123071428D01*
X120181927Y-123071428D02*
X120181927Y-123185714D01*
X120181927Y-123185714D02*
X120162880Y-123223809D01*
X120162880Y-123223809D02*
X120143832Y-123242857D01*
D11*
X124918200Y-123367142D02*
X124794391Y-123453809D01*
X124918200Y-123515714D02*
X124658200Y-123515714D01*
X124658200Y-123515714D02*
X124658200Y-123416666D01*
X124658200Y-123416666D02*
X124670581Y-123391904D01*
X124670581Y-123391904D02*
X124682962Y-123379523D01*
X124682962Y-123379523D02*
X124707724Y-123367142D01*
X124707724Y-123367142D02*
X124744867Y-123367142D01*
X124744867Y-123367142D02*
X124769629Y-123379523D01*
X124769629Y-123379523D02*
X124782010Y-123391904D01*
X124782010Y-123391904D02*
X124794391Y-123416666D01*
X124794391Y-123416666D02*
X124794391Y-123515714D01*
X124682962Y-123268095D02*
X124670581Y-123255714D01*
X124670581Y-123255714D02*
X124658200Y-123230952D01*
X124658200Y-123230952D02*
X124658200Y-123169047D01*
X124658200Y-123169047D02*
X124670581Y-123144285D01*
X124670581Y-123144285D02*
X124682962Y-123131904D01*
X124682962Y-123131904D02*
X124707724Y-123119523D01*
X124707724Y-123119523D02*
X124732486Y-123119523D01*
X124732486Y-123119523D02*
X124769629Y-123131904D01*
X124769629Y-123131904D02*
X124918200Y-123280476D01*
X124918200Y-123280476D02*
X124918200Y-123119523D01*
X124658200Y-122958571D02*
X124658200Y-122933809D01*
X124658200Y-122933809D02*
X124670581Y-122909047D01*
X124670581Y-122909047D02*
X124682962Y-122896666D01*
X124682962Y-122896666D02*
X124707724Y-122884285D01*
X124707724Y-122884285D02*
X124757248Y-122871904D01*
X124757248Y-122871904D02*
X124819153Y-122871904D01*
X124819153Y-122871904D02*
X124868677Y-122884285D01*
X124868677Y-122884285D02*
X124893439Y-122896666D01*
X124893439Y-122896666D02*
X124905820Y-122909047D01*
X124905820Y-122909047D02*
X124918200Y-122933809D01*
X124918200Y-122933809D02*
X124918200Y-122958571D01*
X124918200Y-122958571D02*
X124905820Y-122983333D01*
X124905820Y-122983333D02*
X124893439Y-122995714D01*
X124893439Y-122995714D02*
X124868677Y-123008095D01*
X124868677Y-123008095D02*
X124819153Y-123020476D01*
X124819153Y-123020476D02*
X124757248Y-123020476D01*
X124757248Y-123020476D02*
X124707724Y-123008095D01*
X124707724Y-123008095D02*
X124682962Y-122995714D01*
X124682962Y-122995714D02*
X124670581Y-122983333D01*
X124670581Y-122983333D02*
X124658200Y-122958571D01*
X115582857Y-94118200D02*
X115496190Y-93994391D01*
X115434285Y-94118200D02*
X115434285Y-93858200D01*
X115434285Y-93858200D02*
X115533333Y-93858200D01*
X115533333Y-93858200D02*
X115558095Y-93870581D01*
X115558095Y-93870581D02*
X115570476Y-93882962D01*
X115570476Y-93882962D02*
X115582857Y-93907724D01*
X115582857Y-93907724D02*
X115582857Y-93944867D01*
X115582857Y-93944867D02*
X115570476Y-93969629D01*
X115570476Y-93969629D02*
X115558095Y-93982010D01*
X115558095Y-93982010D02*
X115533333Y-93994391D01*
X115533333Y-93994391D02*
X115434285Y-93994391D01*
X115681904Y-93882962D02*
X115694285Y-93870581D01*
X115694285Y-93870581D02*
X115719047Y-93858200D01*
X115719047Y-93858200D02*
X115780952Y-93858200D01*
X115780952Y-93858200D02*
X115805714Y-93870581D01*
X115805714Y-93870581D02*
X115818095Y-93882962D01*
X115818095Y-93882962D02*
X115830476Y-93907724D01*
X115830476Y-93907724D02*
X115830476Y-93932486D01*
X115830476Y-93932486D02*
X115818095Y-93969629D01*
X115818095Y-93969629D02*
X115669523Y-94118200D01*
X115669523Y-94118200D02*
X115830476Y-94118200D01*
X116053333Y-93944867D02*
X116053333Y-94118200D01*
X115991428Y-93845820D02*
X115929523Y-94031534D01*
X115929523Y-94031534D02*
X116090476Y-94031534D01*
X125918200Y-123367142D02*
X125794391Y-123453809D01*
X125918200Y-123515714D02*
X125658200Y-123515714D01*
X125658200Y-123515714D02*
X125658200Y-123416666D01*
X125658200Y-123416666D02*
X125670581Y-123391904D01*
X125670581Y-123391904D02*
X125682962Y-123379523D01*
X125682962Y-123379523D02*
X125707724Y-123367142D01*
X125707724Y-123367142D02*
X125744867Y-123367142D01*
X125744867Y-123367142D02*
X125769629Y-123379523D01*
X125769629Y-123379523D02*
X125782010Y-123391904D01*
X125782010Y-123391904D02*
X125794391Y-123416666D01*
X125794391Y-123416666D02*
X125794391Y-123515714D01*
X125918200Y-123119523D02*
X125918200Y-123268095D01*
X125918200Y-123193809D02*
X125658200Y-123193809D01*
X125658200Y-123193809D02*
X125695343Y-123218571D01*
X125695343Y-123218571D02*
X125720105Y-123243333D01*
X125720105Y-123243333D02*
X125732486Y-123268095D01*
X125918200Y-122995714D02*
X125918200Y-122946190D01*
X125918200Y-122946190D02*
X125905820Y-122921428D01*
X125905820Y-122921428D02*
X125893439Y-122909047D01*
X125893439Y-122909047D02*
X125856296Y-122884285D01*
X125856296Y-122884285D02*
X125806772Y-122871904D01*
X125806772Y-122871904D02*
X125707724Y-122871904D01*
X125707724Y-122871904D02*
X125682962Y-122884285D01*
X125682962Y-122884285D02*
X125670581Y-122896666D01*
X125670581Y-122896666D02*
X125658200Y-122921428D01*
X125658200Y-122921428D02*
X125658200Y-122970952D01*
X125658200Y-122970952D02*
X125670581Y-122995714D01*
X125670581Y-122995714D02*
X125682962Y-123008095D01*
X125682962Y-123008095D02*
X125707724Y-123020476D01*
X125707724Y-123020476D02*
X125769629Y-123020476D01*
X125769629Y-123020476D02*
X125794391Y-123008095D01*
X125794391Y-123008095D02*
X125806772Y-122995714D01*
X125806772Y-122995714D02*
X125819153Y-122970952D01*
X125819153Y-122970952D02*
X125819153Y-122921428D01*
X125819153Y-122921428D02*
X125806772Y-122896666D01*
X125806772Y-122896666D02*
X125794391Y-122884285D01*
X125794391Y-122884285D02*
X125769629Y-122871904D01*
D16*
X89699999Y-81739866D02*
X90366666Y-81739866D01*
X89566666Y-82139866D02*
X90033333Y-80739866D01*
X90033333Y-80739866D02*
X90499999Y-82139866D01*
X90966666Y-82139866D02*
X90966666Y-80739866D01*
X90966666Y-80739866D02*
X91766666Y-82139866D01*
X91766666Y-82139866D02*
X91766666Y-80739866D01*
X92233333Y-80739866D02*
X93033333Y-80739866D01*
X92633333Y-82139866D02*
X92633333Y-80739866D01*
X93500000Y-81406533D02*
X93966667Y-81406533D01*
X94166667Y-82139866D02*
X93500000Y-82139866D01*
X93500000Y-82139866D02*
X93500000Y-80739866D01*
X93500000Y-80739866D02*
X94166667Y-80739866D01*
X94766667Y-82139866D02*
X94766667Y-80739866D01*
X94766667Y-80739866D02*
X95566667Y-82139866D01*
X95566667Y-82139866D02*
X95566667Y-80739866D01*
X96233334Y-82139866D02*
X96233334Y-80739866D01*
X96233334Y-80739866D02*
X97033334Y-82139866D01*
X97033334Y-82139866D02*
X97033334Y-80739866D01*
X97633334Y-81739866D02*
X98300001Y-81739866D01*
X97500001Y-82139866D02*
X97966668Y-80739866D01*
X97966668Y-80739866D02*
X98433334Y-82139866D01*
D11*
X110339285Y-95339765D02*
X110327381Y-95351670D01*
X110327381Y-95351670D02*
X110291666Y-95363574D01*
X110291666Y-95363574D02*
X110267857Y-95363574D01*
X110267857Y-95363574D02*
X110232143Y-95351670D01*
X110232143Y-95351670D02*
X110208333Y-95327860D01*
X110208333Y-95327860D02*
X110196428Y-95304050D01*
X110196428Y-95304050D02*
X110184524Y-95256431D01*
X110184524Y-95256431D02*
X110184524Y-95220717D01*
X110184524Y-95220717D02*
X110196428Y-95173098D01*
X110196428Y-95173098D02*
X110208333Y-95149289D01*
X110208333Y-95149289D02*
X110232143Y-95125479D01*
X110232143Y-95125479D02*
X110267857Y-95113574D01*
X110267857Y-95113574D02*
X110291666Y-95113574D01*
X110291666Y-95113574D02*
X110327381Y-95125479D01*
X110327381Y-95125479D02*
X110339285Y-95137384D01*
X110577381Y-95363574D02*
X110434524Y-95363574D01*
X110505952Y-95363574D02*
X110505952Y-95113574D01*
X110505952Y-95113574D02*
X110482143Y-95149289D01*
X110482143Y-95149289D02*
X110458333Y-95173098D01*
X110458333Y-95173098D02*
X110434524Y-95185003D01*
X110803571Y-95113574D02*
X110684523Y-95113574D01*
X110684523Y-95113574D02*
X110672619Y-95232622D01*
X110672619Y-95232622D02*
X110684523Y-95220717D01*
X110684523Y-95220717D02*
X110708333Y-95208812D01*
X110708333Y-95208812D02*
X110767857Y-95208812D01*
X110767857Y-95208812D02*
X110791666Y-95220717D01*
X110791666Y-95220717D02*
X110803571Y-95232622D01*
X110803571Y-95232622D02*
X110815476Y-95256431D01*
X110815476Y-95256431D02*
X110815476Y-95315955D01*
X110815476Y-95315955D02*
X110803571Y-95339765D01*
X110803571Y-95339765D02*
X110791666Y-95351670D01*
X110791666Y-95351670D02*
X110767857Y-95363574D01*
X110767857Y-95363574D02*
X110708333Y-95363574D01*
X110708333Y-95363574D02*
X110684523Y-95351670D01*
X110684523Y-95351670D02*
X110672619Y-95339765D01*
X97158333Y-107489765D02*
X97146429Y-107501670D01*
X97146429Y-107501670D02*
X97110714Y-107513574D01*
X97110714Y-107513574D02*
X97086905Y-107513574D01*
X97086905Y-107513574D02*
X97051191Y-107501670D01*
X97051191Y-107501670D02*
X97027381Y-107477860D01*
X97027381Y-107477860D02*
X97015476Y-107454050D01*
X97015476Y-107454050D02*
X97003572Y-107406431D01*
X97003572Y-107406431D02*
X97003572Y-107370717D01*
X97003572Y-107370717D02*
X97015476Y-107323098D01*
X97015476Y-107323098D02*
X97027381Y-107299289D01*
X97027381Y-107299289D02*
X97051191Y-107275479D01*
X97051191Y-107275479D02*
X97086905Y-107263574D01*
X97086905Y-107263574D02*
X97110714Y-107263574D01*
X97110714Y-107263574D02*
X97146429Y-107275479D01*
X97146429Y-107275479D02*
X97158333Y-107287384D01*
X97241667Y-107263574D02*
X97408333Y-107263574D01*
X97408333Y-107263574D02*
X97301191Y-107513574D01*
D12*
X88733333Y-94393832D02*
X88714285Y-94412880D01*
X88714285Y-94412880D02*
X88657143Y-94431927D01*
X88657143Y-94431927D02*
X88619047Y-94431927D01*
X88619047Y-94431927D02*
X88561904Y-94412880D01*
X88561904Y-94412880D02*
X88523809Y-94374784D01*
X88523809Y-94374784D02*
X88504762Y-94336689D01*
X88504762Y-94336689D02*
X88485714Y-94260499D01*
X88485714Y-94260499D02*
X88485714Y-94203356D01*
X88485714Y-94203356D02*
X88504762Y-94127165D01*
X88504762Y-94127165D02*
X88523809Y-94089070D01*
X88523809Y-94089070D02*
X88561904Y-94050975D01*
X88561904Y-94050975D02*
X88619047Y-94031927D01*
X88619047Y-94031927D02*
X88657143Y-94031927D01*
X88657143Y-94031927D02*
X88714285Y-94050975D01*
X88714285Y-94050975D02*
X88733333Y-94070022D01*
X88866666Y-94031927D02*
X89114285Y-94031927D01*
X89114285Y-94031927D02*
X88980952Y-94184308D01*
X88980952Y-94184308D02*
X89038095Y-94184308D01*
X89038095Y-94184308D02*
X89076190Y-94203356D01*
X89076190Y-94203356D02*
X89095238Y-94222403D01*
X89095238Y-94222403D02*
X89114285Y-94260499D01*
X89114285Y-94260499D02*
X89114285Y-94355737D01*
X89114285Y-94355737D02*
X89095238Y-94393832D01*
X89095238Y-94393832D02*
X89076190Y-94412880D01*
X89076190Y-94412880D02*
X89038095Y-94431927D01*
X89038095Y-94431927D02*
X88923809Y-94431927D01*
X88923809Y-94431927D02*
X88885714Y-94412880D01*
X88885714Y-94412880D02*
X88866666Y-94393832D01*
D11*
X73782857Y-122318200D02*
X73696190Y-122194391D01*
X73634285Y-122318200D02*
X73634285Y-122058200D01*
X73634285Y-122058200D02*
X73733333Y-122058200D01*
X73733333Y-122058200D02*
X73758095Y-122070581D01*
X73758095Y-122070581D02*
X73770476Y-122082962D01*
X73770476Y-122082962D02*
X73782857Y-122107724D01*
X73782857Y-122107724D02*
X73782857Y-122144867D01*
X73782857Y-122144867D02*
X73770476Y-122169629D01*
X73770476Y-122169629D02*
X73758095Y-122182010D01*
X73758095Y-122182010D02*
X73733333Y-122194391D01*
X73733333Y-122194391D02*
X73634285Y-122194391D01*
X73881904Y-122082962D02*
X73894285Y-122070581D01*
X73894285Y-122070581D02*
X73919047Y-122058200D01*
X73919047Y-122058200D02*
X73980952Y-122058200D01*
X73980952Y-122058200D02*
X74005714Y-122070581D01*
X74005714Y-122070581D02*
X74018095Y-122082962D01*
X74018095Y-122082962D02*
X74030476Y-122107724D01*
X74030476Y-122107724D02*
X74030476Y-122132486D01*
X74030476Y-122132486D02*
X74018095Y-122169629D01*
X74018095Y-122169629D02*
X73869523Y-122318200D01*
X73869523Y-122318200D02*
X74030476Y-122318200D01*
X74278095Y-122318200D02*
X74129523Y-122318200D01*
X74203809Y-122318200D02*
X74203809Y-122058200D01*
X74203809Y-122058200D02*
X74179047Y-122095343D01*
X74179047Y-122095343D02*
X74154285Y-122120105D01*
X74154285Y-122120105D02*
X74129523Y-122132486D01*
X110368200Y-98043332D02*
X110244391Y-98129999D01*
X110368200Y-98191904D02*
X110108200Y-98191904D01*
X110108200Y-98191904D02*
X110108200Y-98092856D01*
X110108200Y-98092856D02*
X110120581Y-98068094D01*
X110120581Y-98068094D02*
X110132962Y-98055713D01*
X110132962Y-98055713D02*
X110157724Y-98043332D01*
X110157724Y-98043332D02*
X110194867Y-98043332D01*
X110194867Y-98043332D02*
X110219629Y-98055713D01*
X110219629Y-98055713D02*
X110232010Y-98068094D01*
X110232010Y-98068094D02*
X110244391Y-98092856D01*
X110244391Y-98092856D02*
X110244391Y-98191904D01*
X110368200Y-97919523D02*
X110368200Y-97869999D01*
X110368200Y-97869999D02*
X110355820Y-97845237D01*
X110355820Y-97845237D02*
X110343439Y-97832856D01*
X110343439Y-97832856D02*
X110306296Y-97808094D01*
X110306296Y-97808094D02*
X110256772Y-97795713D01*
X110256772Y-97795713D02*
X110157724Y-97795713D01*
X110157724Y-97795713D02*
X110132962Y-97808094D01*
X110132962Y-97808094D02*
X110120581Y-97820475D01*
X110120581Y-97820475D02*
X110108200Y-97845237D01*
X110108200Y-97845237D02*
X110108200Y-97894761D01*
X110108200Y-97894761D02*
X110120581Y-97919523D01*
X110120581Y-97919523D02*
X110132962Y-97931904D01*
X110132962Y-97931904D02*
X110157724Y-97944285D01*
X110157724Y-97944285D02*
X110219629Y-97944285D01*
X110219629Y-97944285D02*
X110244391Y-97931904D01*
X110244391Y-97931904D02*
X110256772Y-97919523D01*
X110256772Y-97919523D02*
X110269153Y-97894761D01*
X110269153Y-97894761D02*
X110269153Y-97845237D01*
X110269153Y-97845237D02*
X110256772Y-97820475D01*
X110256772Y-97820475D02*
X110244391Y-97808094D01*
X110244391Y-97808094D02*
X110219629Y-97795713D01*
D12*
X123492857Y-72893832D02*
X123473809Y-72912880D01*
X123473809Y-72912880D02*
X123416667Y-72931927D01*
X123416667Y-72931927D02*
X123378571Y-72931927D01*
X123378571Y-72931927D02*
X123321428Y-72912880D01*
X123321428Y-72912880D02*
X123283333Y-72874784D01*
X123283333Y-72874784D02*
X123264286Y-72836689D01*
X123264286Y-72836689D02*
X123245238Y-72760499D01*
X123245238Y-72760499D02*
X123245238Y-72703356D01*
X123245238Y-72703356D02*
X123264286Y-72627165D01*
X123264286Y-72627165D02*
X123283333Y-72589070D01*
X123283333Y-72589070D02*
X123321428Y-72550975D01*
X123321428Y-72550975D02*
X123378571Y-72531927D01*
X123378571Y-72531927D02*
X123416667Y-72531927D01*
X123416667Y-72531927D02*
X123473809Y-72550975D01*
X123473809Y-72550975D02*
X123492857Y-72570022D01*
X123645238Y-72570022D02*
X123664286Y-72550975D01*
X123664286Y-72550975D02*
X123702381Y-72531927D01*
X123702381Y-72531927D02*
X123797619Y-72531927D01*
X123797619Y-72531927D02*
X123835714Y-72550975D01*
X123835714Y-72550975D02*
X123854762Y-72570022D01*
X123854762Y-72570022D02*
X123873809Y-72608118D01*
X123873809Y-72608118D02*
X123873809Y-72646213D01*
X123873809Y-72646213D02*
X123854762Y-72703356D01*
X123854762Y-72703356D02*
X123626190Y-72931927D01*
X123626190Y-72931927D02*
X123873809Y-72931927D01*
X124026190Y-72570022D02*
X124045238Y-72550975D01*
X124045238Y-72550975D02*
X124083333Y-72531927D01*
X124083333Y-72531927D02*
X124178571Y-72531927D01*
X124178571Y-72531927D02*
X124216666Y-72550975D01*
X124216666Y-72550975D02*
X124235714Y-72570022D01*
X124235714Y-72570022D02*
X124254761Y-72608118D01*
X124254761Y-72608118D02*
X124254761Y-72646213D01*
X124254761Y-72646213D02*
X124235714Y-72703356D01*
X124235714Y-72703356D02*
X124007142Y-72931927D01*
X124007142Y-72931927D02*
X124254761Y-72931927D01*
D11*
X103256667Y-105818200D02*
X103170000Y-105694391D01*
X103108095Y-105818200D02*
X103108095Y-105558200D01*
X103108095Y-105558200D02*
X103207143Y-105558200D01*
X103207143Y-105558200D02*
X103231905Y-105570581D01*
X103231905Y-105570581D02*
X103244286Y-105582962D01*
X103244286Y-105582962D02*
X103256667Y-105607724D01*
X103256667Y-105607724D02*
X103256667Y-105644867D01*
X103256667Y-105644867D02*
X103244286Y-105669629D01*
X103244286Y-105669629D02*
X103231905Y-105682010D01*
X103231905Y-105682010D02*
X103207143Y-105694391D01*
X103207143Y-105694391D02*
X103108095Y-105694391D01*
X103491905Y-105558200D02*
X103368095Y-105558200D01*
X103368095Y-105558200D02*
X103355714Y-105682010D01*
X103355714Y-105682010D02*
X103368095Y-105669629D01*
X103368095Y-105669629D02*
X103392857Y-105657248D01*
X103392857Y-105657248D02*
X103454762Y-105657248D01*
X103454762Y-105657248D02*
X103479524Y-105669629D01*
X103479524Y-105669629D02*
X103491905Y-105682010D01*
X103491905Y-105682010D02*
X103504286Y-105706772D01*
X103504286Y-105706772D02*
X103504286Y-105768677D01*
X103504286Y-105768677D02*
X103491905Y-105793439D01*
X103491905Y-105793439D02*
X103479524Y-105805820D01*
X103479524Y-105805820D02*
X103454762Y-105818200D01*
X103454762Y-105818200D02*
X103392857Y-105818200D01*
X103392857Y-105818200D02*
X103368095Y-105805820D01*
X103368095Y-105805820D02*
X103355714Y-105793439D01*
X104456667Y-104668200D02*
X104370000Y-104544391D01*
X104308095Y-104668200D02*
X104308095Y-104408200D01*
X104308095Y-104408200D02*
X104407143Y-104408200D01*
X104407143Y-104408200D02*
X104431905Y-104420581D01*
X104431905Y-104420581D02*
X104444286Y-104432962D01*
X104444286Y-104432962D02*
X104456667Y-104457724D01*
X104456667Y-104457724D02*
X104456667Y-104494867D01*
X104456667Y-104494867D02*
X104444286Y-104519629D01*
X104444286Y-104519629D02*
X104431905Y-104532010D01*
X104431905Y-104532010D02*
X104407143Y-104544391D01*
X104407143Y-104544391D02*
X104308095Y-104544391D01*
X104679524Y-104408200D02*
X104630000Y-104408200D01*
X104630000Y-104408200D02*
X104605238Y-104420581D01*
X104605238Y-104420581D02*
X104592857Y-104432962D01*
X104592857Y-104432962D02*
X104568095Y-104470105D01*
X104568095Y-104470105D02*
X104555714Y-104519629D01*
X104555714Y-104519629D02*
X104555714Y-104618677D01*
X104555714Y-104618677D02*
X104568095Y-104643439D01*
X104568095Y-104643439D02*
X104580476Y-104655820D01*
X104580476Y-104655820D02*
X104605238Y-104668200D01*
X104605238Y-104668200D02*
X104654762Y-104668200D01*
X104654762Y-104668200D02*
X104679524Y-104655820D01*
X104679524Y-104655820D02*
X104691905Y-104643439D01*
X104691905Y-104643439D02*
X104704286Y-104618677D01*
X104704286Y-104618677D02*
X104704286Y-104556772D01*
X104704286Y-104556772D02*
X104691905Y-104532010D01*
X104691905Y-104532010D02*
X104679524Y-104519629D01*
X104679524Y-104519629D02*
X104654762Y-104507248D01*
X104654762Y-104507248D02*
X104605238Y-104507248D01*
X104605238Y-104507248D02*
X104580476Y-104519629D01*
X104580476Y-104519629D02*
X104568095Y-104532010D01*
X104568095Y-104532010D02*
X104555714Y-104556772D01*
X76032857Y-124818200D02*
X75946190Y-124694391D01*
X75884285Y-124818200D02*
X75884285Y-124558200D01*
X75884285Y-124558200D02*
X75983333Y-124558200D01*
X75983333Y-124558200D02*
X76008095Y-124570581D01*
X76008095Y-124570581D02*
X76020476Y-124582962D01*
X76020476Y-124582962D02*
X76032857Y-124607724D01*
X76032857Y-124607724D02*
X76032857Y-124644867D01*
X76032857Y-124644867D02*
X76020476Y-124669629D01*
X76020476Y-124669629D02*
X76008095Y-124682010D01*
X76008095Y-124682010D02*
X75983333Y-124694391D01*
X75983333Y-124694391D02*
X75884285Y-124694391D01*
X76131904Y-124582962D02*
X76144285Y-124570581D01*
X76144285Y-124570581D02*
X76169047Y-124558200D01*
X76169047Y-124558200D02*
X76230952Y-124558200D01*
X76230952Y-124558200D02*
X76255714Y-124570581D01*
X76255714Y-124570581D02*
X76268095Y-124582962D01*
X76268095Y-124582962D02*
X76280476Y-124607724D01*
X76280476Y-124607724D02*
X76280476Y-124632486D01*
X76280476Y-124632486D02*
X76268095Y-124669629D01*
X76268095Y-124669629D02*
X76119523Y-124818200D01*
X76119523Y-124818200D02*
X76280476Y-124818200D01*
X76379523Y-124582962D02*
X76391904Y-124570581D01*
X76391904Y-124570581D02*
X76416666Y-124558200D01*
X76416666Y-124558200D02*
X76478571Y-124558200D01*
X76478571Y-124558200D02*
X76503333Y-124570581D01*
X76503333Y-124570581D02*
X76515714Y-124582962D01*
X76515714Y-124582962D02*
X76528095Y-124607724D01*
X76528095Y-124607724D02*
X76528095Y-124632486D01*
X76528095Y-124632486D02*
X76515714Y-124669629D01*
X76515714Y-124669629D02*
X76367142Y-124818200D01*
X76367142Y-124818200D02*
X76528095Y-124818200D01*
X105956667Y-113118200D02*
X105870000Y-112994391D01*
X105808095Y-113118200D02*
X105808095Y-112858200D01*
X105808095Y-112858200D02*
X105907143Y-112858200D01*
X105907143Y-112858200D02*
X105931905Y-112870581D01*
X105931905Y-112870581D02*
X105944286Y-112882962D01*
X105944286Y-112882962D02*
X105956667Y-112907724D01*
X105956667Y-112907724D02*
X105956667Y-112944867D01*
X105956667Y-112944867D02*
X105944286Y-112969629D01*
X105944286Y-112969629D02*
X105931905Y-112982010D01*
X105931905Y-112982010D02*
X105907143Y-112994391D01*
X105907143Y-112994391D02*
X105808095Y-112994391D01*
X106105238Y-112969629D02*
X106080476Y-112957248D01*
X106080476Y-112957248D02*
X106068095Y-112944867D01*
X106068095Y-112944867D02*
X106055714Y-112920105D01*
X106055714Y-112920105D02*
X106055714Y-112907724D01*
X106055714Y-112907724D02*
X106068095Y-112882962D01*
X106068095Y-112882962D02*
X106080476Y-112870581D01*
X106080476Y-112870581D02*
X106105238Y-112858200D01*
X106105238Y-112858200D02*
X106154762Y-112858200D01*
X106154762Y-112858200D02*
X106179524Y-112870581D01*
X106179524Y-112870581D02*
X106191905Y-112882962D01*
X106191905Y-112882962D02*
X106204286Y-112907724D01*
X106204286Y-112907724D02*
X106204286Y-112920105D01*
X106204286Y-112920105D02*
X106191905Y-112944867D01*
X106191905Y-112944867D02*
X106179524Y-112957248D01*
X106179524Y-112957248D02*
X106154762Y-112969629D01*
X106154762Y-112969629D02*
X106105238Y-112969629D01*
X106105238Y-112969629D02*
X106080476Y-112982010D01*
X106080476Y-112982010D02*
X106068095Y-112994391D01*
X106068095Y-112994391D02*
X106055714Y-113019153D01*
X106055714Y-113019153D02*
X106055714Y-113068677D01*
X106055714Y-113068677D02*
X106068095Y-113093439D01*
X106068095Y-113093439D02*
X106080476Y-113105820D01*
X106080476Y-113105820D02*
X106105238Y-113118200D01*
X106105238Y-113118200D02*
X106154762Y-113118200D01*
X106154762Y-113118200D02*
X106179524Y-113105820D01*
X106179524Y-113105820D02*
X106191905Y-113093439D01*
X106191905Y-113093439D02*
X106204286Y-113068677D01*
X106204286Y-113068677D02*
X106204286Y-113019153D01*
X106204286Y-113019153D02*
X106191905Y-112994391D01*
X106191905Y-112994391D02*
X106179524Y-112982010D01*
X106179524Y-112982010D02*
X106154762Y-112969629D01*
X102758333Y-107289765D02*
X102746429Y-107301670D01*
X102746429Y-107301670D02*
X102710714Y-107313574D01*
X102710714Y-107313574D02*
X102686905Y-107313574D01*
X102686905Y-107313574D02*
X102651191Y-107301670D01*
X102651191Y-107301670D02*
X102627381Y-107277860D01*
X102627381Y-107277860D02*
X102615476Y-107254050D01*
X102615476Y-107254050D02*
X102603572Y-107206431D01*
X102603572Y-107206431D02*
X102603572Y-107170717D01*
X102603572Y-107170717D02*
X102615476Y-107123098D01*
X102615476Y-107123098D02*
X102627381Y-107099289D01*
X102627381Y-107099289D02*
X102651191Y-107075479D01*
X102651191Y-107075479D02*
X102686905Y-107063574D01*
X102686905Y-107063574D02*
X102710714Y-107063574D01*
X102710714Y-107063574D02*
X102746429Y-107075479D01*
X102746429Y-107075479D02*
X102758333Y-107087384D01*
X102984524Y-107063574D02*
X102865476Y-107063574D01*
X102865476Y-107063574D02*
X102853572Y-107182622D01*
X102853572Y-107182622D02*
X102865476Y-107170717D01*
X102865476Y-107170717D02*
X102889286Y-107158812D01*
X102889286Y-107158812D02*
X102948810Y-107158812D01*
X102948810Y-107158812D02*
X102972619Y-107170717D01*
X102972619Y-107170717D02*
X102984524Y-107182622D01*
X102984524Y-107182622D02*
X102996429Y-107206431D01*
X102996429Y-107206431D02*
X102996429Y-107265955D01*
X102996429Y-107265955D02*
X102984524Y-107289765D01*
X102984524Y-107289765D02*
X102972619Y-107301670D01*
X102972619Y-107301670D02*
X102948810Y-107313574D01*
X102948810Y-107313574D02*
X102889286Y-107313574D01*
X102889286Y-107313574D02*
X102865476Y-107301670D01*
X102865476Y-107301670D02*
X102853572Y-107289765D01*
D16*
X111916666Y-106504819D02*
X111916666Y-107219104D01*
X111916666Y-107219104D02*
X111869047Y-107361961D01*
X111869047Y-107361961D02*
X111773809Y-107457200D01*
X111773809Y-107457200D02*
X111630952Y-107504819D01*
X111630952Y-107504819D02*
X111535714Y-107504819D01*
X112345238Y-106600057D02*
X112392857Y-106552438D01*
X112392857Y-106552438D02*
X112488095Y-106504819D01*
X112488095Y-106504819D02*
X112726190Y-106504819D01*
X112726190Y-106504819D02*
X112821428Y-106552438D01*
X112821428Y-106552438D02*
X112869047Y-106600057D01*
X112869047Y-106600057D02*
X112916666Y-106695295D01*
X112916666Y-106695295D02*
X112916666Y-106790533D01*
X112916666Y-106790533D02*
X112869047Y-106933390D01*
X112869047Y-106933390D02*
X112297619Y-107504819D01*
X112297619Y-107504819D02*
X112916666Y-107504819D01*
D11*
X110368200Y-100667142D02*
X110244391Y-100753809D01*
X110368200Y-100815714D02*
X110108200Y-100815714D01*
X110108200Y-100815714D02*
X110108200Y-100716666D01*
X110108200Y-100716666D02*
X110120581Y-100691904D01*
X110120581Y-100691904D02*
X110132962Y-100679523D01*
X110132962Y-100679523D02*
X110157724Y-100667142D01*
X110157724Y-100667142D02*
X110194867Y-100667142D01*
X110194867Y-100667142D02*
X110219629Y-100679523D01*
X110219629Y-100679523D02*
X110232010Y-100691904D01*
X110232010Y-100691904D02*
X110244391Y-100716666D01*
X110244391Y-100716666D02*
X110244391Y-100815714D01*
X110368200Y-100419523D02*
X110368200Y-100568095D01*
X110368200Y-100493809D02*
X110108200Y-100493809D01*
X110108200Y-100493809D02*
X110145343Y-100518571D01*
X110145343Y-100518571D02*
X110170105Y-100543333D01*
X110170105Y-100543333D02*
X110182486Y-100568095D01*
X110108200Y-100258571D02*
X110108200Y-100233809D01*
X110108200Y-100233809D02*
X110120581Y-100209047D01*
X110120581Y-100209047D02*
X110132962Y-100196666D01*
X110132962Y-100196666D02*
X110157724Y-100184285D01*
X110157724Y-100184285D02*
X110207248Y-100171904D01*
X110207248Y-100171904D02*
X110269153Y-100171904D01*
X110269153Y-100171904D02*
X110318677Y-100184285D01*
X110318677Y-100184285D02*
X110343439Y-100196666D01*
X110343439Y-100196666D02*
X110355820Y-100209047D01*
X110355820Y-100209047D02*
X110368200Y-100233809D01*
X110368200Y-100233809D02*
X110368200Y-100258571D01*
X110368200Y-100258571D02*
X110355820Y-100283333D01*
X110355820Y-100283333D02*
X110343439Y-100295714D01*
X110343439Y-100295714D02*
X110318677Y-100308095D01*
X110318677Y-100308095D02*
X110269153Y-100320476D01*
X110269153Y-100320476D02*
X110207248Y-100320476D01*
X110207248Y-100320476D02*
X110157724Y-100308095D01*
X110157724Y-100308095D02*
X110132962Y-100295714D01*
X110132962Y-100295714D02*
X110120581Y-100283333D01*
X110120581Y-100283333D02*
X110108200Y-100258571D01*
%TO.C,C17*%
D15*
X85000000Y-92625000D02*
X87000000Y-92625000D01*
X87000000Y-93875000D01*
X85000000Y-93875000D01*
X85000000Y-92625000D01*
%TO.C,R15*%
X74430000Y-76275000D02*
X74970000Y-76275000D01*
X74970000Y-77325000D01*
X74430000Y-77325000D01*
X74430000Y-76275000D01*
%TO.C,C11*%
X105950000Y-113850000D02*
X107550000Y-113850000D01*
X107550000Y-114650000D01*
X105950000Y-114650000D01*
X105950000Y-113850000D01*
%TO.C,R17*%
X122525000Y-76280000D02*
X123575000Y-76280000D01*
X123575000Y-76820000D01*
X122525000Y-76820000D01*
X122525000Y-76280000D01*
%TO.C,R18*%
X122525000Y-75280000D02*
X123575000Y-75280000D01*
X123575000Y-75820000D01*
X122525000Y-75820000D01*
X122525000Y-75280000D01*
%TO.C,Q2*%
D17*
X124127600Y-74539600D02*
X126972400Y-74539600D01*
X124127600Y-75860400D02*
X124127600Y-74539600D01*
X126972400Y-74539600D02*
X126972400Y-75860400D01*
X126972400Y-75860400D02*
X124127600Y-75860400D01*
D18*
X124381600Y-75911200D02*
X124838800Y-75911200D01*
X124838800Y-76495400D01*
X124381600Y-76495400D01*
X124381600Y-75911200D01*
G36*
X124838800Y-76495400D02*
G01*
X124381600Y-76495400D01*
X124381600Y-75911200D01*
X124838800Y-75911200D01*
X124838800Y-76495400D01*
G37*
X125321400Y-73904600D02*
X125778600Y-73904600D01*
X125778600Y-74488800D01*
X125321400Y-74488800D01*
X125321400Y-73904600D01*
G36*
X125778600Y-74488800D02*
G01*
X125321400Y-74488800D01*
X125321400Y-73904600D01*
X125778600Y-73904600D01*
X125778600Y-74488800D01*
G37*
X126261200Y-75911200D02*
X126718400Y-75911200D01*
X126718400Y-76495400D01*
X126261200Y-76495400D01*
X126261200Y-75911200D01*
G36*
X126718400Y-76495400D02*
G01*
X126261200Y-76495400D01*
X126261200Y-75911200D01*
X126718400Y-75911200D01*
X126718400Y-76495400D01*
G37*
%TO.C,R7*%
D15*
X93475000Y-115480000D02*
X94525000Y-115480000D01*
X94525000Y-116020000D01*
X93475000Y-116020000D01*
X93475000Y-115480000D01*
%TO.C,U6*%
X86400000Y-91950000D02*
X85200000Y-91950000D01*
X85200000Y-89050000D01*
X86800000Y-89050000D01*
X86800000Y-91550000D01*
X86400000Y-91950000D01*
%TO.C,Q6*%
D19*
X112850000Y-100300000D02*
X112850000Y-103200000D01*
X112850000Y-103200000D02*
X114150000Y-103200000D01*
X114150000Y-100300000D02*
X112850000Y-100300000D01*
X114150000Y-103200000D02*
X114150000Y-100300000D01*
D20*
X111240000Y-100800000D02*
G75*
G02*
X111040000Y-100800000I-100000J0D01*
G01*
X111040000Y-100800000D02*
G75*
G02*
X111240000Y-100800000I100000J0D01*
G01*
%TO.C,R2*%
D15*
X110225000Y-101730000D02*
X111275000Y-101730000D01*
X111275000Y-102270000D01*
X110225000Y-102270000D01*
X110225000Y-101730000D01*
%TO.C,C24*%
X75450000Y-126850000D02*
X77050000Y-126850000D01*
X77050000Y-127650000D01*
X75450000Y-127650000D01*
X75450000Y-126850000D01*
%TO.C,C21*%
X74350000Y-70450000D02*
X75150000Y-70450000D01*
X75150000Y-72050000D01*
X74350000Y-72050000D01*
X74350000Y-70450000D01*
%TO.C,U2*%
D19*
X98500000Y-108500000D02*
X98500000Y-105500000D01*
X101500000Y-105500000D02*
X98500000Y-105500000D01*
X101500000Y-108500000D02*
X98500000Y-108500000D01*
X101500000Y-108500000D02*
X101500000Y-105500000D01*
D20*
X97715000Y-106000000D02*
G75*
G02*
X97515000Y-106000000I-100000J0D01*
G01*
X97515000Y-106000000D02*
G75*
G02*
X97715000Y-106000000I100000J0D01*
G01*
%TO.C,C9*%
D15*
X89000000Y-95750000D02*
X90000000Y-95750000D01*
X90000000Y-96250000D01*
X89000000Y-96250000D01*
X89000000Y-95750000D01*
%TO.C,R4*%
X87875000Y-95130000D02*
X88925000Y-95130000D01*
X88925000Y-95670000D01*
X87875000Y-95670000D01*
X87875000Y-95130000D01*
%TO.C,R23*%
X115225000Y-91730000D02*
X116275000Y-91730000D01*
X116275000Y-92270000D01*
X115225000Y-92270000D01*
X115225000Y-91730000D01*
%TO.C,R16*%
X75430000Y-76525000D02*
X75970000Y-76525000D01*
X75970000Y-77575000D01*
X75430000Y-77575000D01*
X75430000Y-76525000D01*
%TO.C,C19*%
X109600000Y-114900000D02*
X112800000Y-114900000D01*
X112800000Y-116500000D01*
X109600000Y-116500000D01*
X109600000Y-114900000D01*
%TO.C,C18*%
X107250000Y-106550000D02*
X108250000Y-106550000D01*
X108250000Y-107050000D01*
X107250000Y-107050000D01*
X107250000Y-106550000D01*
%TO.C,Q1*%
D17*
X74539600Y-73027600D02*
X75860400Y-73027600D01*
X74539600Y-75872400D02*
X74539600Y-73027600D01*
X75860400Y-73027600D02*
X75860400Y-75872400D01*
X75860400Y-75872400D02*
X74539600Y-75872400D01*
D18*
X73904600Y-74678600D02*
X73904600Y-74221400D01*
X74488800Y-74221400D01*
X74488800Y-74678600D01*
X73904600Y-74678600D01*
G36*
X74488800Y-74678600D02*
G01*
X73904600Y-74678600D01*
X73904600Y-74221400D01*
X74488800Y-74221400D01*
X74488800Y-74678600D01*
G37*
X75911200Y-73738800D02*
X75911200Y-73281600D01*
X76495400Y-73281600D01*
X76495400Y-73738800D01*
X75911200Y-73738800D01*
G36*
X76495400Y-73738800D02*
G01*
X75911200Y-73738800D01*
X75911200Y-73281600D01*
X76495400Y-73281600D01*
X76495400Y-73738800D01*
G37*
X75911200Y-75618400D02*
X75911200Y-75161200D01*
X76495400Y-75161200D01*
X76495400Y-75618400D01*
X75911200Y-75618400D01*
G36*
X76495400Y-75618400D02*
G01*
X75911200Y-75618400D01*
X75911200Y-75161200D01*
X76495400Y-75161200D01*
X76495400Y-75618400D01*
G37*
%TO.C,C2*%
D15*
X88200000Y-85150000D02*
X89200000Y-85150000D01*
X89200000Y-85650000D01*
X88200000Y-85650000D01*
X88200000Y-85150000D01*
%TO.C,R11*%
X109975000Y-92480000D02*
X111025000Y-92480000D01*
X111025000Y-93020000D01*
X109975000Y-93020000D01*
X109975000Y-92480000D01*
%TO.C,U4*%
X104100000Y-107800000D02*
X105300000Y-107800000D01*
X105300000Y-110700000D01*
X103700000Y-110700000D01*
X103700000Y-108200000D01*
X104100000Y-107800000D01*
%TO.C,C12*%
X111000000Y-93375000D02*
X113000000Y-93375000D01*
X113000000Y-94625000D01*
X111000000Y-94625000D01*
X111000000Y-93375000D01*
%TO.C,C8*%
X96700000Y-104250000D02*
X97700000Y-104250000D01*
X97700000Y-104750000D01*
X96700000Y-104750000D01*
X96700000Y-104250000D01*
%TO.C,R3*%
X87875000Y-92830000D02*
X88925000Y-92830000D01*
X88925000Y-93370000D01*
X87875000Y-93370000D01*
X87875000Y-92830000D01*
%TO.C,C1*%
X87500000Y-86575000D02*
X89500000Y-86575000D01*
X89500000Y-87825000D01*
X87500000Y-87825000D01*
X87500000Y-86575000D01*
%TO.C,C13*%
X110500000Y-86375000D02*
X112500000Y-86375000D01*
X112500000Y-87625000D01*
X110500000Y-87625000D01*
X110500000Y-86375000D01*
%TO.C,C6*%
X96700000Y-105750000D02*
X97700000Y-105750000D01*
X97700000Y-106250000D01*
X96700000Y-106250000D01*
X96700000Y-105750000D01*
%TO.C,U5*%
X110500000Y-89700000D02*
X110500000Y-92000000D01*
X110500000Y-89700000D02*
X111200000Y-89000000D01*
X110500000Y-92000000D02*
X113500000Y-92000000D01*
X111200000Y-89000000D02*
X113500000Y-89000000D01*
X113500000Y-89000000D02*
X113500000Y-92000000D01*
%TO.C,D6*%
D19*
X87220000Y-98085000D02*
X87220000Y-102415000D01*
X87220000Y-102415000D02*
X89780000Y-102415000D01*
X89780000Y-98085000D02*
X87220000Y-98085000D01*
X89780000Y-102415000D02*
X89780000Y-98085000D01*
D20*
X88600000Y-104250000D02*
G75*
G02*
X88400000Y-104250000I-100000J0D01*
G01*
X88400000Y-104250000D02*
G75*
G02*
X88600000Y-104250000I100000J0D01*
G01*
%TO.C,R1*%
D15*
X88275000Y-90230000D02*
X89325000Y-90230000D01*
X89325000Y-90770000D01*
X88275000Y-90770000D01*
X88275000Y-90230000D01*
%TO.C,Q4*%
D17*
X72277600Y-123889600D02*
X75122400Y-123889600D01*
X72277600Y-125210400D02*
X72277600Y-123889600D01*
X75122400Y-123889600D02*
X75122400Y-125210400D01*
X75122400Y-125210400D02*
X72277600Y-125210400D01*
D18*
X72531600Y-125261200D02*
X72988800Y-125261200D01*
X72988800Y-125845400D01*
X72531600Y-125845400D01*
X72531600Y-125261200D01*
G36*
X72988800Y-125845400D02*
G01*
X72531600Y-125845400D01*
X72531600Y-125261200D01*
X72988800Y-125261200D01*
X72988800Y-125845400D01*
G37*
X73471400Y-123254600D02*
X73928600Y-123254600D01*
X73928600Y-123838800D01*
X73471400Y-123838800D01*
X73471400Y-123254600D01*
G36*
X73928600Y-123838800D02*
G01*
X73471400Y-123838800D01*
X73471400Y-123254600D01*
X73928600Y-123254600D01*
X73928600Y-123838800D01*
G37*
X74411200Y-125261200D02*
X74868400Y-125261200D01*
X74868400Y-125845400D01*
X74411200Y-125845400D01*
X74411200Y-125261200D01*
G36*
X74868400Y-125845400D02*
G01*
X74411200Y-125845400D01*
X74411200Y-125261200D01*
X74868400Y-125261200D01*
X74868400Y-125845400D01*
G37*
%TO.C,C4*%
D15*
X87650000Y-96200000D02*
X88650000Y-96200000D01*
X88650000Y-96700000D01*
X87650000Y-96700000D01*
X87650000Y-96200000D01*
%TO.C,R12*%
X88975000Y-92230000D02*
X90025000Y-92230000D01*
X90025000Y-92770000D01*
X88975000Y-92770000D01*
X88975000Y-92230000D01*
%TO.C,Q3*%
D17*
X123889600Y-124877600D02*
X125210400Y-124877600D01*
X123889600Y-127722400D02*
X123889600Y-124877600D01*
X125210400Y-124877600D02*
X125210400Y-127722400D01*
X125210400Y-127722400D02*
X123889600Y-127722400D01*
D18*
X123254600Y-126528600D02*
X123254600Y-126071400D01*
X123838800Y-126071400D01*
X123838800Y-126528600D01*
X123254600Y-126528600D01*
G36*
X123838800Y-126528600D02*
G01*
X123254600Y-126528600D01*
X123254600Y-126071400D01*
X123838800Y-126071400D01*
X123838800Y-126528600D01*
G37*
X125261200Y-125588800D02*
X125261200Y-125131600D01*
X125845400Y-125131600D01*
X125845400Y-125588800D01*
X125261200Y-125588800D01*
G36*
X125845400Y-125588800D02*
G01*
X125261200Y-125588800D01*
X125261200Y-125131600D01*
X125845400Y-125131600D01*
X125845400Y-125588800D01*
G37*
X125261200Y-127468400D02*
X125261200Y-127011200D01*
X125845400Y-127011200D01*
X125845400Y-127468400D01*
X125261200Y-127468400D01*
G36*
X125845400Y-127468400D02*
G01*
X125261200Y-127468400D01*
X125261200Y-127011200D01*
X125845400Y-127011200D01*
X125845400Y-127468400D01*
G37*
%TO.C,R13*%
D15*
X88975000Y-89480000D02*
X90025000Y-89480000D01*
X90025000Y-90020000D01*
X88975000Y-90020000D01*
X88975000Y-89480000D01*
%TO.C,D5*%
D19*
X91220000Y-109835000D02*
X91220000Y-114165000D01*
X91220000Y-114165000D02*
X93780000Y-114165000D01*
X93780000Y-109835000D02*
X91220000Y-109835000D01*
X93780000Y-114165000D02*
X93780000Y-109835000D01*
D20*
X92600000Y-116000000D02*
G75*
G02*
X92400000Y-116000000I-100000J0D01*
G01*
X92400000Y-116000000D02*
G75*
G02*
X92600000Y-116000000I100000J0D01*
G01*
%TO.C,J1*%
D15*
X95530000Y-112325000D02*
X104470000Y-112325000D01*
X104470000Y-119675000D01*
X95530000Y-119675000D01*
X95530000Y-112325000D01*
%TO.C,C23*%
X119600000Y-122700000D02*
X120400000Y-122700000D01*
X120400000Y-124300000D01*
X119600000Y-124300000D01*
X119600000Y-122700000D01*
%TO.C,R20*%
X124530000Y-122675000D02*
X125070000Y-122675000D01*
X125070000Y-123725000D01*
X124530000Y-123725000D01*
X124530000Y-122675000D01*
%TO.C,R24*%
X115225000Y-93730000D02*
X116275000Y-93730000D01*
X116275000Y-94270000D01*
X115225000Y-94270000D01*
X115225000Y-93730000D01*
%TO.C,U3*%
D19*
X85050000Y-104250000D02*
X85050000Y-114250000D01*
X85050000Y-104250000D02*
X88950000Y-104250000D01*
X85050000Y-114250000D02*
X88950000Y-114250000D01*
X88950000Y-104250000D02*
X88950000Y-114250000D01*
D20*
X84350000Y-103495000D02*
G75*
G02*
X84150000Y-103495000I-100000J0D01*
G01*
X84150000Y-103495000D02*
G75*
G02*
X84350000Y-103495000I100000J0D01*
G01*
%TO.C,R19*%
D15*
X125530000Y-122675000D02*
X126070000Y-122675000D01*
X126070000Y-123725000D01*
X125530000Y-123725000D01*
X125530000Y-122675000D01*
%TO.C,U1*%
D19*
X91000000Y-77750000D02*
X91000000Y-84050000D01*
X91000000Y-77750000D02*
X109000000Y-77750000D01*
X91000000Y-84050000D02*
X109000000Y-84050000D01*
X91000000Y-103250000D02*
X91000000Y-84050000D01*
X109000000Y-77750000D02*
X109000000Y-84050000D01*
X109000000Y-84050000D02*
X109000000Y-103250000D01*
X109000000Y-103250000D02*
X91000000Y-103250000D01*
D20*
X90100000Y-85250000D02*
G75*
G02*
X89900000Y-85250000I-100000J0D01*
G01*
X89900000Y-85250000D02*
G75*
G02*
X90100000Y-85250000I100000J0D01*
G01*
%TO.C,C15*%
D15*
X110000000Y-95000000D02*
X111000000Y-95000000D01*
X111000000Y-95500000D01*
X110000000Y-95500000D01*
X110000000Y-95000000D01*
%TO.C,D4*%
D19*
X76335000Y-121220000D02*
X76335000Y-123780000D01*
X76335000Y-123780000D02*
X80665000Y-123780000D01*
X80665000Y-121220000D02*
X76335000Y-121220000D01*
X80665000Y-123780000D02*
X80665000Y-121220000D01*
D20*
X74600000Y-122500000D02*
G75*
G02*
X74400000Y-122500000I-100000J0D01*
G01*
X74400000Y-122500000D02*
G75*
G02*
X74600000Y-122500000I100000J0D01*
G01*
%TO.C,C7*%
D15*
X96700000Y-107150000D02*
X97700000Y-107150000D01*
X97700000Y-107650000D01*
X96700000Y-107650000D01*
X96700000Y-107150000D01*
%TO.C,Q5*%
D19*
X112850000Y-96550000D02*
X112850000Y-99450000D01*
X112850000Y-99450000D02*
X114150000Y-99450000D01*
X114150000Y-96550000D02*
X112850000Y-96550000D01*
X114150000Y-99450000D02*
X114150000Y-96550000D01*
D20*
X111240000Y-97050000D02*
G75*
G02*
X111040000Y-97050000I-100000J0D01*
G01*
X111040000Y-97050000D02*
G75*
G02*
X111240000Y-97050000I100000J0D01*
G01*
%TO.C,C3*%
D15*
X88000000Y-93850000D02*
X89600000Y-93850000D01*
X89600000Y-94650000D01*
X88000000Y-94650000D01*
X88000000Y-93850000D01*
%TO.C,R21*%
X73425000Y-121930000D02*
X74475000Y-121930000D01*
X74475000Y-122470000D01*
X73425000Y-122470000D01*
X73425000Y-121930000D01*
%TO.C,R9*%
X109980000Y-97475000D02*
X110520000Y-97475000D01*
X110520000Y-98525000D01*
X109980000Y-98525000D01*
X109980000Y-97475000D01*
%TO.C,D2*%
D19*
X120585000Y-77470000D02*
X120585000Y-80030000D01*
X120585000Y-80030000D02*
X124915000Y-80030000D01*
X124915000Y-77470000D02*
X120585000Y-77470000D01*
X124915000Y-80030000D02*
X124915000Y-77470000D01*
D20*
X118850000Y-78750000D02*
G75*
G02*
X118650000Y-78750000I-100000J0D01*
G01*
X118650000Y-78750000D02*
G75*
G02*
X118850000Y-78750000I100000J0D01*
G01*
%TO.C,D1*%
D19*
X77470000Y-75085000D02*
X77470000Y-79415000D01*
X77470000Y-79415000D02*
X80030000Y-79415000D01*
X80030000Y-75085000D02*
X77470000Y-75085000D01*
X80030000Y-79415000D02*
X80030000Y-75085000D01*
D20*
X78850000Y-81250000D02*
G75*
G02*
X78650000Y-81250000I-100000J0D01*
G01*
X78650000Y-81250000D02*
G75*
G02*
X78850000Y-81250000I100000J0D01*
G01*
%TO.C,C22*%
D15*
X122950000Y-72350000D02*
X124550000Y-72350000D01*
X124550000Y-73150000D01*
X122950000Y-73150000D01*
X122950000Y-72350000D01*
%TO.C,R5*%
X102775000Y-105430000D02*
X103825000Y-105430000D01*
X103825000Y-105970000D01*
X102775000Y-105970000D01*
X102775000Y-105430000D01*
%TO.C,R6*%
X103975000Y-104280000D02*
X105025000Y-104280000D01*
X105025000Y-104820000D01*
X103975000Y-104820000D01*
X103975000Y-104280000D01*
%TO.C,R22*%
X75675000Y-124430000D02*
X76725000Y-124430000D01*
X76725000Y-124970000D01*
X75675000Y-124970000D01*
X75675000Y-124430000D01*
%TO.C,R8*%
X105475000Y-112730000D02*
X106525000Y-112730000D01*
X106525000Y-113270000D01*
X105475000Y-113270000D01*
X105475000Y-112730000D01*
%TO.C,C5*%
X102300000Y-106950000D02*
X103300000Y-106950000D01*
X103300000Y-107450000D01*
X102300000Y-107450000D01*
X102300000Y-106950000D01*
%TO.C,J2*%
X109250000Y-105375000D02*
X109250000Y-109625000D01*
X109250000Y-105375000D02*
X115250000Y-105375000D01*
X109250000Y-109625000D02*
X115250000Y-109625000D01*
X110250000Y-105375000D02*
X110750000Y-106082107D01*
X110750000Y-106082107D02*
X111250000Y-105375000D01*
X115250000Y-105375000D02*
X115250000Y-109625000D01*
%TO.C,R10*%
X109980000Y-99975000D02*
X110520000Y-99975000D01*
X110520000Y-101025000D01*
X109980000Y-101025000D01*
X109980000Y-99975000D01*
%TO.C,D3*%
D19*
X121220000Y-119335000D02*
X121220000Y-123665000D01*
X121220000Y-123665000D02*
X123780000Y-123665000D01*
X123780000Y-119335000D02*
X121220000Y-119335000D01*
X123780000Y-123665000D02*
X123780000Y-119335000D01*
D20*
X122600000Y-125500000D02*
G75*
G02*
X122400000Y-125500000I-100000J0D01*
G01*
X122400000Y-125500000D02*
G75*
G02*
X122600000Y-125500000I100000J0D01*
G01*
%TD*%
M02*
