%TF.GenerationSoftware,KiCad,Pcbnew,10.0.6-10.0.6~ubuntu26.04.1*%
%TF.CreationDate,2026-09-15T18:29:44+07:00*%
%TF.ProjectId,FC_ESP32,46435f45-5350-4333-922e-6b696361645f,rev?*%
%TF.SameCoordinates,Original*%
%TF.FileFunction,Paste,Top*%
%TF.FilePolarity,Positive*%
%FSLAX46Y46*%
G04 Gerber Fmt 4.6, Leading zero omitted, Abs format (unit mm)*
G04 Created by KiCad (PCBNEW 10.0.6-10.0.6~ubuntu26.04.1) date 2026-09-15 18:29:44*
%MOMM*%
%LPD*%
G01*
G04 APERTURE LIST*
G04 Aperture macros list*
%AMRoundRect*
0 Rectangle with rounded corners*
0 $1 Rounding radius*
0 $2 $3 $4 $5 $6 $7 $8 $9 X,Y pos of 4 corners*
0 Add a 4 corners polygon primitive as box body*
4,1,4,$2,$3,$4,$5,$6,$7,$8,$9,$2,$3,0*
0 Add four circle primitives for the rounded corners*
1,1,$1+$1,$2,$3*
1,1,$1+$1,$4,$5*
1,1,$1+$1,$6,$7*
1,1,$1+$1,$8,$9*
0 Add four rect primitives between the rounded corners*
20,1,$1+$1,$2,$3,$4,$5,0*
20,1,$1+$1,$4,$5,$6,$7,0*
20,1,$1+$1,$6,$7,$8,$9,0*
20,1,$1+$1,$8,$9,$2,$3,0*%
G04 Aperture macros list end*
%ADD10C,0.010000*%
%ADD11RoundRect,0.250000X-0.250000X-0.475000X0.250000X-0.475000X0.250000X0.475000X-0.250000X0.475000X0*%
%ADD12RoundRect,0.135000X0.185000X-0.135000X0.185000X0.135000X-0.185000X0.135000X-0.185000X-0.135000X0*%
%ADD13RoundRect,0.225000X-0.225000X-0.250000X0.225000X-0.250000X0.225000X0.250000X-0.225000X0.250000X0*%
%ADD14RoundRect,0.135000X-0.135000X-0.185000X0.135000X-0.185000X0.135000X0.185000X-0.135000X0.185000X0*%
%ADD15R,1.000000X1.400000*%
%ADD16RoundRect,0.150000X0.512500X0.150000X-0.512500X0.150000X-0.512500X-0.150000X0.512500X-0.150000X0*%
%ADD17RoundRect,0.081250X-0.418750X-0.243750X0.418750X-0.243750X0.418750X0.243750X-0.418750X0.243750X0*%
%ADD18RoundRect,0.225000X0.250000X-0.225000X0.250000X0.225000X-0.250000X0.225000X-0.250000X-0.225000X0*%
%ADD19RoundRect,0.027500X-0.292500X-0.082500X0.292500X-0.082500X0.292500X0.082500X-0.292500X0.082500X0*%
%ADD20RoundRect,0.027500X-0.082500X-0.292500X0.082500X-0.292500X0.082500X0.292500X-0.082500X0.292500X0*%
%ADD21RoundRect,0.140000X-0.140000X-0.170000X0.140000X-0.170000X0.140000X0.170000X-0.140000X0.170000X0*%
%ADD22RoundRect,0.250000X-0.325000X-0.650000X0.325000X-0.650000X0.325000X0.650000X-0.325000X0.650000X0*%
%ADD23R,1.400000X1.000000*%
%ADD24RoundRect,0.150000X-0.512500X-0.150000X0.512500X-0.150000X0.512500X0.150000X-0.512500X0.150000X0*%
%ADD25RoundRect,0.025000X-0.100000X-0.145000X0.100000X-0.145000X0.100000X0.145000X-0.100000X0.145000X0*%
%ADD26RoundRect,0.106000X-0.644000X-0.424000X0.644000X-0.424000X0.644000X0.424000X-0.644000X0.424000X0*%
%ADD27RoundRect,0.060000X-0.240000X-0.060000X0.240000X-0.060000X0.240000X0.060000X-0.240000X0.060000X0*%
%ADD28R,1.500000X2.120000*%
%ADD29RoundRect,0.240000X-0.060000X-0.335000X0.060000X-0.335000X0.060000X0.335000X-0.060000X0.335000X0*%
%ADD30RoundRect,0.150000X-0.150000X-0.425000X0.150000X-0.425000X0.150000X0.425000X-0.150000X0.425000X0*%
%ADD31RoundRect,0.075000X-0.075000X-0.500000X0.075000X-0.500000X0.075000X0.500000X-0.075000X0.500000X0*%
%ADD32O,1.000000X2.100000*%
%ADD33O,1.000000X1.800000*%
%ADD34RoundRect,0.077500X-0.577500X-0.232500X0.577500X-0.232500X0.577500X0.232500X-0.577500X0.232500X0*%
%ADD35R,2.000000X0.900000*%
%ADD36R,0.900000X2.000000*%
%ADD37R,2.120000X1.500000*%
%ADD38RoundRect,0.225000X0.225000X0.250000X-0.225000X0.250000X-0.225000X-0.250000X0.225000X-0.250000X0*%
%ADD39RoundRect,0.150000X0.625000X-0.150000X0.625000X0.150000X-0.625000X0.150000X-0.625000X-0.150000X0*%
%ADD40RoundRect,0.250000X0.650000X-0.350000X0.650000X0.350000X-0.650000X0.350000X-0.650000X-0.350000X0*%
G04 APERTURE END LIST*
D10*
%TO.C,U2*%
X99515000Y-106460000D02*
X100485000Y-106460000D01*
X100485000Y-107540000D01*
X99515000Y-107540000D01*
X99515000Y-106460000D01*
G36*
X100485000Y-107540000D02*
G01*
X99515000Y-107540000D01*
X99515000Y-106460000D01*
X100485000Y-106460000D01*
X100485000Y-107540000D01*
G37*
%TO.C,U1*%
X96960000Y-90700000D02*
X98540000Y-90700000D01*
X98540000Y-92280000D01*
X96960000Y-92280000D01*
X96960000Y-90700000D01*
G36*
X98540000Y-92280000D02*
G01*
X96960000Y-92280000D01*
X96960000Y-90700000D01*
X98540000Y-90700000D01*
X98540000Y-92280000D01*
G37*
X96960000Y-93200000D02*
X98540000Y-93200000D01*
X98540000Y-94780000D01*
X96960000Y-94780000D01*
X96960000Y-93200000D01*
G36*
X98540000Y-94780000D02*
G01*
X96960000Y-94780000D01*
X96960000Y-93200000D01*
X98540000Y-93200000D01*
X98540000Y-94780000D01*
G37*
X99460000Y-90700000D02*
X101040000Y-90700000D01*
X101040000Y-92280000D01*
X99460000Y-92280000D01*
X99460000Y-90700000D01*
G36*
X101040000Y-92280000D02*
G01*
X99460000Y-92280000D01*
X99460000Y-90700000D01*
X101040000Y-90700000D01*
X101040000Y-92280000D01*
G37*
X99460000Y-93200000D02*
X101040000Y-93200000D01*
X101040000Y-94780000D01*
X99460000Y-94780000D01*
X99460000Y-93200000D01*
G36*
X101040000Y-94780000D02*
G01*
X99460000Y-94780000D01*
X99460000Y-93200000D01*
X101040000Y-93200000D01*
X101040000Y-94780000D01*
G37*
%TD*%
D11*
%TO.C,C17*%
X80300000Y-84500000D03*
X82200000Y-84500000D03*
%TD*%
D12*
%TO.C,R15*%
X74700000Y-77310000D03*
X74700000Y-76290000D03*
%TD*%
D13*
%TO.C,C11*%
X105725000Y-109750000D03*
X107275000Y-109750000D03*
%TD*%
D14*
%TO.C,R17*%
X124790000Y-78800000D03*
X125810000Y-78800000D03*
%TD*%
%TO.C,R18*%
X122290000Y-75800000D03*
X123310000Y-75800000D03*
%TD*%
D15*
%TO.C,Q2*%
X124600000Y-77550000D03*
X126500000Y-77550000D03*
X125550000Y-75350000D03*
%TD*%
D14*
%TO.C,R7*%
X92990000Y-113500000D03*
X94010000Y-113500000D03*
%TD*%
D16*
%TO.C,U6*%
X87137500Y-91450000D03*
X87137500Y-90500000D03*
X87137500Y-89550000D03*
X84862500Y-89550000D03*
X84862500Y-90500000D03*
X84862500Y-91450000D03*
%TD*%
D17*
%TO.C,Q6*%
X103050000Y-105050000D03*
X103050000Y-106950000D03*
X105450000Y-106000000D03*
%TD*%
D14*
%TO.C,R2*%
X111490000Y-102000000D03*
X112510000Y-102000000D03*
%TD*%
D13*
%TO.C,C24*%
X76475000Y-126250000D03*
X78025000Y-126250000D03*
%TD*%
D18*
%TO.C,C21*%
X72750000Y-70025000D03*
X72750000Y-68475000D03*
%TD*%
D19*
%TO.C,U2*%
X98455000Y-106000000D03*
X98455000Y-106400000D03*
X98455000Y-106800000D03*
X98455000Y-107200000D03*
X98455000Y-107600000D03*
X98455000Y-108000000D03*
D20*
X99000000Y-108545000D03*
X99400000Y-108545000D03*
X99800000Y-108545000D03*
X100200000Y-108545000D03*
X100600000Y-108545000D03*
X101000000Y-108545000D03*
D19*
X101545000Y-108000000D03*
X101545000Y-107600000D03*
X101545000Y-107200000D03*
X101545000Y-106800000D03*
X101545000Y-106400000D03*
X101545000Y-106000000D03*
D20*
X101000000Y-105455000D03*
X100600000Y-105455000D03*
X100200000Y-105455000D03*
X99800000Y-105455000D03*
X99400000Y-105455000D03*
X99000000Y-105455000D03*
%TD*%
D21*
%TO.C,C9*%
X93520000Y-104750000D03*
X94480000Y-104750000D03*
%TD*%
D14*
%TO.C,R4*%
X87890000Y-95900000D03*
X88910000Y-95900000D03*
%TD*%
%TO.C,R23*%
X115240000Y-90750000D03*
X116260000Y-90750000D03*
%TD*%
D12*
%TO.C,R16*%
X73450000Y-77310000D03*
X73450000Y-76290000D03*
%TD*%
D22*
%TO.C,C19*%
X109725000Y-115700000D03*
X112675000Y-115700000D03*
%TD*%
D21*
%TO.C,C18*%
X108520000Y-108300000D03*
X109480000Y-108300000D03*
%TD*%
D23*
%TO.C,Q1*%
X77550000Y-75400000D03*
X77550000Y-73500000D03*
X75350000Y-74450000D03*
%TD*%
D21*
%TO.C,C2*%
X88220000Y-85400000D03*
X89180000Y-85400000D03*
%TD*%
D14*
%TO.C,R11*%
X110490000Y-93500000D03*
X111510000Y-93500000D03*
%TD*%
D24*
%TO.C,U4*%
X94362500Y-108300000D03*
X94362500Y-109250000D03*
X94362500Y-110200000D03*
X96637500Y-110200000D03*
X96637500Y-109250000D03*
X96637500Y-108300000D03*
%TD*%
D11*
%TO.C,C12*%
X111050000Y-86000000D03*
X112950000Y-86000000D03*
%TD*%
D21*
%TO.C,C8*%
X96220000Y-104750000D03*
X97180000Y-104750000D03*
%TD*%
D14*
%TO.C,R3*%
X88640000Y-91850000D03*
X89660000Y-91850000D03*
%TD*%
D11*
%TO.C,C1*%
X85050000Y-82700000D03*
X86950000Y-82700000D03*
%TD*%
%TO.C,C13*%
X111050000Y-83750000D03*
X112950000Y-83750000D03*
%TD*%
D21*
%TO.C,C6*%
X96220000Y-106000000D03*
X97180000Y-106000000D03*
%TD*%
D25*
%TO.C,U5*%
X111750000Y-87720000D03*
X111750000Y-90780000D03*
D26*
X112000000Y-88620000D03*
X112000000Y-89880000D03*
D25*
X112250000Y-87720000D03*
X112250000Y-90780000D03*
D27*
X110600000Y-88250000D03*
X110600000Y-88750000D03*
X110600000Y-89250000D03*
X110600000Y-89750000D03*
X110600000Y-90250000D03*
X113400000Y-90250000D03*
X113400000Y-89750000D03*
X113400000Y-89250000D03*
X113400000Y-88750000D03*
X113400000Y-88250000D03*
%TD*%
D28*
%TO.C,D6*%
X88500000Y-102615000D03*
X88500000Y-98385000D03*
%TD*%
D14*
%TO.C,R1*%
X87790000Y-88250000D03*
X88810000Y-88250000D03*
%TD*%
D15*
%TO.C,Q4*%
X72750000Y-124650000D03*
X74650000Y-124650000D03*
X73700000Y-122450000D03*
%TD*%
D21*
%TO.C,C4*%
X88670000Y-90700000D03*
X89630000Y-90700000D03*
%TD*%
D14*
%TO.C,R12*%
X88490000Y-94750000D03*
X89510000Y-94750000D03*
%TD*%
D23*
%TO.C,Q3*%
X124650000Y-127250000D03*
X124650000Y-125350000D03*
X122450000Y-126300000D03*
%TD*%
D14*
%TO.C,R13*%
X88490000Y-87000000D03*
X89510000Y-87000000D03*
%TD*%
D28*
%TO.C,D5*%
X82500000Y-118115000D03*
X82500000Y-113885000D03*
%TD*%
D29*
%TO.C,J1*%
X96800000Y-112320000D03*
D30*
X97600000Y-112320000D03*
D31*
X98750000Y-112320000D03*
X99750000Y-112320000D03*
X100250000Y-112320000D03*
X101250000Y-112320000D03*
D30*
X102400000Y-112320000D03*
D29*
X103200000Y-112320000D03*
X103200000Y-112320000D03*
D30*
X102400000Y-112320000D03*
D31*
X101750000Y-112320000D03*
X100750000Y-112320000D03*
X99250000Y-112320000D03*
X98250000Y-112320000D03*
D30*
X97600000Y-112320000D03*
D29*
X96800000Y-112320000D03*
D32*
X95680000Y-112895000D03*
D33*
X95680000Y-117075000D03*
D32*
X104320000Y-112895000D03*
D33*
X104320000Y-117075000D03*
%TD*%
D18*
%TO.C,C23*%
X120250000Y-124525000D03*
X120250000Y-122975000D03*
%TD*%
D12*
%TO.C,R20*%
X125050000Y-123710000D03*
X125050000Y-122690000D03*
%TD*%
D14*
%TO.C,R24*%
X111740000Y-94750000D03*
X112760000Y-94750000D03*
%TD*%
D34*
%TO.C,U3*%
X85250000Y-105055000D03*
X85250000Y-106325000D03*
X85250000Y-107595000D03*
X85250000Y-108865000D03*
X85250000Y-110135000D03*
X85250000Y-111405000D03*
X85250000Y-112675000D03*
X85250000Y-113945000D03*
X90750000Y-113945000D03*
X90750000Y-112675000D03*
X90750000Y-111405000D03*
X90750000Y-110135000D03*
X90750000Y-108865000D03*
X90750000Y-107595000D03*
X90750000Y-106325000D03*
X90750000Y-105055000D03*
%TD*%
D12*
%TO.C,R19*%
X126300000Y-123710000D03*
X126300000Y-122690000D03*
%TD*%
D35*
%TO.C,U1*%
X91500000Y-85240000D03*
X91500000Y-86510000D03*
X91500000Y-87780000D03*
X91500000Y-89050000D03*
X91500000Y-90320000D03*
X91500000Y-91590000D03*
X91500000Y-92860000D03*
X91500000Y-94130000D03*
X91500000Y-95400000D03*
X91500000Y-96670000D03*
X91500000Y-97940000D03*
X91500000Y-99210000D03*
X91500000Y-100480000D03*
X91500000Y-101750000D03*
D36*
X94285000Y-102750000D03*
X95555000Y-102750000D03*
X96825000Y-102750000D03*
X98095000Y-102750000D03*
X99365000Y-102750000D03*
X100635000Y-102750000D03*
X101905000Y-102750000D03*
X103175000Y-102750000D03*
X104445000Y-102750000D03*
X105715000Y-102750000D03*
D35*
X108500000Y-101750000D03*
X108500000Y-100480000D03*
X108500000Y-99210000D03*
X108500000Y-97940000D03*
X108500000Y-96670000D03*
X108500000Y-95400000D03*
X108500000Y-94130000D03*
X108500000Y-92860000D03*
X108500000Y-91590000D03*
X108500000Y-90320000D03*
X108500000Y-89050000D03*
X108500000Y-87780000D03*
X108500000Y-86510000D03*
X108500000Y-85240000D03*
%TD*%
D21*
%TO.C,C15*%
X110520000Y-92000000D03*
X111480000Y-92000000D03*
%TD*%
D37*
%TO.C,D4*%
X76635000Y-122750000D03*
X80865000Y-122750000D03*
%TD*%
D21*
%TO.C,C7*%
X94220000Y-106900000D03*
X95180000Y-106900000D03*
%TD*%
D17*
%TO.C,Q5*%
X107300000Y-105050000D03*
X107300000Y-106950000D03*
X109700000Y-106000000D03*
%TD*%
D38*
%TO.C,C3*%
X89325000Y-93250000D03*
X87775000Y-93250000D03*
%TD*%
D14*
%TO.C,R21*%
X75690000Y-124950000D03*
X76710000Y-124950000D03*
%TD*%
D12*
%TO.C,R9*%
X110500000Y-98510000D03*
X110500000Y-97490000D03*
%TD*%
D37*
%TO.C,D2*%
X118385000Y-78000000D03*
X122615000Y-78000000D03*
%TD*%
D28*
%TO.C,D1*%
X78000000Y-81615000D03*
X78000000Y-77385000D03*
%TD*%
D13*
%TO.C,C22*%
X121975000Y-73750000D03*
X123525000Y-73750000D03*
%TD*%
D14*
%TO.C,R5*%
X102790000Y-108450000D03*
X103810000Y-108450000D03*
%TD*%
%TO.C,R6*%
X104990000Y-108300000D03*
X106010000Y-108300000D03*
%TD*%
%TO.C,R22*%
X74940000Y-120450000D03*
X75960000Y-120450000D03*
%TD*%
%TO.C,R8*%
X105990000Y-114250000D03*
X107010000Y-114250000D03*
%TD*%
D21*
%TO.C,C5*%
X102320000Y-109700000D03*
X103280000Y-109700000D03*
%TD*%
D39*
%TO.C,J2*%
X111950000Y-108300000D03*
X111950000Y-107300000D03*
X111950000Y-106300000D03*
X111950000Y-105300000D03*
D40*
X115825000Y-109600000D03*
X115825000Y-104000000D03*
%TD*%
D12*
%TO.C,R10*%
X110500000Y-101010000D03*
X110500000Y-99990000D03*
%TD*%
D28*
%TO.C,D3*%
X122750000Y-123365000D03*
X122750000Y-119135000D03*
%TD*%
M02*
