%TF.GenerationSoftware,KiCad,Pcbnew,10.0.6-10.0.6~ubuntu26.04.1*%
%TF.CreationDate,2026-09-15T18:29:44+07:00*%
%TF.ProjectId,FC_ESP32,46435f45-5350-4333-922e-6b696361645f,rev?*%
%TF.SameCoordinates,Original*%
%TF.FileFunction,Profile,NP*%
%FSLAX46Y46*%
G04 Gerber Fmt 4.6, Leading zero omitted, Abs format (unit mm)*
G04 Created by KiCad (PCBNEW 10.0.6-10.0.6~ubuntu26.04.1) date 2026-09-15 18:29:44*
%MOMM*%
%LPD*%
G01*
G04 APERTURE LIST*
%TA.AperFunction,Profile*%
%ADD10C,0.050000*%
%TD*%
G04 APERTURE END LIST*
D10*
X60100803Y-66575467D02*
X60100803Y-66624532D01*
X60100803Y-66624532D02*
X60113113Y-67000587D01*
X60100803Y-133375467D02*
X60100803Y-133424532D01*
X60100803Y-133424532D02*
X60113113Y-133800587D01*
X60113113Y-66199412D02*
X60100803Y-66575467D01*
X60113113Y-67000587D02*
X60116322Y-67049548D01*
X60113113Y-132999412D02*
X60100803Y-133375467D01*
X60113113Y-133800587D02*
X60116322Y-133849548D01*
X60116322Y-66150451D02*
X60113113Y-66199412D01*
X60116322Y-67049548D02*
X60153202Y-67423992D01*
X60116322Y-132950451D02*
X60113113Y-132999412D01*
X60116322Y-133849548D02*
X60153202Y-134223992D01*
X60153202Y-65776007D02*
X60116322Y-66150451D01*
X60153202Y-67423992D02*
X60159606Y-67472638D01*
X60153202Y-132576007D02*
X60116322Y-132950451D01*
X60153202Y-134223992D02*
X60159606Y-134272638D01*
X60159606Y-65727361D02*
X60153202Y-65776007D01*
X60159606Y-67472638D02*
X60220897Y-67843869D01*
X60159606Y-132527361D02*
X60153202Y-132576007D01*
X60159606Y-134272638D02*
X60220897Y-134643869D01*
X60220897Y-65356130D02*
X60159606Y-65727361D01*
X60220897Y-67843869D02*
X60230469Y-67891991D01*
X60220897Y-132156130D02*
X60159606Y-132527361D01*
X60220897Y-134643869D02*
X60230469Y-134691991D01*
X60230469Y-65308008D02*
X60220897Y-65356130D01*
X60230469Y-67891991D02*
X60315908Y-68258419D01*
X60230469Y-132108008D02*
X60220897Y-132156130D01*
X60230469Y-134691991D02*
X60315908Y-135058419D01*
X60315908Y-64941580D02*
X60230469Y-65308008D01*
X60315908Y-68258419D02*
X60328607Y-68305812D01*
X60315908Y-131741580D02*
X60230469Y-132108008D01*
X60315908Y-135058419D02*
X60328607Y-135105812D01*
X60328607Y-64894187D02*
X60315908Y-64941580D01*
X60328607Y-68305812D02*
X60437828Y-68665867D01*
X60328607Y-131694187D02*
X60315908Y-131741580D01*
X60328607Y-135105812D02*
X60437828Y-135465867D01*
X60437828Y-64534132D02*
X60328607Y-64894187D01*
X60437828Y-68665867D02*
X60453600Y-68712329D01*
X60437828Y-131334132D02*
X60328607Y-131694187D01*
X60437828Y-135465867D02*
X60453600Y-135512329D01*
X60453600Y-64487670D02*
X60437828Y-64534132D01*
X60453600Y-68712329D02*
X60586136Y-69064469D01*
X60453600Y-131287670D02*
X60437828Y-131334132D01*
X60453600Y-135512329D02*
X60586136Y-135864469D01*
X60586136Y-64135530D02*
X60453600Y-64487670D01*
X60586136Y-69064469D02*
X60604913Y-69109800D01*
X60586136Y-130935530D02*
X60453600Y-131287670D01*
X60586136Y-135864469D02*
X60604913Y-135909800D01*
X60604913Y-64090199D02*
X60586136Y-64135530D01*
X60604913Y-69109800D02*
X60760196Y-69452518D01*
X60604913Y-130890199D02*
X60586136Y-130935530D01*
X60604913Y-135909800D02*
X60760196Y-136252518D01*
X60760196Y-63747481D02*
X60604913Y-64090199D01*
X60760196Y-69452518D02*
X60781898Y-69496524D01*
X60760196Y-130547481D02*
X60604913Y-130890199D01*
X60760196Y-136252518D02*
X60781898Y-136296524D01*
X60781898Y-63703475D02*
X60760196Y-63747481D01*
X60781898Y-69496524D02*
X60959264Y-69828352D01*
X60781898Y-130503475D02*
X60760196Y-130547481D01*
X60781898Y-136296524D02*
X60959264Y-136628352D01*
X60959264Y-63371647D02*
X60781898Y-63703475D01*
X60959264Y-69828352D02*
X60983796Y-69870844D01*
X60959264Y-130171647D02*
X60781898Y-130503475D01*
X60959264Y-136628352D02*
X60983796Y-136670844D01*
X60983796Y-63329155D02*
X60959264Y-63371647D01*
X60983796Y-69870844D02*
X61182485Y-70190362D01*
X60983796Y-130129155D02*
X60959264Y-130171647D01*
X60983796Y-136670844D02*
X61182485Y-136990362D01*
X61182485Y-63009637D02*
X60983796Y-63329155D01*
X61182485Y-70190362D02*
X61209744Y-70231158D01*
X61182485Y-129809637D02*
X60983796Y-130129155D01*
X61182485Y-136990362D02*
X61209744Y-137031158D01*
X61209744Y-62968841D02*
X61182485Y-63009637D01*
X61209744Y-70231158D02*
X61428905Y-70536997D01*
X61209744Y-129768841D02*
X61182485Y-129809637D01*
X61209744Y-137031158D02*
X61428905Y-137336997D01*
X61428905Y-62663002D02*
X61209744Y-62968841D01*
X61428905Y-70536997D02*
X61458775Y-70575923D01*
X61428905Y-129463002D02*
X61209744Y-129768841D01*
X61428905Y-137336997D02*
X61458775Y-137375923D01*
X61458775Y-62624076D02*
X61428905Y-62663002D01*
X61458775Y-70575923D02*
X61697469Y-70866773D01*
X61458775Y-129424076D02*
X61428905Y-129463002D01*
X61458775Y-137375923D02*
X61697469Y-137666773D01*
X61697469Y-62333226D02*
X61458775Y-62624076D01*
X61697469Y-70866773D02*
X61729820Y-70903662D01*
X61697469Y-129133226D02*
X61458775Y-129424076D01*
X61697469Y-137666773D02*
X61729820Y-137703662D01*
X61729820Y-62296337D02*
X61697469Y-62333226D01*
X61729820Y-70903662D02*
X61987026Y-71178278D01*
X61729820Y-129096337D02*
X61697469Y-129133226D01*
X61729820Y-137703662D02*
X61987026Y-137978278D01*
X61987026Y-62021721D02*
X61729820Y-62296337D01*
X61987026Y-71178278D02*
X62021721Y-71212973D01*
X61987026Y-128821721D02*
X61729820Y-129096337D01*
X61987026Y-137978278D02*
X62021721Y-138012973D01*
X62021721Y-61987026D02*
X61987026Y-62021721D01*
X62021721Y-71212973D02*
X62296337Y-71470179D01*
X62021721Y-128787026D02*
X61987026Y-128821721D01*
X62021721Y-138012973D02*
X62296337Y-138270179D01*
X62296337Y-61729820D02*
X62021721Y-61987026D01*
X62296337Y-71470179D02*
X62333226Y-71502530D01*
X62296337Y-128529820D02*
X62021721Y-128787026D01*
X62296337Y-138270179D02*
X62333226Y-138302530D01*
X62333226Y-61697469D02*
X62296337Y-61729820D01*
X62333226Y-71502530D02*
X62624076Y-71741224D01*
X62333226Y-128497469D02*
X62296337Y-128529820D01*
X62333226Y-138302530D02*
X62624076Y-138541224D01*
X62624076Y-61458775D02*
X62333226Y-61697469D01*
X62624076Y-71741224D02*
X62663002Y-71771094D01*
X62624076Y-128258775D02*
X62333226Y-128497469D01*
X62624076Y-138541224D02*
X62663002Y-138571094D01*
X62663002Y-61428905D02*
X62624076Y-61458775D01*
X62663002Y-71771094D02*
X62968841Y-71990255D01*
X62663002Y-128228905D02*
X62624076Y-128258775D01*
X62663002Y-138571094D02*
X62968841Y-138790255D01*
X62968841Y-61209744D02*
X62663002Y-61428905D01*
X62968841Y-71990255D02*
X63009637Y-72017514D01*
X62968841Y-128009744D02*
X62663002Y-128228905D01*
X62968841Y-138790255D02*
X63009637Y-138817514D01*
X63009637Y-61182485D02*
X62968841Y-61209744D01*
X63009637Y-72017514D02*
X63329155Y-72216203D01*
X63009637Y-127982485D02*
X62968841Y-128009744D01*
X63009637Y-138817514D02*
X63329155Y-139016203D01*
X63329155Y-60983796D02*
X63009637Y-61182485D01*
X63329155Y-72216203D02*
X63371647Y-72240735D01*
X63329155Y-127783796D02*
X63009637Y-127982485D01*
X63329155Y-139016203D02*
X63371647Y-139040735D01*
X63371647Y-60959264D02*
X63329155Y-60983796D01*
X63371647Y-72240735D02*
X63703475Y-72418101D01*
X63371647Y-127759264D02*
X63329155Y-127783796D01*
X63371647Y-139040735D02*
X63703475Y-139218101D01*
X63703475Y-60781898D02*
X63371647Y-60959264D01*
X63703475Y-72418101D02*
X63747481Y-72439803D01*
X63703475Y-127581898D02*
X63371647Y-127759264D01*
X63703475Y-139218101D02*
X63747481Y-139239803D01*
X63747481Y-60760196D02*
X63703475Y-60781898D01*
X63747481Y-72439803D02*
X64090199Y-72595086D01*
X63747481Y-127560196D02*
X63703475Y-127581898D01*
X63747481Y-139239803D02*
X64090199Y-139395086D01*
X64090199Y-60604913D02*
X63747481Y-60760196D01*
X64090199Y-72595086D02*
X64135530Y-72613863D01*
X64090199Y-127404913D02*
X63747481Y-127560196D01*
X64090199Y-139395086D02*
X64135530Y-139413863D01*
X64135530Y-60586136D02*
X64090199Y-60604913D01*
X64135530Y-72613863D02*
X64487670Y-72746399D01*
X64135530Y-127386136D02*
X64090199Y-127404913D01*
X64135530Y-139413863D02*
X64487670Y-139546399D01*
X64487670Y-60453600D02*
X64135530Y-60586136D01*
X64487670Y-72746399D02*
X64534132Y-72762171D01*
X64487670Y-127253600D02*
X64135530Y-127386136D01*
X64487670Y-139546399D02*
X64534132Y-139562171D01*
X64534132Y-60437828D02*
X64487670Y-60453600D01*
X64534132Y-72762171D02*
X64894187Y-72871392D01*
X64534132Y-127237828D02*
X64487670Y-127253600D01*
X64534132Y-139562171D02*
X64894187Y-139671392D01*
X64894187Y-60328607D02*
X64534132Y-60437828D01*
X64894187Y-72871392D02*
X64941580Y-72884091D01*
X64894187Y-127128607D02*
X64534132Y-127237828D01*
X64894187Y-139671392D02*
X64941580Y-139684091D01*
X64941580Y-60315908D02*
X64894187Y-60328607D01*
X64941580Y-72884091D02*
X65308008Y-72969530D01*
X64941580Y-127115908D02*
X64894187Y-127128607D01*
X64941580Y-139684091D02*
X65308008Y-139769530D01*
X65308008Y-60230469D02*
X64941580Y-60315908D01*
X65308008Y-72969530D02*
X65356130Y-72979102D01*
X65308008Y-127030469D02*
X64941580Y-127115908D01*
X65308008Y-139769530D02*
X65356130Y-139779102D01*
X65356130Y-60220897D02*
X65308008Y-60230469D01*
X65356130Y-72979102D02*
X65727361Y-73040393D01*
X65356130Y-127020897D02*
X65308008Y-127030469D01*
X65356130Y-139779102D02*
X65727361Y-139840393D01*
X65727361Y-60159606D02*
X65356130Y-60220897D01*
X65727361Y-73040393D02*
X65776007Y-73046797D01*
X65727361Y-126959606D02*
X65356130Y-127020897D01*
X65727361Y-139840393D02*
X65776007Y-139846797D01*
X65776007Y-60153202D02*
X65727361Y-60159606D01*
X65776007Y-73046797D02*
X66150451Y-73083677D01*
X65776007Y-126953202D02*
X65727361Y-126959606D01*
X65776007Y-139846797D02*
X66150451Y-139883677D01*
X66150451Y-60116322D02*
X65776007Y-60153202D01*
X66150451Y-73083677D02*
X66199412Y-73086886D01*
X66150451Y-126916322D02*
X65776007Y-126953202D01*
X66150451Y-139883677D02*
X66199412Y-139886886D01*
X66199412Y-60113113D02*
X66150451Y-60116322D01*
X66199412Y-73086886D02*
X66575467Y-73099196D01*
X66199412Y-126913113D02*
X66150451Y-126916322D01*
X66199412Y-139886886D02*
X66575467Y-139899196D01*
X66575467Y-60100803D02*
X66199412Y-60113113D01*
X66575467Y-73099196D02*
X66624532Y-73099196D01*
X66575467Y-126900803D02*
X66199412Y-126913113D01*
X66575467Y-139899196D02*
X66624532Y-139899196D01*
X66624532Y-60100803D02*
X66575467Y-60100803D01*
X66624532Y-73099196D02*
X66629554Y-73099032D01*
X66624532Y-126900803D02*
X66575467Y-126900803D01*
X66624532Y-139899196D02*
X67000587Y-139886886D01*
X66629554Y-73099032D02*
X66935076Y-73120312D01*
X66629554Y-126900967D02*
X66624532Y-126900803D01*
X66935076Y-73120312D02*
X67229907Y-73203203D01*
X66935076Y-126879687D02*
X66629554Y-126900967D01*
X67000587Y-60113113D02*
X66624532Y-60100803D01*
X67000587Y-139886886D02*
X67049548Y-139883677D01*
X67049548Y-60116322D02*
X67000587Y-60113113D01*
X67049548Y-139883677D02*
X67423992Y-139846797D01*
X67229907Y-73203203D02*
X67501757Y-73344248D01*
X67229907Y-126796796D02*
X66935076Y-126879687D01*
X67423992Y-60153202D02*
X67049548Y-60116322D01*
X67423992Y-139846797D02*
X67472638Y-139840393D01*
X67472638Y-60159606D02*
X67423992Y-60153202D01*
X67472638Y-139840393D02*
X67843869Y-139779102D01*
X67501757Y-73344248D02*
X67739293Y-73537569D01*
X67501757Y-126655751D02*
X67229907Y-126796796D01*
X67739293Y-73537569D02*
X82560660Y-88358935D01*
X67739293Y-126462430D02*
X67501757Y-126655751D01*
X67843869Y-60220897D02*
X67472638Y-60159606D01*
X67843869Y-139779102D02*
X67891991Y-139769530D01*
X67891991Y-60230469D02*
X67843869Y-60220897D01*
X67891991Y-139769530D02*
X68258419Y-139684091D01*
X68258419Y-60315908D02*
X67891991Y-60230469D01*
X68258419Y-139684091D02*
X68305812Y-139671392D01*
X68305812Y-60328607D02*
X68258419Y-60315908D01*
X68305812Y-139671392D02*
X68665867Y-139562171D01*
X68665867Y-60437828D02*
X68305812Y-60328607D01*
X68665867Y-139562171D02*
X68712329Y-139546399D01*
X68712329Y-60453600D02*
X68665867Y-60437828D01*
X68712329Y-139546399D02*
X69064469Y-139413863D01*
X69064469Y-60586136D02*
X68712329Y-60453600D01*
X69064469Y-139413863D02*
X69109800Y-139395086D01*
X69109800Y-60604913D02*
X69064469Y-60586136D01*
X69109800Y-139395086D02*
X69452518Y-139239803D01*
X69452518Y-60760196D02*
X69109800Y-60604913D01*
X69452518Y-139239803D02*
X69496524Y-139218101D01*
X69496524Y-60781898D02*
X69452518Y-60760196D01*
X69496524Y-139218101D02*
X69828352Y-139040735D01*
X69828352Y-60959264D02*
X69496524Y-60781898D01*
X69828352Y-139040735D02*
X69870844Y-139016203D01*
X69870844Y-60983796D02*
X69828352Y-60959264D01*
X69870844Y-139016203D02*
X70190362Y-138817514D01*
X70190362Y-61182485D02*
X69870844Y-60983796D01*
X70190362Y-138817514D02*
X70231158Y-138790255D01*
X70231158Y-61209744D02*
X70190362Y-61182485D01*
X70231158Y-138790255D02*
X70536997Y-138571094D01*
X70536997Y-61428905D02*
X70231158Y-61209744D01*
X70536997Y-138571094D02*
X70575923Y-138541224D01*
X70575923Y-61458775D02*
X70536997Y-61428905D01*
X70575923Y-138541224D02*
X70866773Y-138302530D01*
X70866773Y-61697469D02*
X70575923Y-61458775D01*
X70866773Y-138302530D02*
X70903662Y-138270179D01*
X70903662Y-61729820D02*
X70866773Y-61697469D01*
X70903662Y-138270179D02*
X71178278Y-138012973D01*
X71178278Y-61987026D02*
X70903662Y-61729820D01*
X71178278Y-138012973D02*
X71212973Y-137978278D01*
X71212973Y-62021721D02*
X71178278Y-61987026D01*
X71212973Y-137978278D02*
X71470179Y-137703662D01*
X71470179Y-62296337D02*
X71212973Y-62021721D01*
X71470179Y-137703662D02*
X71502530Y-137666773D01*
X71502530Y-62333226D02*
X71470179Y-62296337D01*
X71502530Y-137666773D02*
X71741224Y-137375923D01*
X71741224Y-62624076D02*
X71502530Y-62333226D01*
X71741224Y-137375923D02*
X71771094Y-137336997D01*
X71771094Y-62663002D02*
X71741224Y-62624076D01*
X71771094Y-137336997D02*
X71990255Y-137031158D01*
X71990255Y-62968841D02*
X71771094Y-62663002D01*
X71990255Y-137031158D02*
X72017514Y-136990362D01*
X72017514Y-63009637D02*
X71990255Y-62968841D01*
X72017514Y-136990362D02*
X72216203Y-136670844D01*
X72216203Y-63329155D02*
X72017514Y-63009637D01*
X72216203Y-136670844D02*
X72240735Y-136628352D01*
X72240735Y-63371647D02*
X72216203Y-63329155D01*
X72240735Y-136628352D02*
X72418101Y-136296524D01*
X72418101Y-63703475D02*
X72240735Y-63371647D01*
X72418101Y-136296524D02*
X72439803Y-136252518D01*
X72439803Y-63747481D02*
X72418101Y-63703475D01*
X72439803Y-136252518D02*
X72595086Y-135909800D01*
X72595086Y-64090199D02*
X72439803Y-63747481D01*
X72595086Y-135909800D02*
X72613863Y-135864469D01*
X72613863Y-64135530D02*
X72595086Y-64090199D01*
X72613863Y-135864469D02*
X72746399Y-135512329D01*
X72746399Y-64487670D02*
X72613863Y-64135530D01*
X72746399Y-135512329D02*
X72762171Y-135465867D01*
X72762171Y-64534132D02*
X72746399Y-64487670D01*
X72762171Y-135465867D02*
X72871392Y-135105812D01*
X72871392Y-64894187D02*
X72762171Y-64534132D01*
X72871392Y-135105812D02*
X72884091Y-135058419D01*
X72884091Y-64941580D02*
X72871392Y-64894187D01*
X72884091Y-135058419D02*
X72969530Y-134691991D01*
X72969530Y-65308008D02*
X72884091Y-64941580D01*
X72969530Y-134691991D02*
X72979102Y-134643869D01*
X72979102Y-65356130D02*
X72969530Y-65308008D01*
X72979102Y-134643869D02*
X73040393Y-134272638D01*
X73040393Y-65727361D02*
X72979102Y-65356130D01*
X73040393Y-134272638D02*
X73046797Y-134223992D01*
X73046797Y-65776007D02*
X73040393Y-65727361D01*
X73046797Y-134223992D02*
X73083677Y-133849548D01*
X73083677Y-66150451D02*
X73046797Y-65776007D01*
X73083677Y-133849548D02*
X73086886Y-133800587D01*
X73086886Y-66199412D02*
X73083677Y-66150451D01*
X73086886Y-133800587D02*
X73099196Y-133424532D01*
X73099032Y-66629554D02*
X73099196Y-66624532D01*
X73099032Y-133370445D02*
X73120312Y-133064923D01*
X73099196Y-66575467D02*
X73086886Y-66199412D01*
X73099196Y-66624532D02*
X73099196Y-66575467D01*
X73099196Y-133375467D02*
X73099032Y-133370445D01*
X73099196Y-133424532D02*
X73099196Y-133375467D01*
X73120312Y-66935076D02*
X73099032Y-66629554D01*
X73120312Y-133064923D02*
X73203203Y-132770092D01*
X73203203Y-67229907D02*
X73120312Y-66935076D01*
X73203203Y-132770092D02*
X73344248Y-132498242D01*
X73344248Y-67501757D02*
X73203203Y-67229907D01*
X73344248Y-132498242D02*
X73537569Y-132260706D01*
X73537569Y-67739293D02*
X73344248Y-67501757D01*
X73537569Y-132260706D02*
X85358935Y-120439339D01*
X82560660Y-88358935D02*
X82747204Y-88586240D01*
X82560660Y-111641064D02*
X67739293Y-126462430D01*
X82747204Y-88586240D02*
X82885819Y-88845570D01*
X82747204Y-111413759D02*
X82560660Y-111641064D01*
X82885819Y-88845570D02*
X82971177Y-89126960D01*
X82885819Y-111154429D02*
X82747204Y-111413759D01*
X82971177Y-89126960D02*
X83000000Y-89419595D01*
X82971177Y-110873039D02*
X82885819Y-111154429D01*
X83000000Y-89419595D02*
X83000000Y-110580404D01*
X83000000Y-110580404D02*
X82971177Y-110873039D01*
X85358935Y-120439339D02*
X85586240Y-120252795D01*
X85586240Y-120252795D02*
X85845570Y-120114180D01*
X85845570Y-120114180D02*
X86126960Y-120028822D01*
X86126960Y-120028822D02*
X86419595Y-120000000D01*
X86419595Y-120000000D02*
X113580404Y-120000000D01*
X87439339Y-81641064D02*
X73537569Y-67739293D01*
X87666644Y-81827608D02*
X87439339Y-81641064D01*
X87925974Y-81966223D02*
X87666644Y-81827608D01*
X88207364Y-82051581D02*
X87925974Y-81966223D01*
X88500000Y-82080404D02*
X88207364Y-82051581D01*
X88792635Y-82051581D02*
X88500000Y-82080404D01*
X89074025Y-81966223D02*
X88792635Y-82051581D01*
X89333355Y-81827608D02*
X89074025Y-81966223D01*
X89560660Y-81641064D02*
X89333355Y-81827608D01*
X89747204Y-81413759D02*
X89560660Y-81641064D01*
X89885819Y-81154429D02*
X89747204Y-81413759D01*
X89971177Y-80873039D02*
X89885819Y-81154429D01*
X90000000Y-77573690D02*
X90000000Y-80580404D01*
X90000000Y-80580404D02*
X89971177Y-80873039D01*
X90006607Y-77506607D02*
X90000000Y-77573690D01*
X90073690Y-77500000D02*
X90006607Y-77506607D01*
X109926309Y-77500000D02*
X90073690Y-77500000D01*
X109993392Y-77506607D02*
X109926309Y-77500000D01*
X110000000Y-77573690D02*
X109993392Y-77506607D01*
X110000000Y-80580404D02*
X110000000Y-77573690D01*
X110028822Y-80873039D02*
X110000000Y-80580404D01*
X110114180Y-81154429D02*
X110028822Y-80873039D01*
X110252795Y-81413759D02*
X110114180Y-81154429D01*
X110439339Y-81641064D02*
X110252795Y-81413759D01*
X110666644Y-81827608D02*
X110439339Y-81641064D01*
X110925974Y-81966223D02*
X110666644Y-81827608D01*
X111207364Y-82051581D02*
X110925974Y-81966223D01*
X111500000Y-82080404D02*
X111207364Y-82051581D01*
X111792635Y-82051581D02*
X111500000Y-82080404D01*
X112074025Y-81966223D02*
X111792635Y-82051581D01*
X112333355Y-81827608D02*
X112074025Y-81966223D01*
X112560660Y-81641064D02*
X112333355Y-81827608D01*
X113580404Y-120000000D02*
X113873039Y-120028822D01*
X113873039Y-120028822D02*
X114154429Y-120114180D01*
X114154429Y-120114180D02*
X114413759Y-120252795D01*
X114413759Y-120252795D02*
X114641064Y-120439339D01*
X114641064Y-120439339D02*
X126462430Y-132260706D01*
X117000000Y-89419595D02*
X117028822Y-89126960D01*
X117000000Y-110580404D02*
X117000000Y-89419595D01*
X117028822Y-89126960D02*
X117114180Y-88845570D01*
X117028822Y-110873039D02*
X117000000Y-110580404D01*
X117114180Y-88845570D02*
X117252795Y-88586240D01*
X117114180Y-111154429D02*
X117028822Y-110873039D01*
X117252795Y-88586240D02*
X117439339Y-88358935D01*
X117252795Y-111413759D02*
X117114180Y-111154429D01*
X117439339Y-88358935D02*
X132260706Y-73537569D01*
X117439339Y-111641064D02*
X117252795Y-111413759D01*
X126462430Y-67739293D02*
X112560660Y-81641064D01*
X126462430Y-132260706D02*
X126655751Y-132498242D01*
X126655751Y-67501757D02*
X126462430Y-67739293D01*
X126655751Y-132498242D02*
X126796796Y-132770092D01*
X126796796Y-67229907D02*
X126655751Y-67501757D01*
X126796796Y-132770092D02*
X126879687Y-133064923D01*
X126879687Y-66935076D02*
X126796796Y-67229907D01*
X126879687Y-133064923D02*
X126900967Y-133370445D01*
X126900803Y-66575467D02*
X126900803Y-66624532D01*
X126900803Y-66624532D02*
X126900967Y-66629554D01*
X126900803Y-133375467D02*
X126900803Y-133424532D01*
X126900803Y-133424532D02*
X126913113Y-133800587D01*
X126900967Y-66629554D02*
X126879687Y-66935076D01*
X126900967Y-133370445D02*
X126900803Y-133375467D01*
X126913113Y-66199412D02*
X126900803Y-66575467D01*
X126913113Y-133800587D02*
X126916322Y-133849548D01*
X126916322Y-66150451D02*
X126913113Y-66199412D01*
X126916322Y-133849548D02*
X126953202Y-134223992D01*
X126953202Y-65776007D02*
X126916322Y-66150451D01*
X126953202Y-134223992D02*
X126959606Y-134272638D01*
X126959606Y-65727361D02*
X126953202Y-65776007D01*
X126959606Y-134272638D02*
X127020897Y-134643869D01*
X127020897Y-65356130D02*
X126959606Y-65727361D01*
X127020897Y-134643869D02*
X127030469Y-134691991D01*
X127030469Y-65308008D02*
X127020897Y-65356130D01*
X127030469Y-134691991D02*
X127115908Y-135058419D01*
X127115908Y-64941580D02*
X127030469Y-65308008D01*
X127115908Y-135058419D02*
X127128607Y-135105812D01*
X127128607Y-64894187D02*
X127115908Y-64941580D01*
X127128607Y-135105812D02*
X127237828Y-135465867D01*
X127237828Y-64534132D02*
X127128607Y-64894187D01*
X127237828Y-135465867D02*
X127253600Y-135512329D01*
X127253600Y-64487670D02*
X127237828Y-64534132D01*
X127253600Y-135512329D02*
X127386136Y-135864469D01*
X127386136Y-64135530D02*
X127253600Y-64487670D01*
X127386136Y-135864469D02*
X127404913Y-135909800D01*
X127404913Y-64090199D02*
X127386136Y-64135530D01*
X127404913Y-135909800D02*
X127560196Y-136252518D01*
X127560196Y-63747481D02*
X127404913Y-64090199D01*
X127560196Y-136252518D02*
X127581898Y-136296524D01*
X127581898Y-63703475D02*
X127560196Y-63747481D01*
X127581898Y-136296524D02*
X127759264Y-136628352D01*
X127759264Y-63371647D02*
X127581898Y-63703475D01*
X127759264Y-136628352D02*
X127783796Y-136670844D01*
X127783796Y-63329155D02*
X127759264Y-63371647D01*
X127783796Y-136670844D02*
X127982485Y-136990362D01*
X127982485Y-63009637D02*
X127783796Y-63329155D01*
X127982485Y-136990362D02*
X128009744Y-137031158D01*
X128009744Y-62968841D02*
X127982485Y-63009637D01*
X128009744Y-137031158D02*
X128228905Y-137336997D01*
X128228905Y-62663002D02*
X128009744Y-62968841D01*
X128228905Y-137336997D02*
X128258775Y-137375923D01*
X128258775Y-62624076D02*
X128228905Y-62663002D01*
X128258775Y-137375923D02*
X128497469Y-137666773D01*
X128497469Y-62333226D02*
X128258775Y-62624076D01*
X128497469Y-137666773D02*
X128529820Y-137703662D01*
X128529820Y-62296337D02*
X128497469Y-62333226D01*
X128529820Y-137703662D02*
X128787026Y-137978278D01*
X128787026Y-62021721D02*
X128529820Y-62296337D01*
X128787026Y-137978278D02*
X128821721Y-138012973D01*
X128821721Y-61987026D02*
X128787026Y-62021721D01*
X128821721Y-138012973D02*
X129096337Y-138270179D01*
X129096337Y-61729820D02*
X128821721Y-61987026D01*
X129096337Y-138270179D02*
X129133226Y-138302530D01*
X129133226Y-61697469D02*
X129096337Y-61729820D01*
X129133226Y-138302530D02*
X129424076Y-138541224D01*
X129424076Y-61458775D02*
X129133226Y-61697469D01*
X129424076Y-138541224D02*
X129463002Y-138571094D01*
X129463002Y-61428905D02*
X129424076Y-61458775D01*
X129463002Y-138571094D02*
X129768841Y-138790255D01*
X129768841Y-61209744D02*
X129463002Y-61428905D01*
X129768841Y-138790255D02*
X129809637Y-138817514D01*
X129809637Y-61182485D02*
X129768841Y-61209744D01*
X129809637Y-138817514D02*
X130129155Y-139016203D01*
X130129155Y-60983796D02*
X129809637Y-61182485D01*
X130129155Y-139016203D02*
X130171647Y-139040735D01*
X130171647Y-60959264D02*
X130129155Y-60983796D01*
X130171647Y-139040735D02*
X130503475Y-139218101D01*
X130503475Y-60781898D02*
X130171647Y-60959264D01*
X130503475Y-139218101D02*
X130547481Y-139239803D01*
X130547481Y-60760196D02*
X130503475Y-60781898D01*
X130547481Y-139239803D02*
X130890199Y-139395086D01*
X130890199Y-60604913D02*
X130547481Y-60760196D01*
X130890199Y-139395086D02*
X130935530Y-139413863D01*
X130935530Y-60586136D02*
X130890199Y-60604913D01*
X130935530Y-139413863D02*
X131287670Y-139546399D01*
X131287670Y-60453600D02*
X130935530Y-60586136D01*
X131287670Y-139546399D02*
X131334132Y-139562171D01*
X131334132Y-60437828D02*
X131287670Y-60453600D01*
X131334132Y-139562171D02*
X131694187Y-139671392D01*
X131694187Y-60328607D02*
X131334132Y-60437828D01*
X131694187Y-139671392D02*
X131741580Y-139684091D01*
X131741580Y-60315908D02*
X131694187Y-60328607D01*
X131741580Y-139684091D02*
X132108008Y-139769530D01*
X132108008Y-60230469D02*
X131741580Y-60315908D01*
X132108008Y-139769530D02*
X132156130Y-139779102D01*
X132156130Y-60220897D02*
X132108008Y-60230469D01*
X132156130Y-139779102D02*
X132527361Y-139840393D01*
X132260706Y-73537569D02*
X132498242Y-73344248D01*
X132260706Y-126462430D02*
X117439339Y-111641064D01*
X132498242Y-73344248D02*
X132770092Y-73203203D01*
X132498242Y-126655751D02*
X132260706Y-126462430D01*
X132527361Y-60159606D02*
X132156130Y-60220897D01*
X132527361Y-139840393D02*
X132576007Y-139846797D01*
X132576007Y-60153202D02*
X132527361Y-60159606D01*
X132576007Y-139846797D02*
X132950451Y-139883677D01*
X132770092Y-73203203D02*
X133064923Y-73120312D01*
X132770092Y-126796796D02*
X132498242Y-126655751D01*
X132950451Y-60116322D02*
X132576007Y-60153202D01*
X132950451Y-139883677D02*
X132999412Y-139886886D01*
X132999412Y-60113113D02*
X132950451Y-60116322D01*
X132999412Y-139886886D02*
X133375467Y-139899196D01*
X133064923Y-73120312D02*
X133370445Y-73099032D01*
X133064923Y-126879687D02*
X132770092Y-126796796D01*
X133370445Y-73099032D02*
X133375467Y-73099196D01*
X133370445Y-126900967D02*
X133064923Y-126879687D01*
X133375467Y-60100803D02*
X132999412Y-60113113D01*
X133375467Y-73099196D02*
X133424532Y-73099196D01*
X133375467Y-126900803D02*
X133370445Y-126900967D01*
X133375467Y-139899196D02*
X133424532Y-139899196D01*
X133424532Y-60100803D02*
X133375467Y-60100803D01*
X133424532Y-73099196D02*
X133800587Y-73086886D01*
X133424532Y-126900803D02*
X133375467Y-126900803D01*
X133424532Y-139899196D02*
X133800587Y-139886886D01*
X133800587Y-60113113D02*
X133424532Y-60100803D01*
X133800587Y-73086886D02*
X133849548Y-73083677D01*
X133800587Y-126913113D02*
X133424532Y-126900803D01*
X133800587Y-139886886D02*
X133849548Y-139883677D01*
X133849548Y-60116322D02*
X133800587Y-60113113D01*
X133849548Y-73083677D02*
X134223992Y-73046797D01*
X133849548Y-126916322D02*
X133800587Y-126913113D01*
X133849548Y-139883677D02*
X134223992Y-139846797D01*
X134223992Y-60153202D02*
X133849548Y-60116322D01*
X134223992Y-73046797D02*
X134272638Y-73040393D01*
X134223992Y-126953202D02*
X133849548Y-126916322D01*
X134223992Y-139846797D02*
X134272638Y-139840393D01*
X134272638Y-60159606D02*
X134223992Y-60153202D01*
X134272638Y-73040393D02*
X134643869Y-72979102D01*
X134272638Y-126959606D02*
X134223992Y-126953202D01*
X134272638Y-139840393D02*
X134643869Y-139779102D01*
X134643869Y-60220897D02*
X134272638Y-60159606D01*
X134643869Y-72979102D02*
X134691991Y-72969530D01*
X134643869Y-127020897D02*
X134272638Y-126959606D01*
X134643869Y-139779102D02*
X134691991Y-139769530D01*
X134691991Y-60230469D02*
X134643869Y-60220897D01*
X134691991Y-72969530D02*
X135058419Y-72884091D01*
X134691991Y-127030469D02*
X134643869Y-127020897D01*
X134691991Y-139769530D02*
X135058419Y-139684091D01*
X135058419Y-60315908D02*
X134691991Y-60230469D01*
X135058419Y-72884091D02*
X135105812Y-72871392D01*
X135058419Y-127115908D02*
X134691991Y-127030469D01*
X135058419Y-139684091D02*
X135105812Y-139671392D01*
X135105812Y-60328607D02*
X135058419Y-60315908D01*
X135105812Y-72871392D02*
X135465867Y-72762171D01*
X135105812Y-127128607D02*
X135058419Y-127115908D01*
X135105812Y-139671392D02*
X135465867Y-139562171D01*
X135465867Y-60437828D02*
X135105812Y-60328607D01*
X135465867Y-72762171D02*
X135512329Y-72746399D01*
X135465867Y-127237828D02*
X135105812Y-127128607D01*
X135465867Y-139562171D02*
X135512329Y-139546399D01*
X135512329Y-60453600D02*
X135465867Y-60437828D01*
X135512329Y-72746399D02*
X135864469Y-72613863D01*
X135512329Y-127253600D02*
X135465867Y-127237828D01*
X135512329Y-139546399D02*
X135864469Y-139413863D01*
X135864469Y-60586136D02*
X135512329Y-60453600D01*
X135864469Y-72613863D02*
X135909800Y-72595086D01*
X135864469Y-127386136D02*
X135512329Y-127253600D01*
X135864469Y-139413863D02*
X135909800Y-139395086D01*
X135909800Y-60604913D02*
X135864469Y-60586136D01*
X135909800Y-72595086D02*
X136252518Y-72439803D01*
X135909800Y-127404913D02*
X135864469Y-127386136D01*
X135909800Y-139395086D02*
X136252518Y-139239803D01*
X136252518Y-60760196D02*
X135909800Y-60604913D01*
X136252518Y-72439803D02*
X136296524Y-72418101D01*
X136252518Y-127560196D02*
X135909800Y-127404913D01*
X136252518Y-139239803D02*
X136296524Y-139218101D01*
X136296524Y-60781898D02*
X136252518Y-60760196D01*
X136296524Y-72418101D02*
X136628352Y-72240735D01*
X136296524Y-127581898D02*
X136252518Y-127560196D01*
X136296524Y-139218101D02*
X136628352Y-139040735D01*
X136628352Y-60959264D02*
X136296524Y-60781898D01*
X136628352Y-72240735D02*
X136670844Y-72216203D01*
X136628352Y-127759264D02*
X136296524Y-127581898D01*
X136628352Y-139040735D02*
X136670844Y-139016203D01*
X136670844Y-60983796D02*
X136628352Y-60959264D01*
X136670844Y-72216203D02*
X136990362Y-72017514D01*
X136670844Y-127783796D02*
X136628352Y-127759264D01*
X136670844Y-139016203D02*
X136990362Y-138817514D01*
X136990362Y-61182485D02*
X136670844Y-60983796D01*
X136990362Y-72017514D02*
X137031158Y-71990255D01*
X136990362Y-127982485D02*
X136670844Y-127783796D01*
X136990362Y-138817514D02*
X137031158Y-138790255D01*
X137031158Y-61209744D02*
X136990362Y-61182485D01*
X137031158Y-71990255D02*
X137336997Y-71771094D01*
X137031158Y-128009744D02*
X136990362Y-127982485D01*
X137031158Y-138790255D02*
X137336997Y-138571094D01*
X137336997Y-61428905D02*
X137031158Y-61209744D01*
X137336997Y-71771094D02*
X137375923Y-71741224D01*
X137336997Y-128228905D02*
X137031158Y-128009744D01*
X137336997Y-138571094D02*
X137375923Y-138541224D01*
X137375923Y-61458775D02*
X137336997Y-61428905D01*
X137375923Y-71741224D02*
X137666773Y-71502530D01*
X137375923Y-128258775D02*
X137336997Y-128228905D01*
X137375923Y-138541224D02*
X137666773Y-138302530D01*
X137666773Y-61697469D02*
X137375923Y-61458775D01*
X137666773Y-71502530D02*
X137703662Y-71470179D01*
X137666773Y-128497469D02*
X137375923Y-128258775D01*
X137666773Y-138302530D02*
X137703662Y-138270179D01*
X137703662Y-61729820D02*
X137666773Y-61697469D01*
X137703662Y-71470179D02*
X137978278Y-71212973D01*
X137703662Y-128529820D02*
X137666773Y-128497469D01*
X137703662Y-138270179D02*
X137978278Y-138012973D01*
X137978278Y-61987026D02*
X137703662Y-61729820D01*
X137978278Y-71212973D02*
X138012973Y-71178278D01*
X137978278Y-128787026D02*
X137703662Y-128529820D01*
X137978278Y-138012973D02*
X138012973Y-137978278D01*
X138012973Y-62021721D02*
X137978278Y-61987026D01*
X138012973Y-71178278D02*
X138270179Y-70903662D01*
X138012973Y-128821721D02*
X137978278Y-128787026D01*
X138012973Y-137978278D02*
X138270179Y-137703662D01*
X138270179Y-62296337D02*
X138012973Y-62021721D01*
X138270179Y-70903662D02*
X138302530Y-70866773D01*
X138270179Y-129096337D02*
X138012973Y-128821721D01*
X138270179Y-137703662D02*
X138302530Y-137666773D01*
X138302530Y-62333226D02*
X138270179Y-62296337D01*
X138302530Y-70866773D02*
X138541224Y-70575923D01*
X138302530Y-129133226D02*
X138270179Y-129096337D01*
X138302530Y-137666773D02*
X138541224Y-137375923D01*
X138541224Y-62624076D02*
X138302530Y-62333226D01*
X138541224Y-70575923D02*
X138571094Y-70536997D01*
X138541224Y-129424076D02*
X138302530Y-129133226D01*
X138541224Y-137375923D02*
X138571094Y-137336997D01*
X138571094Y-62663002D02*
X138541224Y-62624076D01*
X138571094Y-70536997D02*
X138790255Y-70231158D01*
X138571094Y-129463002D02*
X138541224Y-129424076D01*
X138571094Y-137336997D02*
X138790255Y-137031158D01*
X138790255Y-62968841D02*
X138571094Y-62663002D01*
X138790255Y-70231158D02*
X138817514Y-70190362D01*
X138790255Y-129768841D02*
X138571094Y-129463002D01*
X138790255Y-137031158D02*
X138817514Y-136990362D01*
X138817514Y-63009637D02*
X138790255Y-62968841D01*
X138817514Y-70190362D02*
X139016203Y-69870844D01*
X138817514Y-129809637D02*
X138790255Y-129768841D01*
X138817514Y-136990362D02*
X139016203Y-136670844D01*
X139016203Y-63329155D02*
X138817514Y-63009637D01*
X139016203Y-69870844D02*
X139040735Y-69828352D01*
X139016203Y-130129155D02*
X138817514Y-129809637D01*
X139016203Y-136670844D02*
X139040735Y-136628352D01*
X139040735Y-63371647D02*
X139016203Y-63329155D01*
X139040735Y-69828352D02*
X139218101Y-69496524D01*
X139040735Y-130171647D02*
X139016203Y-130129155D01*
X139040735Y-136628352D02*
X139218101Y-136296524D01*
X139218101Y-63703475D02*
X139040735Y-63371647D01*
X139218101Y-69496524D02*
X139239803Y-69452518D01*
X139218101Y-130503475D02*
X139040735Y-130171647D01*
X139218101Y-136296524D02*
X139239803Y-136252518D01*
X139239803Y-63747481D02*
X139218101Y-63703475D01*
X139239803Y-69452518D02*
X139395086Y-69109800D01*
X139239803Y-130547481D02*
X139218101Y-130503475D01*
X139239803Y-136252518D02*
X139395086Y-135909800D01*
X139395086Y-64090199D02*
X139239803Y-63747481D01*
X139395086Y-69109800D02*
X139413863Y-69064469D01*
X139395086Y-130890199D02*
X139239803Y-130547481D01*
X139395086Y-135909800D02*
X139413863Y-135864469D01*
X139413863Y-64135530D02*
X139395086Y-64090199D01*
X139413863Y-69064469D02*
X139546399Y-68712329D01*
X139413863Y-130935530D02*
X139395086Y-130890199D01*
X139413863Y-135864469D02*
X139546399Y-135512329D01*
X139546399Y-64487670D02*
X139413863Y-64135530D01*
X139546399Y-68712329D02*
X139562171Y-68665867D01*
X139546399Y-131287670D02*
X139413863Y-130935530D01*
X139546399Y-135512329D02*
X139562171Y-135465867D01*
X139562171Y-64534132D02*
X139546399Y-64487670D01*
X139562171Y-68665867D02*
X139671392Y-68305812D01*
X139562171Y-131334132D02*
X139546399Y-131287670D01*
X139562171Y-135465867D02*
X139671392Y-135105812D01*
X139671392Y-64894187D02*
X139562171Y-64534132D01*
X139671392Y-68305812D02*
X139684091Y-68258419D01*
X139671392Y-131694187D02*
X139562171Y-131334132D01*
X139671392Y-135105812D02*
X139684091Y-135058419D01*
X139684091Y-64941580D02*
X139671392Y-64894187D01*
X139684091Y-68258419D02*
X139769530Y-67891991D01*
X139684091Y-131741580D02*
X139671392Y-131694187D01*
X139684091Y-135058419D02*
X139769530Y-134691991D01*
X139769530Y-65308008D02*
X139684091Y-64941580D01*
X139769530Y-67891991D02*
X139779102Y-67843869D01*
X139769530Y-132108008D02*
X139684091Y-131741580D01*
X139769530Y-134691991D02*
X139779102Y-134643869D01*
X139779102Y-65356130D02*
X139769530Y-65308008D01*
X139779102Y-67843869D02*
X139840393Y-67472638D01*
X139779102Y-132156130D02*
X139769530Y-132108008D01*
X139779102Y-134643869D02*
X139840393Y-134272638D01*
X139840393Y-65727361D02*
X139779102Y-65356130D01*
X139840393Y-67472638D02*
X139846797Y-67423992D01*
X139840393Y-132527361D02*
X139779102Y-132156130D01*
X139840393Y-134272638D02*
X139846797Y-134223992D01*
X139846797Y-65776007D02*
X139840393Y-65727361D01*
X139846797Y-67423992D02*
X139883677Y-67049548D01*
X139846797Y-132576007D02*
X139840393Y-132527361D01*
X139846797Y-134223992D02*
X139883677Y-133849548D01*
X139883677Y-66150451D02*
X139846797Y-65776007D01*
X139883677Y-67049548D02*
X139886886Y-67000587D01*
X139883677Y-132950451D02*
X139846797Y-132576007D01*
X139883677Y-133849548D02*
X139886886Y-133800587D01*
X139886886Y-66199412D02*
X139883677Y-66150451D01*
X139886886Y-67000587D02*
X139899196Y-66624532D01*
X139886886Y-132999412D02*
X139883677Y-132950451D01*
X139886886Y-133800587D02*
X139899196Y-133424532D01*
X139899196Y-66575467D02*
X139886886Y-66199412D01*
X139899196Y-66624532D02*
X139899196Y-66575467D01*
X139899196Y-133375467D02*
X139886886Y-132999412D01*
X139899196Y-133424532D02*
X139899196Y-133375467D01*
M02*
